<svg width="64" height="49" viewBox="0 0 64 49" fill="none" xmlns="http://www.w3.org/2000/svg">
<path d="M10.1465 0.953193C12.4648 0.0559965 15.0186 -0.209729 17.4752 0.164054C20.9999 0.691979 24.2973 2.58644 26.5159 5.3787C27.0833 4.91291 27.7112 4.5259 28.3447 4.15813C29.4769 3.66304 30.7192 3.36646 31.9594 3.4448C32.3211 3.48976 32.6838 3.52209 33.045 3.56806C34.6561 3.87876 36.1843 4.69919 37.2841 5.92382C38.9492 3.73732 41.259 2.05149 43.8486 1.13105C46.5973 0.144406 49.6492 0.0186045 52.4664 0.790543C54.8368 1.42911 57.0369 2.6901 58.7884 4.41178C60.6106 6.20878 61.9686 8.48211 62.6335 10.9576C63.0745 12.556 63.2321 14.2318 63.1083 15.8853C63.0361 17.0028 62.7845 18.098 62.4864 19.1746C62.1641 20.1476 61.7903 21.1136 61.2407 21.9834C60.7511 22.8837 60.1373 23.7122 59.4548 24.4741C58.2544 26.022 57.7614 28.0948 58.1423 30.0166C58.2444 30.4586 58.1474 30.9527 57.8736 31.3159C57.6018 31.6585 57.144 31.7251 56.7394 31.7903C55.6133 32.0075 54.4307 31.9323 53.3404 31.5761C51.6344 31.0164 50.1815 29.7554 49.3812 28.1484C48.1192 28.1332 46.834 27.8721 45.7554 27.193C46.0429 28.017 46.2535 28.8688 46.4036 29.7286C46.4788 30.153 46.2141 30.5228 45.9908 30.8552C45.7357 31.1401 45.4235 31.368 45.1396 31.6246C45.528 32.3814 45.7615 33.2195 45.7806 34.0713C45.8226 35.4252 45.3527 36.7913 44.4742 37.8234C43.8765 38.5377 43.096 39.0924 42.2331 39.44C42.5565 40.5393 42.8762 41.6401 43.2036 42.7389C43.3163 43.0926 43.2961 43.4841 43.1758 43.8332C43.0617 44.1535 42.7621 44.3404 42.507 44.5379C40.6322 45.9691 38.4382 46.9578 36.1511 47.5165C35.1124 47.7747 34.051 47.9374 32.9825 47.9924C32.1601 48.0561 31.3326 48.0834 30.5091 48.0177C26.8813 47.8702 23.2692 46.6441 20.3965 44.4041C20.0827 44.1449 19.6907 43.9049 19.5886 43.4826C19.4744 43.1436 19.6174 42.8041 19.7377 42.4904C20.0544 41.4562 20.3449 40.4151 20.6576 39.3799C19.3931 38.904 18.314 37.9467 17.6931 36.7463C16.8423 35.1509 16.854 33.1468 17.7012 31.5524C17.4168 31.2952 17.103 31.0669 16.8479 30.78C16.6251 30.4476 16.3614 30.0777 16.4382 29.6539C16.5665 28.9239 16.7337 28.199 16.9656 27.4942C16.2114 27.7544 15.4122 27.8377 14.619 27.8585C13.5858 29.9499 11.4191 31.4449 9.08355 31.5964C8.31513 31.6812 7.54221 31.5696 6.79044 31.4115C6.44489 31.3402 6.12258 31.12 5.97762 30.7901C5.84375 30.4758 5.76847 30.1227 5.84728 29.7837C6.2772 27.6816 5.6745 25.3739 4.20693 23.7977C3.66334 23.1425 3.16728 22.4453 2.76054 21.6961C2.22201 20.8448 1.85422 19.9006 1.53396 18.9498C1.36219 18.3961 1.25206 17.8263 1.11465 17.2645C0.611978 14.6789 0.831236 11.9589 1.74159 9.48825C2.39481 7.6948 3.42184 6.04634 4.70912 4.64145C6.20447 3.01421 8.08331 1.74316 10.1465 0.95351L10.1465 0.953193ZM10.4749 3.16326C8.95226 3.819 7.55693 4.78137 6.42175 5.99188C5.88826 6.53395 5.44973 7.15987 5.01178 7.77924C3.87711 9.52823 3.19103 11.5662 3.0511 13.6476C2.83488 16.6177 3.76241 19.6443 5.55989 22.0119C6.28993 22.8121 6.92749 23.7074 7.3624 24.7031C8.0237 26.1762 8.27582 27.8277 8.09845 29.4317C9.53825 29.5802 11.0235 28.9952 11.9798 27.9095C12.7063 27.0987 13.1372 26.0287 13.1645 24.94C13.213 23.7331 12.7583 22.5236 11.949 21.631C11.6827 21.3369 11.608 20.8929 11.7535 20.5251C11.9404 20.0189 12.5396 19.7108 13.0589 19.8724C13.4813 19.9815 13.7308 20.369 13.9844 20.6913C15.0448 22.0892 15.5 23.9094 15.2894 25.6452C15.884 25.5897 16.4488 25.3775 16.9717 25.0971C18.605 24.2524 19.5866 22.3494 19.3794 20.5291C19.2895 19.5369 18.8419 18.6044 18.1887 17.8597C17.7951 17.452 17.8209 16.7377 18.2352 16.3532C18.6363 15.9435 19.3582 15.9485 19.7573 16.3598C20.7141 17.354 21.3068 18.675 21.5078 20.034C22.9279 18.6533 24.6178 17.5621 26.4471 16.8078C24.9386 15.4645 24.0297 13.4837 23.9429 11.4694C23.8833 9.93865 24.2708 8.38573 25.0886 7.08585C23.3634 4.74124 20.7626 3.067 17.9179 2.45574C15.444 1.90659 12.8003 2.15566 10.4749 3.16301L10.4749 3.16326ZM44.9874 3.03873C42.615 3.78695 40.4871 5.28585 38.9877 7.27275C38.8554 7.45361 38.7134 7.62891 38.5532 7.78603C39.0499 8.81866 39.3181 9.9629 39.3171 11.1097C39.3404 13.3381 38.3184 15.5367 36.629 16.9826C38.861 17.9263 40.8453 19.4176 42.422 21.2535C42.4256 19.8556 42.8828 18.4693 43.6779 17.3246C43.9967 16.9315 44.2993 16.4177 44.85 16.3465C45.5305 16.2213 46.1978 16.874 46.0852 17.557C46.0519 18.0081 45.6467 18.2733 45.437 18.6386C44.2963 20.1981 44.3261 22.4902 45.487 24.03C46.2201 25.0874 47.4427 25.7754 48.7107 25.9351C48.4662 23.9582 49.1042 21.8738 50.4829 20.4254C50.8153 20.0915 51.3726 20.0243 51.7767 20.2678C52.2016 20.5037 52.4198 21.0448 52.2778 21.5106C52.2016 21.8062 51.958 22.0067 51.7838 22.2426C51.1437 23.0944 50.792 24.1639 50.8355 25.2309C50.8683 26.56 51.5079 27.8578 52.539 28.6955C53.4676 29.465 54.7023 29.8403 55.9016 29.7221C55.6354 27.3951 56.3108 24.9803 57.7471 23.1308C58.0724 22.6872 58.478 22.3093 58.7772 21.8465C59.4779 20.8074 60.0321 19.6671 60.414 18.4739C61.1136 16.2414 61.1682 13.8104 60.5463 11.5537C59.5804 7.94404 56.8867 4.83159 53.4236 3.41098C50.7754 2.28593 47.725 2.1576 44.9875 3.03865L44.9874 3.03873ZM30.9133 5.65912C30.2383 5.76016 29.5634 5.95011 28.9824 6.31739C28.4419 6.65334 27.8735 6.97919 27.4805 7.494C26.4883 8.60593 25.9962 10.1342 26.1286 11.6159C26.2266 12.7632 26.703 13.8726 27.4527 14.7446C28.2782 15.6762 29.4119 16.341 30.6431 16.5521C31.7868 16.7487 33.0043 16.6148 34.0456 16.0864C35.2626 15.5094 36.2386 14.4576 36.7413 13.2098C37.1909 12.1125 37.2692 10.8682 36.9651 9.7224C36.669 8.60895 36.0143 7.59602 35.1312 6.85692C34.7165 6.52804 34.2476 6.27443 33.7733 6.04504C33.1635 5.75506 32.4835 5.68585 31.8207 5.61461C31.5171 5.59087 31.2139 5.6232 30.9133 5.65907L30.9133 5.65912ZM29.084 18.3841C26.6945 26.5311 24.2979 34.676 21.9073 42.8223C24.1069 44.4779 26.7763 45.4675 29.5046 45.7702C30.4918 45.8454 31.4845 45.9374 32.4737 45.849C35.5124 45.7313 38.535 44.7467 41.0017 42.9558C38.6141 34.8029 36.2124 26.6551 33.8239 18.503C32.281 18.9451 30.6023 18.9112 29.0846 18.3843L29.084 18.3841ZM22.212 22.4278C20.4418 24.4299 19.2318 26.9064 18.6741 29.5162C19.882 30.6023 21.2935 31.4642 22.8147 32.0386C24.0757 27.7313 25.3432 23.4259 26.6077 19.1195C24.9249 19.8869 23.4432 21.0549 22.212 22.428L22.212 22.4278ZM36.2972 19.2225C37.5551 23.5131 38.8166 27.8034 40.076 32.0931C41.5785 31.5192 42.9733 30.6639 44.1691 29.5889C43.7316 27.5328 42.8838 25.5665 41.6861 23.8393C40.3125 21.8872 38.47 20.2321 36.2972 19.2228V19.2225ZM19.5019 32.8277C19.1311 33.6911 19.1397 34.7071 19.5307 35.5623C19.8697 36.3298 20.5173 36.937 21.2695 37.2952C21.5752 36.2383 21.893 35.1855 22.1971 34.1276C21.2614 33.778 20.3526 33.3532 19.5019 32.8277H19.5019ZM40.6904 34.1842C40.9961 35.239 41.3108 36.2914 41.6185 37.3451C42.3515 36.9854 42.9795 36.3853 43.3119 35.634C43.7029 34.7788 43.7115 33.7633 43.3407 32.9004C42.5041 33.4173 41.6099 33.8361 40.6905 34.1842H40.6904Z" fill="#60C742"/>
<path d="M10.1465 0.953193C12.4648 0.0559965 15.0186 -0.209729 17.4752 0.164054C20.9999 0.691979 24.2973 2.58644 26.5159 5.3787C27.0833 4.91291 27.7112 4.5259 28.3447 4.15813C29.4769 3.66304 30.7192 3.36646 31.9594 3.4448C32.3211 3.48976 32.6838 3.52209 33.045 3.56806C34.6561 3.87876 36.1843 4.69919 37.2841 5.92382C38.9492 3.73732 41.259 2.05149 43.8486 1.13105C46.5973 0.144406 49.6492 0.0186045 52.4664 0.790543C54.8368 1.42911 57.0369 2.6901 58.7884 4.41178C60.6106 6.20878 61.9686 8.48211 62.6335 10.9576C63.0745 12.556 63.2321 14.2318 63.1083 15.8853C63.0361 17.0028 62.7845 18.098 62.4864 19.1746C62.1641 20.1476 61.7903 21.1136 61.2407 21.9834C60.7511 22.8837 60.1373 23.7122 59.4548 24.4741C58.2544 26.022 57.7614 28.0948 58.1423 30.0166C58.2444 30.4586 58.1474 30.9527 57.8736 31.3159C57.6018 31.6585 57.144 31.7251 56.7394 31.7903C55.6133 32.0075 54.4307 31.9323 53.3404 31.5761C51.6344 31.0164 50.1815 29.7554 49.3812 28.1484C48.1192 28.1332 46.834 27.8721 45.7554 27.193C46.0429 28.017 46.2535 28.8688 46.4036 29.7286C46.4788 30.153 46.2141 30.5228 45.9908 30.8552C45.7357 31.1401 45.4235 31.368 45.1396 31.6246C45.528 32.3814 45.7615 33.2195 45.7806 34.0713C45.8226 35.4252 45.3527 36.7913 44.4742 37.8234C43.8765 38.5377 43.096 39.0924 42.2331 39.44C42.5565 40.5393 42.8762 41.6401 43.2036 42.7389C43.3163 43.0926 43.2961 43.4841 43.1758 43.8332C43.0617 44.1535 42.7621 44.3404 42.507 44.5379C40.6322 45.9691 38.4382 46.9578 36.1511 47.5165C35.1124 47.7747 34.051 47.9374 32.9825 47.9924C32.1601 48.0561 31.3326 48.0834 30.5091 48.0177C26.8813 47.8702 23.2692 46.6441 20.3965 44.4041C20.0827 44.1449 19.6907 43.9049 19.5886 43.4826C19.4744 43.1436 19.6174 42.8041 19.7377 42.4904C20.0544 41.4562 20.3449 40.4151 20.6576 39.3799C19.3931 38.904 18.314 37.9467 17.6931 36.7463C16.8423 35.1509 16.854 33.1468 17.7012 31.5524C17.4168 31.2952 17.103 31.0669 16.8479 30.78C16.6251 30.4476 16.3614 30.0777 16.4382 29.6539C16.5665 28.9239 16.7337 28.199 16.9656 27.4942C16.2114 27.7544 15.4122 27.8377 14.619 27.8585C13.5858 29.9499 11.4191 31.4449 9.08355 31.5964C8.31513 31.6812 7.54221 31.5696 6.79044 31.4115C6.44489 31.3402 6.12258 31.12 5.97762 30.7901C5.84375 30.4758 5.76847 30.1227 5.84728 29.7837C6.2772 27.6816 5.6745 25.3739 4.20693 23.7977C3.66334 23.1425 3.16728 22.4453 2.76054 21.6961C2.22201 20.8448 1.85422 19.9006 1.53396 18.9498C1.36219 18.3961 1.25206 17.8263 1.11465 17.2645C0.611978 14.6789 0.831236 11.9589 1.74159 9.48825C2.39481 7.6948 3.42184 6.04634 4.70912 4.64145C6.20447 3.01421 8.08331 1.74316 10.1465 0.95351L10.1465 0.953193ZM10.4749 3.16326C8.95226 3.819 7.55693 4.78137 6.42175 5.99188C5.88826 6.53395 5.44973 7.15987 5.01178 7.77924C3.87711 9.52823 3.19103 11.5662 3.0511 13.6476C2.83488 16.6177 3.76241 19.6443 5.55989 22.0119C6.28993 22.8121 6.92749 23.7074 7.3624 24.7031C8.0237 26.1762 8.27582 27.8277 8.09845 29.4317C9.53825 29.5802 11.0235 28.9952 11.9798 27.9095C12.7063 27.0987 13.1372 26.0287 13.1645 24.94C13.213 23.7331 12.7583 22.5236 11.949 21.631C11.6827 21.3369 11.608 20.8929 11.7535 20.5251C11.9404 20.0189 12.5396 19.7108 13.0589 19.8724C13.4813 19.9815 13.7308 20.369 13.9844 20.6913C15.0448 22.0892 15.5 23.9094 15.2894 25.6452C15.884 25.5897 16.4488 25.3775 16.9717 25.0971C18.605 24.2524 19.5866 22.3494 19.3794 20.5291C19.2895 19.5369 18.8419 18.6044 18.1887 17.8597C17.7951 17.452 17.8209 16.7377 18.2352 16.3532C18.6363 15.9435 19.3582 15.9485 19.7573 16.3598C20.7141 17.354 21.3068 18.675 21.5078 20.034C22.9279 18.6533 24.6178 17.5621 26.4471 16.8078C24.9386 15.4645 24.0297 13.4837 23.9429 11.4694C23.8833 9.93865 24.2708 8.38573 25.0886 7.08585C23.3634 4.74124 20.7626 3.067 17.9179 2.45574C15.444 1.90659 12.8003 2.15566 10.4749 3.16301L10.4749 3.16326ZM44.9874 3.03873C42.615 3.78695 40.4871 5.28585 38.9877 7.27275C38.8554 7.45361 38.7134 7.62891 38.5532 7.78603C39.0499 8.81866 39.3181 9.9629 39.3171 11.1097C39.3404 13.3381 38.3184 15.5367 36.629 16.9826C38.861 17.9263 40.8453 19.4176 42.422 21.2535C42.4256 19.8556 42.8828 18.4693 43.6779 17.3246C43.9967 16.9315 44.2993 16.4177 44.85 16.3465C45.5305 16.2213 46.1978 16.874 46.0852 17.557C46.0519 18.0081 45.6467 18.2733 45.437 18.6386C44.2963 20.1981 44.3261 22.4902 45.487 24.03C46.2201 25.0874 47.4427 25.7754 48.7107 25.9351C48.4662 23.9582 49.1042 21.8738 50.4829 20.4254C50.8153 20.0915 51.3726 20.0243 51.7767 20.2678C52.2016 20.5037 52.4198 21.0448 52.2778 21.5106C52.2016 21.8062 51.958 22.0067 51.7838 22.2426C51.1437 23.0944 50.792 24.1639 50.8355 25.2309C50.8683 26.56 51.5079 27.8578 52.539 28.6955C53.4676 29.465 54.7023 29.8403 55.9016 29.7221C55.6354 27.3951 56.3108 24.9803 57.7471 23.1308C58.0724 22.6872 58.478 22.3093 58.7772 21.8465C59.4779 20.8074 60.0321 19.6671 60.414 18.4739C61.1136 16.2414 61.1682 13.8104 60.5463 11.5537C59.5804 7.94404 56.8867 4.83159 53.4236 3.41098C50.7754 2.28593 47.725 2.1576 44.9875 3.03865L44.9874 3.03873ZM30.9133 5.65912C30.2383 5.76016 29.5634 5.95011 28.9824 6.31739C28.4419 6.65334 27.8735 6.97919 27.4805 7.494C26.4883 8.60593 25.9962 10.1342 26.1286 11.6159C26.2266 12.7632 26.703 13.8726 27.4527 14.7446C28.2782 15.6762 29.4119 16.341 30.6431 16.5521C31.7868 16.7487 33.0043 16.6148 34.0456 16.0864C35.2626 15.5094 36.2386 14.4576 36.7413 13.2098C37.1909 12.1125 37.2692 10.8682 36.9651 9.7224C36.669 8.60895 36.0143 7.59602 35.1312 6.85692C34.7165 6.52804 34.2476 6.27443 33.7733 6.04504C33.1635 5.75506 32.4835 5.68585 31.8207 5.61461C31.5171 5.59087 31.2139 5.6232 30.9133 5.65907L30.9133 5.65912ZM29.084 18.3841C26.6945 26.5311 24.2979 34.676 21.9073 42.8223C24.1069 44.4779 26.7763 45.4675 29.5046 45.7702C30.4918 45.8454 31.4845 45.9374 32.4737 45.849C35.5124 45.7313 38.535 44.7467 41.0017 42.9558C38.6141 34.8029 36.2124 26.6551 33.8239 18.503C32.281 18.9451 30.6023 18.9112 29.0846 18.3843L29.084 18.3841ZM22.212 22.4278C20.4418 24.4299 19.2318 26.9064 18.6741 29.5162C19.882 30.6023 21.2935 31.4642 22.8147 32.0386C24.0757 27.7313 25.3432 23.4259 26.6077 19.1195C24.9249 19.8869 23.4432 21.0549 22.212 22.428L22.212 22.4278ZM36.2972 19.2225C37.5551 23.5131 38.8166 27.8034 40.076 32.0931C41.5785 31.5192 42.9733 30.6639 44.1691 29.5889C43.7316 27.5328 42.8838 25.5665 41.6861 23.8393C40.3125 21.8872 38.47 20.2321 36.2972 19.2228V19.2225ZM19.5019 32.8277C19.1311 33.6911 19.1397 34.7071 19.5307 35.5623C19.8697 36.3298 20.5173 36.937 21.2695 37.2952C21.5752 36.2383 21.893 35.1855 22.1971 34.1276C21.2614 33.778 20.3526 33.3532 19.5019 32.8277H19.5019ZM40.6904 34.1842C40.9961 35.239 41.3108 36.2914 41.6185 37.3451C42.3515 36.9854 42.9795 36.3853 43.3119 35.634C43.7029 34.7788 43.7115 33.7633 43.3407 32.9004C42.5041 33.4173 41.6099 33.8361 40.6905 34.1842H40.6904Z" fill="white" fill-opacity="0.5"/>
</svg>
