<svg width="17" height="17" viewBox="0 0 17 17" fill="none" xmlns="http://www.w3.org/2000/svg">
<path d="M9.4248 3.81028L13.8773 8.06043C13.9975 8.17506 14.0655 8.33398 14.0655 8.49999C14.0655 8.666 13.9975 8.82492 13.8773 8.93955L9.4248 13.1897C9.18211 13.4206 8.79788 13.4118 8.56625 13.1692C8.33461 12.9288 8.34329 12.543 8.58679 12.3106L11.9431 9.10715L3.33934 9.10715C3.00414 9.10715 2.73218 8.8352 2.73218 8.49999C2.73218 8.16478 3.00414 7.89283 3.33934 7.89283L11.9431 7.89283L8.58681 4.6894C8.34331 4.45777 8.33461 4.07196 8.56624 3.83084C8.79788 3.58813 9.18211 3.57943 9.4248 3.81028Z" fill="white"/>
</svg>
