<svg width="25" height="25" viewBox="0 0 25 25" fill="none" xmlns="http://www.w3.org/2000/svg">
<path d="M0 5C0 2.23857 2.23858 0 5 0H19.7688C22.5303 0 24.7688 2.23858 24.7688 5V19.7688C24.7688 22.5303 22.5303 24.7688 19.7688 24.7688H5C2.23857 24.7688 0 22.5303 0 19.7688V5Z" fill="#FFF22D"/>
<path fill-rule="evenodd" clip-rule="evenodd" d="M18.6866 7.74125L20.3451 6.63599V4.42334L17.0281 6.63599L18.6866 7.74125ZM6.08156 17.0294L4.42303 18.1346V20.3466L7.74008 18.1346L6.08156 17.0294ZM20.3451 15.038L12.3841 20.3461L4.42303 15.038L13.8772 8.73588L15.5357 9.84185L7.90622 14.9282L12.5502 18.0243L14.7057 16.5868L13.0472 15.4808L17.0281 12.826L20.3451 15.038ZM12.3848 4.42519L4.42303 9.73184L7.74007 11.9438L11.7209 9.28903L10.0624 8.18377L12.2186 6.74623L16.8626 9.84166L9.23316 14.928L10.8917 16.0339L20.3458 9.73184L12.3848 4.42519Z" fill="#2360A5"/>
</svg>
