<svg width="26" height="25" viewBox="0 0 26 25" fill="none" xmlns="http://www.w3.org/2000/svg">
<path d="M0 5C0 2.23857 2.23858 0 5 0H20.5678C23.3293 0 25.5678 2.23858 25.5678 5V19.7688C25.5678 22.5303 23.3293 24.7688 20.5678 24.7688H5.00001C2.23858 24.7688 0 22.5303 0 19.7688V5Z" fill="#FE0000"/>
<path d="M13.0066 5.97854C13.0066 7.71775 15.8364 9.64882 15.8364 11.635C15.8364 11.8488 15.9466 12.0724 16.1538 12.1252C18.5892 12.745 20.278 14.0434 20.278 15.5518C20.278 17.6744 16.9801 19.4186 12.8772 19.4544C12.8247 19.4548 12.7708 19.4548 12.7183 19.4548C8.61769 19.4548 5.28992 17.7565 5.28992 15.6339C5.28992 15.4224 5.32593 15.2161 5.39416 15.016C6.27781 12.4235 12.1251 14.0546 12.6139 16.7496C12.6335 16.858 12.6362 16.9076 12.6393 17.0176C12.6396 17.0309 12.6398 17.0445 12.6398 17.0583C12.6398 17.1218 12.714 17.17 12.7624 17.129C13.2292 16.733 13.2292 15.8666 13.2292 15.8666C13.2292 13.4289 10.5173 12.347 10.5173 9.95012C10.5173 9.40565 10.6606 8.94547 10.8556 8.61879C11.0133 8.35461 11.3163 8.50585 11.3163 8.81351C11.3163 10.5527 14.2512 12.4976 14.2512 14.0862C14.2512 14.3353 14.5008 14.4768 14.6326 14.2654C14.9323 13.7845 14.9323 13.0317 14.9323 13.0317C14.9323 10.8405 12.2075 9.62147 12.2075 7.11516C12.2075 6.57063 12.3508 6.11041 12.5458 5.78372C12.7035 5.51949 13.0066 5.67083 13.0066 5.97854Z" fill="white"/>
</svg>
