<svg width="25" height="25" viewBox="0 0 25 25" fill="none" xmlns="http://www.w3.org/2000/svg">
<path fill-rule="evenodd" clip-rule="evenodd" d="M4.04023 -3.8147e-05L20.1905 -3.8147e-05L20.4 0.00428581L20.6038 0.0215874L20.8069 0.0475388L21.0057 0.0828629L21.201 0.129002L21.3934 0.183788L21.5808 0.24795L21.7639 0.32148L21.9428 0.402941L22.1167 0.493053L22.2863 0.592537L22.4502 0.698509L22.6077 0.811689L22.7602 0.93424L22.9077 1.06328L23.0467 1.19809L23.1813 1.34011L23.3075 1.48717L23.4286 1.64216L23.5405 1.80292L23.6446 1.96873L23.7415 2.1403L23.8313 2.3162L23.9132 2.49714L23.9838 2.68241L24.0479 2.87201L24.1021 3.06665L24.1477 3.26418L24.1826 3.46531L24.2082 3.6686L24.2246 3.87694L24.2296 4.08744L24.2296 20.428L24.2246 20.6378L24.2082 20.8447L24.1826 21.05L24.1477 21.2506L24.1021 21.4483L24.0479 21.6428L23.9838 21.8312L23.9132 22.0165L23.8313 22.1989L23.7415 22.3735L23.6446 22.5451L23.5405 22.7105L23.4286 22.8714L23.3075 23.0246L23.1813 23.1731L23.0467 23.3156L22.9077 23.4504L22.7602 23.5791L22.6077 23.7001L22.4502 23.8135L22.2863 23.9192L22.1167 24.0172L21.9428 24.1076L21.7639 24.1903L21.5808 24.2623L21.3934 24.3267L21.201 24.3818L21.0057 24.4278L20.8069 24.463L20.6038 24.4891L20.4 24.5059L20.1905 24.5105L4.04023 24.5105L3.83122 24.5059L3.62684 24.4891L3.42388 24.463L3.22549 24.4278L3.02866 24.3818L2.83782 24.3267L2.65004 24.2623L2.46683 24.1903L2.2866 24.1076L2.11251 24.0172L1.9444 23.9192L1.77936 23.8135L1.62187 23.7001L1.46886 23.5791L1.32199 23.4504L1.18267 23.3156L1.04792 23.1731L0.92221 23.0246L0.80256 22.8714L0.689039 22.7105L0.584532 22.5451L0.487615 22.3735L0.398266 22.1989L0.316493 22.0165L0.245323 21.8312L0.181721 21.6428L0.127205 21.4483L0.0817752 21.2506L0.0469442 21.05L0.0212006 20.8447L0.00454299 20.6378L0 20.428L0 4.08744L0.00454299 3.87694L0.0212006 3.6686L0.0469442 3.46531L0.0817752 3.26418L0.127205 3.06665L0.181721 2.87201L0.245323 2.68241L0.316493 2.49714L0.398266 2.3162L0.487615 2.1403L0.584532 1.96873L0.689039 1.80292L0.80256 1.64216L0.92221 1.48717L1.04792 1.34011L1.18267 1.19809L1.32199 1.06328L1.46886 0.93424L1.62187 0.811689L1.77936 0.698509L1.9444 0.592537L2.11251 0.493053L2.2866 0.402941L2.46683 0.32148L2.65004 0.24795L2.83782 0.183788L3.02866 0.129002L3.22549 0.0828629L3.42388 0.0475388L3.62684 0.0215874L3.83122 0.00428581L4.04023 -3.8147e-05Z" fill="#1A5493"/>
<path fill-rule="evenodd" clip-rule="evenodd" d="M2.0426 20.4214H3.92643L3.92643 12.25H2.0426L2.0426 20.4214Z" fill="#FFF212"/>
<path fill-rule="evenodd" clip-rule="evenodd" d="M12.3676 14.1193H12.26L12.1538 14.1229L12.0491 14.1272L11.9479 14.1337L11.8481 14.1395L11.7498 14.1489L11.6528 14.1597L11.5574 14.1705L11.4647 14.1842L11.3742 14.1979L11.2844 14.213L11.1968 14.2296L11.112 14.2469L11.0286 14.2649L10.9466 14.2851L10.8668 14.3053L10.7891 14.3262L10.7136 14.3478L10.6409 14.3709L10.5697 14.394L10.4998 14.417L10.4335 14.4416L10.3687 14.4661L10.306 14.492L10.2454 14.5165L10.187 14.5425L10.1307 14.5684L10.0758 14.5944L10.0245 14.6203L9.97461 14.6463L9.92758 14.673L9.88197 14.6989L10.2369 15.9028L10.2775 15.8783L10.3202 15.8538L10.3637 15.8293L10.4093 15.8062L10.4563 15.7831L10.5048 15.7601L10.5547 15.737L10.606 15.7161L10.6594 15.6945L10.7136 15.6728L10.7685 15.6512L10.8241 15.6317L10.8804 15.613L10.9381 15.5935L10.9965 15.5748L11.0557 15.5582L11.1162 15.5409L11.1768 15.5258L11.2388 15.5106L11.2994 15.4969L11.3621 15.4832L11.4255 15.471L11.4875 15.4602L11.5509 15.4494L11.6129 15.44L11.6771 15.4328L11.7405 15.4249L11.8025 15.4205L11.8659 15.4155L11.9279 15.4112L11.9921 15.4097H12.0541L12.1538 15.4112L12.2507 15.4155L12.3412 15.4234L12.426 15.4328L12.508 15.4465L12.5857 15.4616L12.6584 15.4796L12.7261 15.4998L12.7916 15.5229L12.8522 15.5474L12.9078 15.5734L12.9591 15.6008L13.0075 15.6303L13.0532 15.6606L13.0959 15.693L13.1337 15.7247L13.1686 15.7586L13.2014 15.794L13.2306 15.8278L13.2563 15.8632L13.2791 15.8999L13.3004 15.9352L13.3183 15.9698L13.3346 16.0052L13.3489 16.0405L13.3589 16.0744L13.3681 16.1083L13.376 16.14L13.3817 16.1724L13.3852 16.2027L13.3881 16.2323V16.2596V16.3253L13.1622 16.3274L12.9413 16.3332L12.7261 16.344L12.5173 16.3591L12.3142 16.3793L12.1175 16.4053L11.9251 16.4341L11.7405 16.4694L11.5616 16.5076L11.3906 16.5523L11.2238 16.6014L11.0649 16.6547L10.9139 16.7131L10.7685 16.7758L10.6288 16.8436L10.497 16.9157L10.373 16.9921L10.2561 17.0728L10.1456 17.1586L10.0445 17.2509L9.94896 17.3458L9.86273 17.4454L9.78363 17.5511L9.71094 17.6598L9.64895 17.7732L9.59336 17.8927L9.54633 18.0152L9.50856 18.1439L9.47792 18.2756L9.45511 18.412L9.443 18.5545L9.43872 18.7L9.44015 18.7873L9.44585 18.8746L9.45654 18.9619L9.47221 19.0477L9.49145 19.1335L9.51426 19.2193L9.54134 19.3036L9.57341 19.3863L9.60833 19.4675L9.64895 19.5471L9.69313 19.6253L9.74016 19.7019L9.79147 19.7769L9.84777 19.8489L9.90834 19.9194L9.97176 19.9868L10.0395 20.0511L10.1107 20.1124L10.187 20.1707L10.2654 20.2258L10.3487 20.2778L10.4364 20.3269L10.5276 20.3713L10.6231 20.4111L10.7214 20.4479L10.8226 20.4801L10.9302 20.5077L11.0393 20.5306L11.1526 20.549L11.2695 20.5628L11.3906 20.5705L11.5146 20.5735L11.5901 20.572L11.665 20.5689L11.7377 20.5658L11.8103 20.5597L11.8809 20.5521L11.9522 20.5428L12.022 20.5322L12.0918 20.5199L12.1595 20.5046L12.2265 20.4893L12.2928 20.4724L12.3583 20.454L12.4218 20.4341L12.4852 20.4127L12.5472 20.3881L12.6078 20.3636L12.6669 20.3376L12.7261 20.31L12.7838 20.2825L12.8401 20.2518L12.8942 20.2197L12.947 20.1874L13.0004 20.1523L13.0503 20.117L13.1002 20.0802L13.1486 20.042L13.1957 20.0021L13.2399 19.9607L13.2833 19.9194L13.3261 19.8765L13.3667 19.832L13.4059 19.7861H13.4273L13.6332 20.4219H15.1661V16.8003L15.164 16.6626L15.1568 16.5278L15.1461 16.3945L15.1312 16.2625L15.1112 16.1328L15.0856 16.0052L15.0571 15.8812L15.0221 15.7601L14.9808 15.6411L14.9373 15.5258L14.8853 15.414L14.8297 15.3052L14.7677 15.1999L14.7007 15.0983L14.6266 15.0002L14.5482 14.9072L14.4634 14.8179L14.3708 14.7342L14.2725 14.6542L14.1677 14.5792L14.0572 14.5086L13.9389 14.4444L13.815 14.3846L13.6831 14.3313L13.5456 14.2822L13.3988 14.2404L13.2456 14.2037L13.0852 14.1734L12.917 14.1503L12.741 14.1337L12.5579 14.1229L12.3676 14.1193ZM13.4423 18.1622V18.199L13.4408 18.2373L13.438 18.2755L13.4351 18.3154L13.4301 18.3537L13.4259 18.3936L13.4195 18.4318L13.4109 18.4701L13.4073 18.4839L13.4016 18.5039L13.3974 18.5222L13.3924 18.5345L13.3867 18.5498L13.3803 18.5651L13.3639 18.6034L13.3453 18.6402L13.3261 18.6769L13.3047 18.7137L13.2819 18.749L13.2577 18.7857L13.232 18.8209L13.205 18.8546L13.1757 18.8883L13.1472 18.922L13.1152 18.9542L13.0824 18.9864L13.0489 19.017L13.014 19.0461L12.9762 19.0752L12.9384 19.1028L12.8985 19.1289L12.8593 19.1549L12.8173 19.1779L12.7745 19.2008L12.7311 19.2223L12.6854 19.2407L12.6398 19.2591L12.5914 19.2759L12.5429 19.2897L12.4945 19.3035L12.4432 19.3142L12.3918 19.3234L12.3398 19.3311L12.2857 19.3356L12.2308 19.3402H12.1766H12.1282L12.0811 19.3372L12.0355 19.3341L11.9899 19.328L11.9465 19.3203L11.9037 19.3127L11.8617 19.302L11.8203 19.2897L11.7826 19.2774L11.7434 19.2621L11.707 19.2453L11.6721 19.2269L11.6372 19.2085L11.6058 19.187L11.5738 19.1641L11.5452 19.1411L11.516 19.115L11.4904 19.0875L11.4647 19.0599L11.4419 19.0292L11.4205 18.9971L11.3999 18.9649L11.3813 18.9297L11.365 18.8944L11.3514 18.8577L11.3379 18.8179L11.3272 18.778L11.3179 18.7367L11.3101 18.6922L11.3058 18.6478L11.303 18.6019L11.3015 18.5544L11.303 18.5008L11.3072 18.4502L11.3151 18.3997L11.3236 18.3507L11.3357 18.3047L11.3514 18.2588L11.3692 18.2159L11.3892 18.173L11.412 18.1316L11.4362 18.0933L11.4633 18.055L11.4932 18.0182L11.5253 17.983L11.5602 17.9508L11.5966 17.9186L11.6358 17.888L11.6771 17.8574L11.7191 17.8298L11.7647 17.8037L11.8118 17.7777L11.8602 17.7532L11.9115 17.7302L11.9628 17.7088L12.0177 17.6889L12.0747 17.6689L12.1325 17.6521L12.1916 17.6353L12.2536 17.6184L12.3156 17.6046L12.3812 17.5908L12.446 17.5786L12.5144 17.5678L12.5778 17.5586L12.6441 17.5495L12.7111 17.5418L12.7809 17.5341L12.8501 17.5296L12.9228 17.5234L12.9954 17.5203L13.0703 17.5173L13.1152 17.5157L13.1608 17.5142L13.2078 17.5127H13.2534H13.3004H13.3468H13.3938H13.4423V18.1622Z" fill="#FFF212"/>
<path fill-rule="evenodd" clip-rule="evenodd" d="M20.369 14.2986V17.8879V17.9415L20.3661 17.9936L20.3611 18.0442L20.354 18.0932L20.3461 18.1422L20.3355 18.1881L20.3219 18.2341L20.3055 18.277L20.292 18.3122L20.2749 18.3475L20.2571 18.3827L20.2385 18.418L20.2193 18.4516L20.1979 18.4869L20.1751 18.5221L20.1509 18.5558L20.1252 18.5895L20.0996 18.6232L20.0704 18.6569L20.0419 18.6891L20.0119 18.7197L19.9799 18.7504L19.9464 18.7795L19.9114 18.8085L19.8751 18.8361L19.8388 18.8637L19.7996 18.8882L19.7604 18.9127L19.7176 18.9342L19.6756 18.9556L19.6314 18.9756L19.5858 18.9924L19.5395 19.0092L19.491 19.023L19.4404 19.0353L19.3891 19.0445L19.3378 19.0536L19.2829 19.0583L19.2288 19.0629H19.171L19.1012 19.0614L19.0335 19.0567L18.9665 19.0491L18.9031 19.0368L18.8425 19.023L18.7834 19.0046L18.7278 18.9832L18.6743 18.9587L18.623 18.9327L18.5746 18.902L18.5275 18.8683L18.4833 18.8315L18.4427 18.7933L18.4021 18.7504L18.3658 18.706L18.3308 18.6584L18.2973 18.6079L18.2674 18.5543L18.2396 18.4976L18.2125 18.4394L18.1897 18.3781L18.1669 18.3138L18.1477 18.2464L18.1306 18.1774L18.1156 18.1054L18.1021 18.0319L18.0914 17.9553L18.0821 17.8756L18.075 17.7945L18.07 17.7102L18.0672 17.6244L18.0657 17.5356V14.2957H16.2272V17.8756V17.966L16.23 18.0533L16.2336 18.1376L16.2379 18.2219L16.2443 18.3046L16.2514 18.3857L16.2607 18.4639L16.2699 18.542L16.282 18.6171L16.2942 18.6906L16.3077 18.7626L16.3241 18.833L16.3412 18.902L16.359 18.9694L16.3775 19.0353L16.3982 19.0981L16.4196 19.1609L16.4438 19.2222L16.4666 19.282L16.4923 19.3401L16.5179 19.3968L16.5436 19.4519L16.5728 19.5056L16.6013 19.5592L16.6298 19.6097L16.6604 19.6603L16.6925 19.7093L16.7253 19.7553L16.7588 19.8012L16.7937 19.8457L16.8286 19.8886L16.865 19.9299L16.9027 19.9713L16.9419 20.0096L16.9811 20.0479L17.021 20.0831L17.0631 20.1183L17.1044 20.1521L17.1479 20.1842L17.1921 20.2149L17.2377 20.244L17.2826 20.2715L17.3296 20.2975L17.3766 20.3236L17.4251 20.3466L17.475 20.3696L17.5249 20.3895L17.5769 20.4094L17.6296 20.4278L17.6809 20.4446L17.7358 20.4615L17.7885 20.4752L17.8448 20.4891L17.899 20.5013L17.9553 20.5136L18.013 20.5228L18.07 20.532L18.1277 20.5396L18.1869 20.5458L18.246 20.5519L18.3066 20.5565L18.3672 20.558L18.4292 20.561H18.4912H18.5461L18.5988 20.5595L18.6501 20.558L18.7014 20.5549L18.7534 20.5504L18.8033 20.5458L18.8532 20.5411L18.9017 20.5335L18.9487 20.5274L18.9957 20.5181L19.0428 20.5105L19.0877 20.4998L19.1318 20.4906L19.176 20.4783L19.2195 20.4661L19.2622 20.4538L19.3435 20.4262L19.424 20.3972L19.4995 20.3665L19.5737 20.3359L19.6449 20.3022L19.7133 20.2685L19.7782 20.2317L19.8402 20.195L19.8993 20.1566L19.9571 20.1183L20.0119 20.0785L20.0647 20.0387L20.1145 19.9973L20.1616 19.9544L20.2058 19.9115L20.2478 19.8671L20.2884 19.8242L20.3269 19.7813L20.3611 19.7399L20.3946 19.7001L20.4267 19.6619L20.4552 19.6235L20.4808 19.5883L20.5051 19.5516L20.7417 20.4217H22.2346V14.2986H20.369Z" fill="#FFF212"/>
<path fill-rule="evenodd" clip-rule="evenodd" d="M5.69366 12.2507V14.2959H4.83502V15.6916H5.69366L5.69366 18.1822L5.69516 18.2588L5.69666 18.3339L5.69823 18.4089L5.70122 18.4809L5.70578 18.553L5.71184 18.6234L5.71789 18.6923L5.72545 18.7613L5.733 18.8271L5.74212 18.893L5.75274 18.9574L5.76486 19.0202L5.77697 19.0814L5.79058 19.1427L5.80419 19.2009L5.81937 19.2591L5.83598 19.3158L5.85415 19.371L5.87232 19.4246L5.89206 19.4766L5.91322 19.5288L5.93446 19.5778L5.95712 19.6268L5.98135 19.6727L6.00558 19.7187L6.03138 19.7631L6.0586 19.806L6.08739 19.8489L6.11618 19.8888L6.14647 19.9271L6.17825 19.9653L6.21003 20.0006L6.24032 20.0312L6.27061 20.0619L6.30239 20.091L6.33424 20.12L6.36902 20.1477L6.40387 20.1752L6.44171 20.2028L6.47962 20.2288L6.51746 20.2549L6.55836 20.2794L6.5992 20.3024L6.6416 20.3269L6.68557 20.3484L6.72947 20.3698L6.77643 20.3912L6.82182 20.4096L6.87028 20.4295L6.91874 20.4464L6.96869 20.4632L7.01872 20.4785L7.07017 20.4938L7.12319 20.5061L7.17614 20.5183L7.23101 20.5291L7.28517 20.5398L7.34147 20.549L7.39705 20.5551L7.45478 20.5612L7.5125 20.5674L7.57165 20.5705L7.63079 20.572L7.69137 20.5735L7.79113 20.572L7.88306 20.5689L7.97 20.5643L8.04839 20.5582L8.1225 20.5506L8.19092 20.5413L8.25577 20.5306L8.31491 20.5183L8.37264 20.5061L8.42537 20.4923L8.47525 20.477L8.52514 20.4617L8.6192 20.428L8.71185 20.3928V18.9696L8.68762 18.9788L8.65555 18.988L8.61778 18.9972L8.57075 19.0048L8.51801 19.0125L8.45886 19.0171L8.39544 19.0217L8.32703 19.0232L8.26646 19.0217L8.21016 19.0187L8.156 19.0125L8.10469 19.0033L8.05623 18.9926L8.01062 18.9803L7.96644 18.965L7.92582 18.9466L7.88805 18.9267L7.85171 18.9053L7.81679 18.8792L7.78615 18.8532L7.75622 18.8241L7.72914 18.7935L7.70348 18.7597L7.68068 18.7229L7.6593 18.6862L7.63935 18.6449L7.62153 18.6035L7.60443 18.5591L7.59089 18.5116L7.57735 18.4641L7.56666 18.412L7.55597 18.3599L7.54884 18.3048L7.541 18.2466L7.5353 18.1883L7.53031 18.1271L7.52746 18.0628L7.52461 17.9984L7.52319 17.931V17.8621V15.6916H8.69189V14.2959H7.52319V12.2507H5.69366Z" fill="#FFF212"/>
<path fill-rule="evenodd" clip-rule="evenodd" d="M19.6741 12.2491L18.5382 13.9006H19.8523L21.4536 12.2491H19.6741Z" fill="#FFF212"/>
</svg>
