<svg width="45" height="28" viewBox="0 0 45 28" fill="none" xmlns="http://www.w3.org/2000/svg">
<path fill-rule="evenodd" clip-rule="evenodd" d="M0.916382 0.865234H2.37457V27.3703H0.916382V0.865234Z" fill="#435162"/>
<path fill-rule="evenodd" clip-rule="evenodd" d="M43.2039 0.865234H44.6621V27.3703H43.2039V0.865234Z" fill="#435162"/>
<path fill-rule="evenodd" clip-rule="evenodd" d="M5.29095 0.865234H6.74915V14.4759H5.29095V0.865234Z" fill="#435162"/>
<path fill-rule="evenodd" clip-rule="evenodd" d="M38.1002 0.865234H39.5584V14.4759H38.1002V0.865234Z" fill="#435162"/>
<path fill-rule="evenodd" clip-rule="evenodd" d="M24.9766 0.865234H26.4348V14.4759H24.9766V0.865234Z" fill="#435162"/>
<rect x="8.9364" y="0.865234" width="1.45819" height="13.6107" fill="#435162"/>
<rect x="28.622" y="0.865234" width="1.45819" height="13.6107" fill="#435162"/>
<path fill-rule="evenodd" clip-rule="evenodd" d="M15.4983 0.865234H16.9565V14.4759H15.4983V0.865234Z" fill="#435162"/>
<path fill-rule="evenodd" clip-rule="evenodd" d="M19.8729 0.865234H22.0602V14.4759H19.8729V0.865234Z" fill="#435162"/>
<path fill-rule="evenodd" clip-rule="evenodd" d="M35.1838 0.865234H37.3711V14.4759H35.1838V0.865234Z" fill="#435162"/>
<path fill-rule="evenodd" clip-rule="evenodd" d="M7.47827 0.865234H8.20737V14.4759H7.47827V0.865234Z" fill="#435162"/>
<path fill-rule="evenodd" clip-rule="evenodd" d="M27.1638 0.865234H27.8929V14.4759H27.1638V0.865234Z" fill="#435162"/>
<path fill-rule="evenodd" clip-rule="evenodd" d="M11.1237 0.865234H11.8528V14.4759H11.1237V0.865234Z" fill="#435162"/>
<path fill-rule="evenodd" clip-rule="evenodd" d="M30.8093 0.865234H31.5384V14.4759H30.8093V0.865234Z" fill="#435162"/>
<path fill-rule="evenodd" clip-rule="evenodd" d="M13.311 0.865234H14.0401V14.4759H13.311V0.865234Z" fill="#435162"/>
<path fill-rule="evenodd" clip-rule="evenodd" d="M32.9966 0.865234H33.7257V14.4759H32.9966V0.865234Z" fill="#435162"/>
<path fill-rule="evenodd" clip-rule="evenodd" d="M40.2875 0.865234H41.0166V14.4759H40.2875V0.865234Z" fill="#435162"/>
<path fill-rule="evenodd" clip-rule="evenodd" d="M17.6855 0.865234H18.4146V14.4759H17.6855V0.865234Z" fill="#435162"/>
<path fill-rule="evenodd" clip-rule="evenodd" d="M22.7892 0.865234H23.5183V14.4759H22.7892V0.865234Z" fill="#435162"/>
<path fill-rule="evenodd" clip-rule="evenodd" d="M3.10364 0.865234H3.83273V27.3703H3.10364V0.865234Z" fill="#435162"/>
<path fill-rule="evenodd" clip-rule="evenodd" d="M41.7457 0.865234H42.4748V27.3703H41.7457V0.865234Z" fill="#435162"/>
<path fill-rule="evenodd" clip-rule="evenodd" d="M5.84631 24.5049V18.3935H8.02506C8.77979 18.3935 9.35224 18.5355 9.74242 18.8196C10.1326 19.1036 10.3277 19.5198 10.3277 20.0683C10.3277 20.3677 10.2494 20.6314 10.0927 20.8595C9.93608 21.0875 9.71821 21.2547 9.4391 21.3611C9.75808 21.4394 10.0094 21.5975 10.1931 21.8354C10.3768 22.0732 10.4687 22.3642 10.4687 22.7084C10.4687 23.2961 10.2778 23.741 9.89621 24.0432C9.51457 24.3454 8.97061 24.4993 8.26429 24.5049H5.84631ZM7.12793 21.8438V23.4933H8.22584C8.52773 23.4933 8.76341 23.4227 8.93287 23.2814C9.10232 23.1401 9.18705 22.9449 9.18705 22.6958C9.18705 22.1362 8.89228 21.8522 8.30274 21.8438H7.12793ZM7.12793 20.9539H8.07632C8.72283 20.9427 9.04607 20.6895 9.04607 20.1942C9.04607 19.9172 8.96419 19.7178 8.80043 19.5961C8.63667 19.4743 8.37821 19.4135 8.02506 19.4135H7.12793V20.9539ZM16.9038 21.5877C16.9038 22.1894 16.7956 22.7168 16.5791 23.1701C16.3627 23.6235 16.0529 23.9732 15.6499 24.2195C15.2469 24.4657 14.7849 24.5888 14.2637 24.5888C13.7482 24.5888 13.2882 24.4671 12.8838 24.2237C12.4794 23.9802 12.1661 23.6325 11.9439 23.1806C11.7218 22.7287 11.6093 22.2089 11.6065 21.6213V21.3191C11.6065 20.7175 11.7168 20.1879 11.9375 19.7304C12.1583 19.2729 12.4701 18.9217 12.8731 18.6768C13.2761 18.432 13.7368 18.3096 14.2551 18.3096C14.7735 18.3096 15.2341 18.432 15.6371 18.6768C16.0401 18.9217 16.352 19.2729 16.5727 19.7304C16.7934 20.1879 16.9038 20.7161 16.9038 21.3149V21.5877ZM15.6051 21.3107C15.6051 20.6699 15.4883 20.183 15.2548 19.85C15.0212 19.517 14.688 19.3505 14.2551 19.3505C13.8251 19.3505 13.4933 19.5149 13.2597 19.8437C13.0262 20.1725 12.908 20.6545 12.9052 21.2897V21.5877C12.9052 22.2117 13.0219 22.6958 13.2555 23.04C13.489 23.3842 13.8251 23.5563 14.2637 23.5563C14.6937 23.5563 15.0241 23.3905 15.2548 23.0589C15.4855 22.7273 15.6022 22.2439 15.6051 21.6087V21.3107ZM19.4813 23.4933H22.2025V24.5049H18.1996V18.3935H19.4813V23.4933ZM27.0442 21.8564H24.5835V23.4933H27.4714V24.5049H23.3019V18.3935H27.4629V19.4135H24.5835V20.87H27.0442V21.8564ZM33.3554 19.4135H31.4501V24.5049H30.1685V19.4135H28.2888V18.3935H33.3554V19.4135ZM39.4402 21.5877C39.4402 22.1894 39.332 22.7168 39.1156 23.1701C38.8991 23.6235 38.5894 23.9732 38.1864 24.2195C37.7834 24.4657 37.3213 24.5888 36.8001 24.5888C36.2846 24.5888 35.8247 24.4671 35.4202 24.2237C35.0158 23.9802 34.7025 23.6325 34.4804 23.1806C34.2583 22.7287 34.1458 22.2089 34.1429 21.6213V21.3191C34.1429 20.7175 34.2533 20.1879 34.474 19.7304C34.6947 19.2729 35.0066 18.9217 35.4096 18.6768C35.8126 18.432 36.2732 18.3096 36.7916 18.3096C37.3099 18.3096 37.7706 18.432 38.1736 18.6768C38.5766 18.9217 38.8884 19.2729 39.1092 19.7304C39.3299 20.1879 39.4402 20.7161 39.4402 21.3149V21.5877ZM38.1415 21.3107C38.1415 20.6699 38.0248 20.183 37.7912 19.85C37.5577 19.517 37.2245 19.3505 36.7916 19.3505C36.3615 19.3505 36.0297 19.5149 35.7962 19.8437C35.5626 20.1725 35.4445 20.6545 35.4416 21.2897V21.5877C35.4416 22.2117 35.5584 22.6958 35.7919 23.04C36.0255 23.3842 36.3615 23.5563 36.8001 23.5563C37.2302 23.5563 37.5605 23.3905 37.7912 23.0589C38.0219 22.7273 38.1387 22.2439 38.1415 21.6087V21.3107Z" fill="#435162"/>
</svg>
