<svg width="62" height="56" viewBox="0 0 62 56" fill="none" xmlns="http://www.w3.org/2000/svg">
<path d="M20.3856 15.399C20.3856 15.399 47.7182 15.3274 49.7032 15.399C49.7873 16.7063 49.8172 16.9362 49.8172 17.8822C48.7521 17.8952 25.2782 18.0233 20.9066 18.0428C20.66 17.1717 20.486 16.2885 20.3856 15.399Z" fill="#AFE3A0" stroke="#AFE3A0" stroke-width="2" stroke-linecap="round" stroke-linejoin="round"/>
<path d="M2.14539 2H17.2301L21.1009 22.845" stroke="#AFE3A0" stroke-width="2.5" stroke-linecap="round" stroke-linejoin="round"/>
<path d="M23.2985 53.9871C32.1203 53.9871 39.2719 47.0146 39.2719 38.4135C39.2719 29.8124 32.1203 22.8398 23.2985 22.8398C14.4766 22.8398 7.32507 29.8124 7.32507 38.4135C7.32507 47.0146 14.4766 53.9871 23.2985 53.9871Z" stroke="#AFE3A0" stroke-width="2.5" stroke-linecap="round" stroke-linejoin="round"/>
<path d="M23.3057 48.21C28.5697 48.21 32.8371 44.0496 32.8371 38.9175C32.8371 33.7854 28.5697 29.625 23.3057 29.625C18.0416 29.625 13.7743 33.7854 13.7743 38.9175C13.7743 44.0496 18.0416 48.21 23.3057 48.21Z" stroke="#AFE3A0" stroke-width="2.5" stroke-linecap="round" stroke-linejoin="round"/>
<path d="M23.2981 41.7961C25.215 41.7961 26.7691 40.2809 26.7691 38.4117C26.7691 36.5426 25.215 35.0273 23.2981 35.0273C21.3811 35.0273 19.827 36.5426 19.827 38.4117C19.827 40.2809 21.3811 41.7961 23.2981 41.7961Z" stroke="#AFE3A0" stroke-width="2.5" stroke-linecap="round" stroke-linejoin="round"/>
<path d="M49.6705 53.9802C52.6567 53.9802 55.0776 51.6201 55.0776 48.7088C55.0776 45.7976 52.6567 43.4375 49.6705 43.4375C46.6842 43.4375 44.2634 45.7976 44.2634 48.7088C44.2634 51.6201 46.6842 53.9802 49.6705 53.9802Z" stroke="#AFE3A0" stroke-width="2.5" stroke-linecap="round" stroke-linejoin="round"/>
<path d="M49.6819 50.4652C50.7058 50.4652 51.5358 49.6563 51.5358 48.6584C51.5358 47.6605 50.7058 46.8516 49.6819 46.8516C48.658 46.8516 47.828 47.6605 47.828 48.6584C47.828 49.6563 48.658 50.4652 49.6819 50.4652Z" fill="#AFE3A0"/>
<path d="M16.5085 32.3865L20.6732 36.2019M29.5179 32.3865L25.9201 36.2019M25.505 41.0257L30.0987 45.4115M20.6732 41.0257L16.496 45.4115M25.2961 22.96L49.0514 22.8398L51.5168 38.4149H39.2707C39.2707 38.4149 38.3027 24.5652 25.2947 22.96H25.2961Z" stroke="#AFE3A0" stroke-width="2.5" stroke-linecap="round" stroke-linejoin="round"/>
<path d="M56.0884 40.5547H60.8436C61.4022 40.5547 61.8549 41.0036 61.8549 41.5576V42.0825C61.8549 42.635 61.4022 43.084 60.8436 43.084H56.0898C55.822 43.084 55.5651 42.9785 55.3757 42.7907C55.1863 42.6028 55.08 42.3481 55.08 42.0825V41.5576C55.08 41.005 55.5312 40.5547 56.0898 40.5547H56.0884Z" fill="#AFE3A0"/>
</svg>
