<svg width="40" height="52" viewBox="0 0 40 52" fill="none" xmlns="http://www.w3.org/2000/svg">
<path d="M19.0555 0.619534C18.3141 1.40157 17.6336 2.54922 17.2883 3.60547C17.075 4.26562 17.0242 4.62109 17.0141 5.53516C17.0039 6.52031 17.0344 6.71328 17.2477 7.13985C17.5523 7.75938 18.1719 8.36875 18.7508 8.60234C18.9844 8.70391 19.1875 8.81563 19.1875 8.85625C19.1875 8.90703 18.7508 8.9375 18.2227 8.9375C17.3289 8.9375 17.2273 8.95781 17.0039 9.19141L16.75 9.43516V16.1484V22.8516H16.3945C16.1406 22.8516 15.9477 22.9328 15.7852 23.1055C15.5414 23.3391 15.5312 23.3898 15.5312 24.9031C15.5312 26.6398 15.643 27.0563 16.2727 27.7063C16.8109 28.275 17.2984 28.468 18.3039 28.5188L19.1875 28.5594V30.9359V33.3023L18.7102 33.3633C17.6742 33.5055 16.4961 33.7594 13.8047 34.45C11.3367 35.0797 10.8695 35.1711 9.79297 35.2117C7.77187 35.3031 6.68516 34.8766 6.14687 33.8C5.72031 32.9469 5.75078 32.9062 6.675 32.9062C7.62969 32.9062 8.33047 32.6219 8.80781 32.0328C9.32578 31.4031 9.4375 30.9156 9.4375 29.3008C9.4375 27.9906 9.41719 27.8281 9.22422 27.5844C9.09219 27.4117 8.87891 27.3 8.61484 27.2594L8.21875 27.1883V20.5664C8.21875 12.6445 8.37109 13.4062 6.78672 13.4062C6.23828 13.4062 5.78125 13.3656 5.78125 13.325C5.78125 13.2844 5.98438 13.1422 6.22812 13.0305C6.89844 12.7055 7.36562 12.2383 7.68047 11.5984C7.94453 11.0703 7.96484 10.9281 7.95469 9.95312C7.94453 9.1 7.89375 8.72422 7.67031 8.07422C7.30469 6.95703 6.70547 5.91094 5.97422 5.12891C5.42578 4.53984 5.30391 4.46875 4.96875 4.46875C4.64375 4.46875 4.52187 4.55 4.03437 5.05782C2.95781 6.18516 2.25703 7.58672 2.02344 9.06953C1.70859 10.9992 2.27734 12.3297 3.69922 13.0203C3.95312 13.1422 4.15625 13.2844 4.15625 13.325C4.15625 13.3656 3.69922 13.4062 3.15078 13.4062C1.59687 13.4062 1.71875 12.9594 1.71875 18.5555C1.71875 21.318 1.75937 23.2477 1.82031 23.3492C1.87109 23.4508 2.05391 23.593 2.22656 23.6641C2.6125 23.8266 3.05937 23.6641 3.23203 23.2984C3.30312 23.1258 3.34375 21.7953 3.34375 19.043V15.0312H4.96875H6.59375V21.125V27.2188H4.96875H3.34375V26.5586C3.34375 25.9797 3.31328 25.8578 3.08984 25.6445C2.9375 25.482 2.72422 25.3906 2.53125 25.3906C2.33828 25.3906 2.125 25.482 1.97266 25.6445C1.75937 25.8578 1.71875 25.9797 1.71875 26.5383V27.1883L1.32266 27.2594C1.05859 27.3 0.845312 27.4117 0.713281 27.5844C0.520312 27.8281 0.5 27.9906 0.5 29.25C0.5 31.2711 0.774219 31.9719 1.8 32.5711C2.20625 32.8148 2.42969 32.8656 3.23203 32.9062L4.19687 32.957L4.30859 33.4648C4.66406 35.0188 5.56797 36.0039 7.1625 36.5727C8.11719 36.918 10.1078 36.9586 11.4789 36.6641C12.3219 36.4914 15.907 35.5977 16.6687 35.3844C16.8312 35.3336 16.8211 35.3844 16.6281 35.9227C16.4555 36.3898 16.4148 36.7555 16.4047 37.7305C16.4047 39.1016 16.5977 40.0461 17.1562 41.2953C17.5016 42.0469 18.6289 43.8039 18.9742 44.1188C19.157 44.2813 19.1875 44.4234 19.1773 45.0836V45.8555L18.4969 46.2922C16.4758 47.582 15.2266 49.3797 15.2266 50.9844C15.2266 51.5023 15.257 51.6039 15.4906 51.7867C15.7547 51.9898 15.8664 52 20.0508 52C24.2352 52 24.3469 51.9898 24.6109 51.7867C24.8445 51.6039 24.875 51.5023 24.875 50.9844C24.875 49.3594 23.5141 47.4398 21.4422 46.1602L20.8125 45.7742V45.0938C20.8125 44.4438 20.8328 44.3727 21.1781 43.9563C22.143 42.8086 22.8945 41.4375 23.3211 40.0461C23.5547 39.2844 23.5852 38.9594 23.5953 37.832C23.5953 36.7453 23.5648 36.4102 23.3922 35.9227C23.2703 35.6078 23.1891 35.3438 23.1891 35.3438C23.1992 35.3438 24.0219 35.557 25.0273 35.8109C28.7141 36.7555 28.8258 36.7758 30.2578 36.8367C31.8219 36.8977 32.6141 36.7555 33.5891 36.268C34.6656 35.7195 35.5289 34.5617 35.7219 33.3938L35.793 32.957L36.7578 32.9062C37.8953 32.8453 38.4336 32.6016 38.9617 31.9109C39.4187 31.3016 39.5 30.9258 39.5 29.2398C39.5 27.818 39.4898 27.757 39.2562 27.5336C39.1242 27.4117 38.85 27.2898 38.6469 27.2492L38.2812 27.1883V20.5156V13.843L38.0477 13.6297C37.8445 13.4367 37.6922 13.4062 36.8797 13.4062C36.3719 13.4062 35.9352 13.3656 35.9047 13.325C35.8742 13.2742 36.0875 13.1219 36.3617 12.9898C37.0422 12.675 37.7227 11.9133 37.9258 11.243C38.4133 9.60781 37.7633 7.2211 36.3516 5.44375C35.6812 4.60078 35.4984 4.46875 35.0211 4.46875C34.7469 4.46875 34.5844 4.58047 34.1172 5.05782C32.5836 6.62188 31.7 9.28281 32.1266 10.9789C32.3906 11.9844 32.9695 12.6852 33.8633 13.0609C34.4523 13.3047 34.2797 13.4062 33.2641 13.4062C31.8523 13.4062 31.832 13.4266 31.832 15.1328V16.4734L32.1266 16.7273C32.3602 16.9203 32.4922 16.9711 32.7359 16.9203C33.2437 16.8188 33.4062 16.5344 33.4062 15.732V15.0312H35.0312H36.6562V21.125V27.2188H35.0312H33.4062V23.1258V19.0227L33.1727 18.8094C32.9391 18.5859 32.5633 18.525 32.2383 18.6469C31.8117 18.8195 31.7812 19.0836 31.7812 23.2477V27.1984L31.375 27.2695C30.6742 27.3914 30.5625 27.6352 30.5625 29.1383C30.5625 29.8391 30.593 30.5906 30.6234 30.8039C30.7352 31.4234 31.2633 32.2055 31.8219 32.5508C32.2586 32.8148 32.4312 32.8555 33.2234 32.8859C34.2492 32.9367 34.2797 32.9672 33.9039 33.7695C33.6094 34.3992 33.0914 34.8055 32.2484 35.0594C31.6492 35.2422 31.3852 35.2625 30.268 35.2117C29.1609 35.1609 28.7141 35.0898 27.0078 34.643C24.3062 33.932 22.6406 33.5461 21.6555 33.4039L20.8125 33.2922V30.9258V28.5594L21.7062 28.5188C22.7422 28.468 23.2195 28.2648 23.7883 27.6352C24.3164 27.0563 24.4688 26.4266 24.4688 24.8625C24.4688 23.1563 24.3266 22.8516 23.5445 22.8516H23.25V16.1484V9.43516L22.9961 9.19141C22.7727 8.95781 22.6711 8.9375 21.7773 8.9375C21.2492 8.9375 20.8125 8.90703 20.8125 8.85625C20.8125 8.81563 21.0156 8.70391 21.2695 8.60234C21.8484 8.3586 22.4375 7.77969 22.7523 7.15C22.9656 6.71328 22.9961 6.52031 22.9859 5.53516C22.9758 4.62109 22.925 4.26562 22.7117 3.60547C22.3664 2.54922 21.6859 1.40157 20.9445 0.619534C20.4367 0.0914078 20.2945 0 20 0C19.7055 0 19.5633 0.0914078 19.0555 0.619534ZM20.3859 2.52891C21.3508 3.94063 21.6961 5.90078 21.1172 6.70312L20.8734 7.03828L20.7312 6.72344C20.4164 6.07344 19.5734 6.07344 19.2586 6.72344L19.1164 7.02813L18.8828 6.70312C18.4562 6.10391 18.507 4.91563 19.0148 3.65625C19.2687 3.03672 19.868 2.03125 19.9898 2.03125C20.0203 2.03125 20.2031 2.25469 20.3859 2.52891ZM35.8438 7.62735C36.443 8.79531 36.6258 10.2883 36.2703 10.9688C36.0773 11.3242 35.8438 11.4867 35.8438 11.2633C35.8438 11.0297 35.407 10.6641 35.1227 10.6641C34.7062 10.6641 34.5336 10.7555 34.3609 11.0906C34.2086 11.3852 34.1984 11.3852 34.0055 11.2125C33.3352 10.6031 33.6398 8.55156 34.6352 7.00781L35.0414 6.37813L35.2953 6.71328C35.4375 6.90625 35.6812 7.3125 35.8438 7.62735ZM5.25312 6.77422C5.62891 7.3125 6.08594 8.32812 6.23828 8.95781C6.49219 10.0242 6.41094 10.7555 6.01484 11.2023C5.8625 11.3648 5.84219 11.3547 5.66953 11.0703C5.34453 10.532 4.64375 10.5219 4.29844 11.05L4.075 11.375L3.86172 11.1109C3.44531 10.5828 3.46562 9.43516 3.9125 8.23672C4.17656 7.53594 4.80625 6.5 4.95859 6.5C5.00937 6.5 5.14141 6.62188 5.25312 6.77422ZM21.625 16.707V22.8516H20H18.375V16.707V10.5625H20H21.625V16.707ZM22.8438 25.2891C22.8438 26.8531 22.732 26.9141 20 26.9141C17.2375 26.9141 17.1562 26.8633 17.1562 25.2789V24.4766H20H22.8438V25.2891ZM7.8125 29.768C7.8125 30.6516 7.80234 30.7023 7.51797 30.9867L7.22344 31.2812H4.97891C2.76484 31.2812 2.74453 31.2812 2.46016 31.0375C2.20625 30.8141 2.17578 30.7227 2.14531 29.9711C2.125 29.5141 2.125 29.0773 2.16562 28.9961C2.21641 28.8641 2.62266 28.8438 5.01953 28.8438H7.8125V29.768ZM37.875 29.7477C37.875 30.5805 37.8547 30.682 37.6109 30.9664L37.3469 31.2812H35.082C32.8273 31.2812 32.807 31.2812 32.5227 31.0375C32.2687 30.8141 32.2383 30.7227 32.2078 29.9711C32.1875 29.5141 32.1875 29.0773 32.2281 28.9961C32.2789 28.8641 32.6852 28.8438 35.082 28.8438H37.875V29.7477ZM20.9445 35.2422C22.2344 36.1258 22.3867 38.3906 21.3203 40.6859C20.9141 41.5695 20.1523 42.7578 20 42.7578C19.8477 42.7578 18.9031 41.2344 18.5781 40.4422C17.9484 38.9391 17.8164 37.2023 18.2633 36.2273C18.7711 35.0898 20.0406 34.6227 20.9445 35.2422ZM20.9141 47.775C21.6453 48.2625 22.3359 48.9531 22.7625 49.6031C22.9758 49.9383 23.1484 50.243 23.1484 50.2938C23.1484 50.3344 21.757 50.375 20.0508 50.375C18.3445 50.375 16.9531 50.3547 16.9531 50.3242C16.9531 50.2938 17.0445 50.0906 17.1562 49.8672C17.4609 49.268 18.4156 48.293 19.2586 47.7344C20.1016 47.1758 20.0305 47.1656 20.9141 47.775Z" fill="#AFE3A0"/>
</svg>
