<svg width="13" height="16" viewBox="0 0 13 16" fill="none" xmlns="http://www.w3.org/2000/svg">
<path d="M12.05 1.37639H12.0501L12.0499 1.37345C12.0179 0.829522 11.4766 0.378026 10.7945 0.377979C10.7945 0.377979 10.7944 0.377979 10.7944 0.377979H2.17534C1.49437 0.377979 0.95 0.82925 0.95 1.37639V14.0706C0.95 14.6434 1.52619 15.069 2.17534 15.069H10.8247C11.5056 15.069 12.05 14.6177 12.05 14.0706V1.37639ZM11.3473 14.0206H11.3172V14.0706C11.3172 14.2995 11.0808 14.4826 10.7945 14.4826H2.17534C1.86272 14.4826 1.65269 14.2782 1.65269 14.0706V1.37639C1.65269 1.14744 1.88909 0.964301 2.17534 0.964301H10.8247C11.1373 0.964301 11.3473 1.16872 11.3473 1.37639V14.0206ZM10.3426 10.9806H10.3425H2.65761C2.55856 10.9806 2.47124 11.0072 2.4076 11.0586C2.34303 11.1108 2.30615 11.1859 2.30615 11.2739C2.30615 11.3619 2.3431 11.4371 2.4077 11.4892C2.47136 11.5405 2.55867 11.5671 2.65761 11.5671L10.3425 11.5673C10.4416 11.5673 10.5289 11.5406 10.5926 11.4893C10.6571 11.4371 10.694 11.362 10.694 11.274C10.694 11.1821 10.6462 11.1076 10.5799 11.0577C10.5141 11.0081 10.428 10.9807 10.3426 10.9806ZM10.3426 1.91005H10.3425H2.65761C2.55856 1.91005 2.47124 1.93669 2.4076 1.98807C2.34303 2.04019 2.30615 2.11534 2.30615 2.2033C2.30615 2.29136 2.3431 2.36652 2.4077 2.41862C2.47136 2.46996 2.55867 2.49655 2.65761 2.49655H10.3425C10.4416 2.49655 10.5289 2.46992 10.5926 2.41854C10.6571 2.36641 10.694 2.29126 10.694 2.2033C10.694 2.11145 10.6461 2.03698 10.5799 1.98709C10.5141 1.93757 10.428 1.91015 10.3426 1.91005ZM6.48504 12.0509C5.83589 12.0509 5.2597 12.4764 5.2597 13.0493C5.2597 13.6214 5.80493 14.0477 6.48504 14.0477C7.16514 14.0477 7.71038 13.6214 7.71038 13.0493C7.71038 12.4764 7.13419 12.0509 6.48504 12.0509ZM6.48504 13.4613C6.1988 13.4613 5.96238 13.2782 5.96238 13.0492C5.96238 12.8203 6.19879 12.6371 6.48504 12.6371C6.77129 12.6371 7.0077 12.8203 7.0077 13.0492C7.0077 13.2782 6.77129 13.4613 6.48504 13.4613Z" fill="white" stroke="white" stroke-width="0.1"/>
</svg>
