<svg width="106" height="20" viewBox="0 0 106 20" fill="none" xmlns="http://www.w3.org/2000/svg">
<path fill-rule="evenodd" clip-rule="evenodd" d="M1.187 7.12351L6.796 1.46749C7.782 0.473834 9.078 0 10.372 0H103.189C104.739 0 106 1.25356 106 2.81402V17.186C106 18.7464 104.739 20 103.189 20H10.372C9.078 20 7.782 19.5252 6.796 18.5315L1.187 12.8755C0.398994 12.0818 0 11.0471 0 10.0065C0 8.96586 0.398994 7.91823 1.187 7.12351ZM9.11401 11.9838C10.199 11.9838 11.079 11.0981 11.079 10.0065C11.079 8.91488 10.199 8.03019 9.11401 8.03019C8.028 8.03019 7.149 8.91488 7.149 10.0065C7.149 11.0981 8.028 11.9838 9.11401 11.9838Z" fill="#68629C"/>
<path d="M21.2637 8.76758C22.166 8.76758 22.875 8.99219 23.3906 9.44141C23.9102 9.88672 24.1699 10.498 24.1699 11.2754C24.1699 12.1621 23.8867 12.8574 23.3203 13.3613C22.7578 13.8652 21.9805 14.1172 20.9883 14.1172C20.0234 14.1172 19.2871 13.9629 18.7793 13.6543V12.7168C19.0527 12.8926 19.3926 13.0312 19.7988 13.1328C20.2051 13.2305 20.6055 13.2793 21 13.2793C21.6875 13.2793 22.2207 13.1172 22.5996 12.793C22.9824 12.4688 23.1738 12 23.1738 11.3867C23.1738 10.1914 22.4414 9.59375 20.9766 9.59375C20.6055 9.59375 20.1094 9.65039 19.4883 9.76367L18.9844 9.44141L19.3066 5.43359H23.5664V6.33008H20.1387L19.9219 8.90234C20.3711 8.8125 20.8184 8.76758 21.2637 8.76758ZM26.2852 7.98828C26.2852 8.65234 26.3574 9.15039 26.502 9.48242C26.6465 9.81445 26.8809 9.98047 27.2051 9.98047C27.8457 9.98047 28.166 9.31641 28.166 7.98828C28.166 6.66797 27.8457 6.00781 27.2051 6.00781C26.8809 6.00781 26.6465 6.17188 26.502 6.5C26.3574 6.82812 26.2852 7.32422 26.2852 7.98828ZM28.9688 7.98828C28.9688 8.87891 28.8184 9.55273 28.5176 10.0098C28.2207 10.4629 27.7832 10.6895 27.2051 10.6895C26.6582 10.6895 26.2324 10.457 25.9277 9.99219C25.627 9.52734 25.4766 8.85938 25.4766 7.98828C25.4766 7.10156 25.6211 6.43359 25.9102 5.98438C26.2031 5.53516 26.6348 5.31055 27.2051 5.31055C27.7715 5.31055 28.207 5.54297 28.5117 6.00781C28.8164 6.47266 28.9688 7.13281 28.9688 7.98828ZM31.4414 11.4219C31.4414 12.0898 31.5137 12.5898 31.6582 12.9219C31.8027 13.25 32.0391 13.4141 32.3672 13.4141C32.6953 13.4141 32.9375 13.252 33.0938 12.9277C33.25 12.5996 33.3281 12.0977 33.3281 11.4219C33.3281 10.7539 33.25 10.2598 33.0938 9.93945C32.9375 9.61523 32.6953 9.45312 32.3672 9.45312C32.0391 9.45312 31.8027 9.61523 31.6582 9.93945C31.5137 10.2598 31.4414 10.7539 31.4414 11.4219ZM34.1309 11.4219C34.1309 12.3086 33.9805 12.9805 33.6797 13.4375C33.3828 13.8906 32.9453 14.1172 32.3672 14.1172C31.8125 14.1172 31.3848 13.8848 31.084 13.4199C30.7871 12.9551 30.6387 12.2891 30.6387 11.4219C30.6387 10.5352 30.7832 9.86719 31.0723 9.41797C31.3652 8.96875 31.7969 8.74414 32.3672 8.74414C32.9219 8.74414 33.3535 8.97461 33.6621 9.43555C33.9746 9.89258 34.1309 10.5547 34.1309 11.4219ZM32.6191 5.43359L27.8672 14H27.0059L31.7578 5.43359H32.6191ZM45.8789 9.63477C45.8789 11.0488 45.4941 12.1309 44.7246 12.8809C43.959 13.627 42.8555 14 41.4141 14H39.041V5.43359H41.666C42.998 5.43359 44.0332 5.80273 44.7715 6.54102C45.5098 7.2793 45.8789 8.31055 45.8789 9.63477ZM44.8242 9.66992C44.8242 8.55273 44.543 7.71094 43.9805 7.14453C43.4219 6.57812 42.5898 6.29492 41.4844 6.29492H40.0371V13.1387H41.25C42.4375 13.1387 43.3301 12.8477 43.9277 12.2656C44.5254 11.6797 44.8242 10.8145 44.8242 9.66992ZM52.5703 14H47.7949V5.43359H52.5703V6.31836H48.791V9.07812H52.3418V9.95703H48.791V13.1094H52.5703V14ZM59.3086 11.7207C59.3086 12.4746 59.0352 13.0625 58.4883 13.4844C57.9414 13.9062 57.1992 14.1172 56.2617 14.1172C55.2461 14.1172 54.4648 13.9863 53.918 13.7246V12.7637C54.2695 12.9121 54.6523 13.0293 55.0664 13.1152C55.4805 13.2012 55.8906 13.2441 56.2969 13.2441C56.9609 13.2441 57.4609 13.1191 57.7969 12.8691C58.1328 12.6152 58.3008 12.2637 58.3008 11.8145C58.3008 11.5176 58.2402 11.2754 58.1191 11.0879C58.002 10.8965 57.8027 10.7207 57.5215 10.5605C57.2441 10.4004 56.8203 10.2188 56.25 10.0156C55.4531 9.73047 54.8828 9.39258 54.5391 9.00195C54.1992 8.61133 54.0293 8.10156 54.0293 7.47266C54.0293 6.8125 54.2773 6.28711 54.7734 5.89648C55.2695 5.50586 55.9258 5.31055 56.7422 5.31055C57.5938 5.31055 58.377 5.4668 59.0918 5.7793L58.7812 6.64648C58.0742 6.34961 57.3867 6.20117 56.7188 6.20117C56.1914 6.20117 55.7793 6.31445 55.4824 6.54102C55.1855 6.76758 55.0371 7.08203 55.0371 7.48438C55.0371 7.78125 55.0918 8.02539 55.2012 8.2168C55.3105 8.4043 55.4941 8.57812 55.752 8.73828C56.0137 8.89453 56.4121 9.06836 56.9473 9.25977C57.8457 9.58008 58.4629 9.92383 58.7988 10.291C59.1387 10.6582 59.3086 11.1348 59.3086 11.7207ZM64.7285 6.20117C63.7871 6.20117 63.043 6.51562 62.4961 7.14453C61.9531 7.76953 61.6816 8.62695 61.6816 9.7168C61.6816 10.8379 61.9434 11.7051 62.4668 12.3184C62.9941 12.9277 63.7441 13.2324 64.7168 13.2324C65.3145 13.2324 65.9961 13.125 66.7617 12.9102V13.7832C66.168 14.0059 65.4355 14.1172 64.5645 14.1172C63.3027 14.1172 62.3281 13.7344 61.6406 12.9688C60.957 12.2031 60.6152 11.1152 60.6152 9.70508C60.6152 8.82227 60.7793 8.04883 61.1074 7.38477C61.4395 6.7207 61.916 6.20898 62.5371 5.84961C63.1621 5.49023 63.8965 5.31055 64.7402 5.31055C65.6387 5.31055 66.4238 5.47461 67.0957 5.80273L66.6738 6.6582C66.0254 6.35352 65.377 6.20117 64.7285 6.20117ZM76.0664 9.70508C76.0664 11.0762 75.7188 12.1543 75.0234 12.9395C74.332 13.7246 73.3691 14.1172 72.1348 14.1172C70.873 14.1172 69.8984 13.7324 69.2109 12.9629C68.5273 12.1895 68.1855 11.0996 68.1855 9.69336C68.1855 8.29883 68.5293 7.21875 69.2168 6.45312C69.9043 5.68359 70.8809 5.29883 72.1465 5.29883C73.377 5.29883 74.3379 5.68945 75.0293 6.4707C75.7207 7.25195 76.0664 8.33008 76.0664 9.70508ZM69.2402 9.70508C69.2402 10.8652 69.4863 11.7461 69.9785 12.3477C70.4746 12.9453 71.1934 13.2441 72.1348 13.2441C73.084 13.2441 73.8008 12.9453 74.2852 12.3477C74.7695 11.75 75.0117 10.8691 75.0117 9.70508C75.0117 8.55273 74.7695 7.67969 74.2852 7.08594C73.8047 6.48828 73.0918 6.18945 72.1465 6.18945C71.1973 6.18945 70.4746 6.49023 69.9785 7.0918C69.4863 7.68945 69.2402 8.56055 69.2402 9.70508ZM84.6738 14H83.5371L78.8555 6.81055H78.8086C78.8711 7.6543 78.9023 8.42773 78.9023 9.13086V14H77.9824V5.43359H79.1074L83.7773 12.5938H83.8242C83.8164 12.4883 83.7988 12.1504 83.7715 11.5801C83.7441 11.0059 83.7344 10.5957 83.7422 10.3496V5.43359H84.6738V14ZM89.666 14H88.6699V6.31836H85.957V5.43359H92.3789V6.31836H89.666V14ZM101.109 9.70508C101.109 11.0762 100.762 12.1543 100.066 12.9395C99.375 13.7246 98.4121 14.1172 97.1777 14.1172C95.916 14.1172 94.9414 13.7324 94.2539 12.9629C93.5703 12.1895 93.2285 11.0996 93.2285 9.69336C93.2285 8.29883 93.5723 7.21875 94.2598 6.45312C94.9473 5.68359 95.9238 5.29883 97.1895 5.29883C98.4199 5.29883 99.3809 5.68945 100.072 6.4707C100.764 7.25195 101.109 8.33008 101.109 9.70508ZM94.2832 9.70508C94.2832 10.8652 94.5293 11.7461 95.0215 12.3477C95.5176 12.9453 96.2363 13.2441 97.1777 13.2441C98.127 13.2441 98.8438 12.9453 99.3281 12.3477C99.8125 11.75 100.055 10.8691 100.055 9.70508C100.055 8.55273 99.8125 7.67969 99.3281 7.08594C98.8477 6.48828 98.1348 6.18945 97.1895 6.18945C96.2402 6.18945 95.5176 6.49023 95.0215 7.0918C94.5293 7.68945 94.2832 8.56055 94.2832 9.70508Z" fill="white"/>
</svg>
