<svg width="76" height="52" viewBox="0 0 76 52" fill="none" xmlns="http://www.w3.org/2000/svg">
<path d="M35.9431 0.0728302C35.5072 0.101891 34.3592 0.218143 33.4001 0.348927C27.2387 1.1191 23.0827 2.87742 21.9783 5.15887C21.6586 5.81279 21.6586 5.88545 21.7603 9.80896L21.8475 13.7906L21.0919 13.6744C19.6533 13.4564 16.1947 13.5436 14.945 13.8342C9.71368 15.0258 5.61578 18.0338 3.0437 22.5677C0.239111 27.4793 0.0792637 33.9895 2.62228 39.061C3.90106 41.5749 6.06626 44.1179 8.23146 45.6583C14.3056 49.9451 22.3997 50.0178 28.5175 45.8327L29.7381 44.9898L30.8716 45.2223C32.3974 45.5275 35.202 45.8617 37.3527 45.978L39.1255 46.0797L39.5033 46.8499C40.5351 48.957 43.9791 50.5554 49.3267 51.3983C57.4353 52.6916 66.75 51.8487 71.9087 49.3638C73.202 48.739 74.7423 47.2568 75.0039 46.3849C75.1347 45.9489 75.1783 43.435 75.1783 37.0847V28.3803L74.8295 27.6537C73.9431 25.7355 71.0368 24.2097 66.5611 23.2942C64.9336 22.96 62.1435 22.6258 59.3098 22.4078L58.1764 22.3206V14.3864C58.1764 7.3386 58.1473 6.37952 57.9293 5.78373C57.4353 4.44682 56.5779 3.57493 54.8341 2.67398C52.4655 1.43879 48.2513 0.465179 43.8773 0.116425C42.1481 -0.0143623 37.8322 -0.0434227 35.9431 0.0728302ZM42.1045 3.02273C45.0253 3.18258 46.3768 3.3279 48.5856 3.76384C52.1458 4.47589 55.241 5.91451 54.9358 6.71375C54.6743 7.39673 52.48 8.41394 49.937 9.03879C44.5458 10.3757 36.5534 10.5065 30.7844 9.32943C28.0816 8.77723 25.3206 7.62923 24.7829 6.83C24.5795 6.52484 24.594 6.46671 24.9137 6.13248C25.4513 5.55122 26.2942 5.11528 27.9508 4.56308C30.5374 3.70572 33.342 3.22617 37.033 3.03727C38.1519 2.96461 39.1691 2.90648 39.2854 2.90648C39.4016 2.89195 40.6804 2.95007 42.1045 3.02273ZM54.9504 14.895C54.5435 15.7233 51.8261 16.9004 49.0215 17.4816C45.316 18.2518 40.9129 18.557 37.0039 18.3099C32.0777 17.9902 29.9997 17.5688 28.5756 16.5952C28.038 16.2174 27.0062 15.6216 26.2796 15.2728C24.9863 14.648 24.9718 14.6334 24.8701 14.0231C24.8265 13.6889 24.7684 12.7443 24.7684 11.9306L24.7538 10.4484L25.6693 10.8698C30.6391 13.1222 41.6104 13.7615 49.1378 12.2357C51.0414 11.8579 53.6861 11.0441 54.5435 10.5937L55.0521 10.3176L55.0957 12.4246C55.1248 13.9069 55.0812 14.6334 54.9504 14.895ZM21.4842 16.7841C25.8582 17.6269 29.68 20.5768 31.7726 24.7474C34.025 29.2522 33.7489 34.716 31.046 39.0464C30.2322 40.3543 28.3722 42.3306 27.137 43.217C24.2598 45.2805 20.4234 46.2831 17.023 45.8908C13.5645 45.4984 10.7745 44.1906 8.30412 41.851C5.73204 39.3952 4.1481 36.1111 3.84293 32.5508C2.98557 22.6549 11.6609 14.895 21.4842 16.7841ZM55.1248 20.5042V22.4514L53.2793 22.5386C49.6318 22.7275 45.5485 23.5413 43.1508 24.5294C42.0028 25.009 40.5206 25.9099 40.1718 26.3168C40.012 26.5202 39.6777 26.5638 38.1955 26.5638C36.1756 26.5638 35.5072 26.4766 35.5072 26.186C35.5072 25.7646 34.4318 23.3088 33.7489 22.1753C33.3565 21.5214 33.0368 20.9837 33.0368 20.9692C33.0368 20.9692 33.4146 20.9983 33.8796 21.0709C35.5508 21.3034 41.9592 21.3761 44.0953 21.2017C48.6728 20.8093 51.6953 20.0973 55.0957 18.586C55.1102 18.5715 55.1248 19.4434 55.1248 20.5042ZM60.5741 25.5466C65.6892 25.9244 70.1068 27.0579 71.6762 28.3948C72.3882 29.0197 72.3446 29.2086 71.2838 29.8916C67.0988 32.5654 54.994 33.4082 47.176 31.5772C44.6039 30.9669 42.2934 29.9206 41.9011 29.1795C41.7557 28.9179 41.7993 28.8162 42.1917 28.4529C43.6884 27.0434 47.9462 25.9535 53.5989 25.503C54.9213 25.3868 58.8158 25.4158 60.5741 25.5466ZM38.7622 29.63C38.7913 29.6591 38.864 30.8506 38.9221 32.2747L39.0238 34.8759L37.5271 34.7742C36.6988 34.716 36.0012 34.6434 35.9722 34.6288C35.9431 34.6143 36.0012 34.1784 36.0884 33.6698C36.1611 33.1612 36.2337 31.9986 36.2337 31.0831V29.4266L37.4835 29.5137C38.1664 29.5428 38.7477 29.6009 38.7622 29.63ZM72.272 34.7596C72.272 35.8204 72.1993 36.8958 72.1121 37.1428C71.5745 38.6977 66.5611 40.209 60.3561 40.674C53.163 41.2262 44.4877 39.8311 42.3079 37.7822L41.9011 37.4044V35.181C41.9011 33.7424 41.9592 32.9577 42.0464 32.9577C42.1336 32.9577 42.4387 33.074 42.7439 33.2338C43.4559 33.5971 45.4322 34.2074 46.9726 34.5562C54.5871 36.2273 65.2242 35.6896 70.877 33.3355C71.5309 33.074 72.0976 32.8415 72.1703 32.8269C72.2284 32.8269 72.272 33.6843 72.272 34.7596ZM38.9366 37.8113C38.9511 37.8113 38.9802 39.0028 39.0093 40.4415L39.0674 43.0571L37.6869 43.0135C36.3791 42.97 32.441 42.5776 32.3393 42.4904C32.3248 42.4614 32.659 41.9092 33.1095 41.2698C33.5454 40.6304 34.1848 39.5405 34.5045 38.8575L35.1003 37.6078L37.0185 37.695C38.0647 37.7531 38.9366 37.7967 38.9366 37.8113ZM72.0104 45.7309C71.0949 46.9661 66.8372 48.2885 62.0999 48.8116C59.7313 49.0732 53.9186 49.0441 51.5355 48.7535C46.9726 48.1868 43.4123 47.0533 42.3951 45.8617C42.0609 45.4548 42.0464 45.3531 42.0464 43.3332C42.0464 42.1853 42.09 41.2407 42.1626 41.2407C42.2207 41.2407 42.7294 41.4296 43.2961 41.6766C46.1733 42.8828 50.3875 43.5657 55.6043 43.6675C62.0418 43.8128 67.2731 43.0717 70.8915 41.5313L72.1993 40.9791L72.2429 43.1734C72.272 45.1206 72.2429 45.4113 72.0104 45.7309Z" fill="#AFE3A0"/>
<path d="M18.0985 19.1822C17.5317 19.3275 17.0522 20.025 17.0522 20.708C17.0522 21.1149 16.9795 21.2021 16.1512 21.5944C14.9742 22.1321 14.0732 23.0476 13.5065 24.2392C13.0996 25.0965 13.056 25.3145 13.056 26.6369C13.056 27.9011 13.0996 28.1918 13.4338 28.8893C13.957 29.9937 14.8434 30.9382 15.8461 31.4759C16.6017 31.8682 17.2847 32.0426 19.2029 32.3187C19.8277 32.4204 20.7577 33.2633 20.9902 33.9317C21.5424 35.6319 20.2782 37.4483 18.5199 37.4629C17.2847 37.4629 16.0931 36.3875 15.9333 35.1088C15.7734 33.8736 15.3229 33.394 14.3639 33.394C13.9715 33.394 13.7245 33.5103 13.3902 33.83C12.9688 34.2514 12.9543 34.3241 13.0124 35.2541C13.1141 37.1722 14.4365 39.0759 16.1948 39.8896L17.0231 40.2675L17.0813 41.212C17.1394 42.0549 17.1975 42.2002 17.6044 42.5635C18.7524 43.5952 20.1038 42.6797 20.1038 40.8923C20.1038 40.2529 20.1038 40.2384 20.8885 39.8896C23.1118 38.8724 24.4923 36.2568 24.0273 33.9317C23.6786 32.1443 22.5742 30.6476 20.9902 29.8338C20.5252 29.6013 19.7115 29.3833 18.8686 29.2526C17.3428 29.0346 17.1539 28.9474 16.5872 28.3516C14.8289 26.4916 16.7034 23.4109 19.1883 24.0793C19.508 24.1665 19.944 24.37 20.1619 24.5443C20.627 24.9076 21.121 25.8376 21.121 26.3462C21.121 26.913 21.4843 27.6832 21.8476 27.8721C22.3126 28.1191 23.0537 28.09 23.4897 27.7994C24.0419 27.4506 24.2162 26.7531 24.0419 25.7505C23.6931 23.8759 22.5451 22.3355 20.9321 21.5799C20.2491 21.2457 20.1038 21.1149 20.1038 20.8097C20.1038 20.3738 19.7696 19.5164 19.5371 19.3711C19.1593 19.1531 18.5489 19.0659 18.0985 19.1822Z" fill="#AFE3A0"/>
</svg>
