<svg width="28" height="22" viewBox="0 0 28 22" fill="none" xmlns="http://www.w3.org/2000/svg">
<g id="envelope">
<path id="Shape" fill-rule="evenodd" clip-rule="evenodd" d="M3.31254 0.944824H23.7819C25.6092 0.944824 27.0945 2.39784 27.0889 4.1786V17.8074C27.0889 19.5882 25.6036 21.0357 23.7763 21.0357H3.31254C1.48532 21.0357 0 19.5882 0 17.8074V4.17314C0 2.39237 1.48532 0.944824 3.31254 0.944824ZM23.7819 19.5609C24.774 19.5609 25.5811 18.7743 25.5811 17.8074H25.5755V4.1786C25.5755 3.21174 24.7684 2.42515 23.7763 2.42515H3.31254C2.32046 2.42515 1.51334 3.21174 1.51334 4.1786V17.8074C1.51334 18.7743 2.32046 19.5609 3.31254 19.5609H23.7819Z" fill="white"/>
<path id="Path" fill-rule="evenodd" clip-rule="evenodd" d="M16.94 11.4116L23.303 5.75268C23.5991 5.48575 23.626 5.03197 23.3568 4.73301C23.0876 4.43939 22.6301 4.4127 22.3286 4.67963L13.554 12.49L11.8422 10.9738C11.8368 10.9685 11.8314 10.9631 11.8314 10.9578C11.7937 10.9204 11.756 10.8884 11.713 10.8564L4.74711 4.67429C4.44565 4.40736 3.98808 4.43405 3.71892 4.73301C3.44976 5.03197 3.47667 5.48575 3.77813 5.75268L10.2164 11.4596L3.80505 17.4121C3.51436 17.6844 3.49821 18.1382 3.77275 18.4318C3.9181 18.5813 4.11189 18.6614 4.30569 18.6614C4.48333 18.6614 4.66098 18.5973 4.80094 18.4692L11.3092 12.4312L13.0749 13.9955C13.2149 14.1182 13.3871 14.177 13.5594 14.177C13.7317 14.177 13.9093 14.1129 14.0439 13.9901L15.858 12.3779L22.3286 18.4745C22.4686 18.608 22.6516 18.6721 22.8293 18.6721C23.023 18.6721 23.2115 18.5973 23.3568 18.4478C23.6313 18.1595 23.6206 17.7004 23.3299 17.4282L16.94 11.4116Z" fill="white"/>
</g>
</svg>
