<svg width="52" height="31" viewBox="0 0 52 31" fill="none" xmlns="http://www.w3.org/2000/svg">
<rect width="52" height="31" rx="4" fill="#0072CE"/>
<path fill-rule="evenodd" clip-rule="evenodd" d="M43.8918 17.9104H42.0547C41.8712 17.9104 41.7494 17.9172 41.6467 17.9859C41.5404 18.0536 41.4994 18.154 41.4994 18.2866C41.4994 18.4442 41.5892 18.5514 41.7199 18.5978C41.8262 18.6345 41.9404 18.6452 42.1083 18.6452L42.6547 18.6597C43.206 18.6732 43.574 18.767 43.7983 18.996C43.8392 19.0279 43.8637 19.0637 43.8918 19.0994V17.9104ZM43.8918 20.6653C43.647 21.02 43.1698 21.1998 42.5239 21.1998H40.5772V20.3038H42.516C42.7084 20.3038 42.8429 20.2787 42.924 20.2004C42.9942 20.1357 43.0431 20.0418 43.0431 19.9278C43.0431 19.8061 42.9942 19.7094 42.92 19.6515C42.8469 19.5877 42.7404 19.5587 42.5649 19.5587C41.6184 19.5269 40.4375 19.5877 40.4375 18.2654C40.4375 17.6593 40.826 17.0213 41.8838 17.0213H43.8917V16.1899H42.0262C41.4632 16.1899 41.0542 16.3235 40.7646 16.5312V16.1899H38.0052C37.5639 16.1899 37.0459 16.2983 36.801 16.5312V16.1899H31.8734V16.5312C31.4812 16.2509 30.8195 16.1899 30.5141 16.1899H27.2638V16.5312C26.9536 16.2335 26.2637 16.1899 25.8431 16.1899H22.2055L21.3731 17.0823L20.5935 16.1899H15.1597V22.0205H20.4912L21.3489 21.114L22.1569 22.0205L25.4433 22.0234V20.6518H25.7664C26.2025 20.6585 26.7167 20.6411 27.1705 20.4468V22.0204H29.8812V20.5008H30.0119C30.1788 20.5008 30.1952 20.5076 30.1952 20.6728V22.0203H38.4298C38.9526 22.0203 39.499 21.8877 39.8017 21.6472V22.0203H42.4136C42.9572 22.0203 43.488 21.9448 43.8918 21.7515V20.6653ZM39.8709 18.996C40.0671 19.1972 40.1723 19.4512 40.1723 19.8813C40.1723 20.7802 39.6054 21.1998 38.5888 21.1998H36.6254V20.3038H38.5809C38.7721 20.3038 38.9077 20.2787 38.9927 20.2004C39.062 20.1357 39.1117 20.0418 39.1117 19.9278C39.1117 19.8061 39.0579 19.7094 38.9887 19.6515C38.9116 19.5877 38.8053 19.5587 38.6297 19.5587C37.687 19.5269 36.5065 19.5877 36.5065 18.2654C36.5065 17.6593 36.8909 17.0213 37.9477 17.0213H39.9685V17.9107H38.1194C37.9361 17.9107 37.8169 17.9175 37.7155 17.9862C37.6051 18.0538 37.5642 18.1543 37.5642 18.2868C37.5642 18.4445 37.6579 18.5517 37.7847 18.5981C37.8911 18.6347 38.0053 18.6454 38.177 18.6454L38.7197 18.6599C39.2669 18.6732 39.6425 18.7669 39.8709 18.996ZM30.7749 18.7379C30.64 18.8172 30.4733 18.824 30.2771 18.824H29.0526V17.8855H30.2938C30.4733 17.8855 30.6529 17.8893 30.7749 17.961C30.9055 18.0286 30.9836 18.158 30.9836 18.3368C30.9836 18.5156 30.9055 18.6597 30.7749 18.7379ZM31.3837 19.258C31.6081 19.34 31.7915 19.487 31.8775 19.6088C32.0198 19.8128 32.0404 20.0032 32.0445 20.3715V21.1998H31.0325V20.677C31.0325 20.4257 31.0569 20.0534 30.8695 19.8591C30.7222 19.7094 30.4977 19.6736 30.13 19.6736H29.0527V21.1998H28.0398V17.0212H30.3671C30.8774 17.0212 31.2491 17.0435 31.5799 17.2184C31.8981 17.4088 32.0982 17.6696 32.0982 18.1463C32.098 18.8133 31.649 19.1536 31.3837 19.258ZM32.6571 17.0212H36.0215V17.8854H33.661V18.6451H35.9638V19.4976H33.661V20.329L36.0215 20.3328V21.1998H32.6571V17.0212ZM25.856 18.9496H24.5533V17.8855H25.8677C26.2316 17.8855 26.4842 18.0324 26.4842 18.3978C26.4842 18.7592 26.2433 18.9496 25.856 18.9496ZM23.5493 20.8198L22.0016 19.1177L23.5493 17.4697V20.8198ZM19.5525 20.329H17.0741V19.4976H19.2871V18.6451H17.0741V17.8854H19.6013L20.7039 19.1031L19.5525 20.329ZM27.5665 18.3978C27.5665 19.5586 26.6922 19.7983 25.8111 19.7983H24.5533V21.1998H22.594L21.3528 19.8165L20.0628 21.1998H16.0699V17.0212H20.1242L21.3645 18.3909L22.6467 17.0212H25.8677C26.6676 17.0212 27.5665 17.2406 27.5665 18.3978Z" fill="white"/>
<path fill-rule="evenodd" clip-rule="evenodd" d="M11.2605 12.2058L10.5705 10.5404L9.88455 12.2058H11.2605ZM26.4599 11.5426C26.3214 11.6259 26.1575 11.6287 25.9612 11.6287H24.7367V10.7008H25.9779C26.1536 10.7008 26.3369 10.7086 26.4559 10.7761C26.5867 10.837 26.6676 10.9665 26.6676 11.1454C26.6676 11.328 26.5906 11.4749 26.4599 11.5426ZM35.1959 12.2058L34.4983 10.5404L33.8045 12.2058H35.1959ZM18.9115 14.0084H17.8781L17.8742 10.7365L16.4126 14.0084H15.5275L14.062 10.7336V14.0084H12.0117L11.6244 13.0766H9.52558L9.13431 14.0084H8.03948L9.8446 9.83081H11.3423L13.0567 13.7862V9.83081H14.7019L16.0212 12.6648L17.233 9.83081H18.9113V14.0084H18.9115ZM23.0301 14.0084H19.6627V9.83081H23.0301V10.7008H20.6708V11.4538H22.9735V12.3101H20.6708V13.1444H23.0301V14.0084ZM27.7781 10.9559C27.7781 11.622 27.3293 11.9661 27.0678 12.0694C27.2884 12.1526 27.4767 12.2995 27.5664 12.4213C27.7088 12.629 27.7333 12.8146 27.7333 13.1878V14.0084H26.7166L26.7128 13.4816C26.7128 13.2302 26.7371 12.8687 26.5536 12.6677C26.4063 12.5208 26.1818 12.4889 25.8189 12.4889H24.7368V14.0084H23.7289V9.83081H26.0474C26.5625 9.83081 26.9421 9.84429 27.268 10.0309C27.5869 10.2175 27.7781 10.4899 27.7781 10.9559ZM29.3913 14.0084H28.3627V9.83081H29.3913V14.0084ZM41.3238 14.0084H39.8954L37.9847 10.8729V14.0084H35.9317L35.5394 13.0766H33.4454L33.0649 14.0084H31.8853C31.3953 14.0084 30.775 13.9011 30.4236 13.5464C30.0694 13.1917 29.8851 12.7112 29.8851 11.9515C29.8851 11.3319 29.9952 10.7655 30.4285 10.318C30.7544 9.98454 31.2647 9.83081 31.9593 9.83081H32.9352V10.726H31.9798C31.612 10.726 31.4042 10.7801 31.2041 10.9734C31.0323 11.1493 30.9144 11.4819 30.9144 11.9197C30.9144 12.3673 31.0042 12.69 31.1916 12.9008C31.3467 13.0662 31.6287 13.1163 31.8941 13.1163H32.3468L33.7675 9.83093H35.2779L36.9846 13.7824V9.83093H38.5194L40.2913 12.7404V9.83093H41.3238V14.0084ZM8.02778 14.829H9.75009L10.1384 13.9011H11.0079L11.3952 14.829H14.784V14.1196L15.0865 14.832H16.8457L17.1482 14.109V14.829H25.57L25.566 13.3058H25.729C25.8431 13.3097 25.8764 13.3202 25.8764 13.5068V14.829H30.2322V14.4744C30.5835 14.6609 31.13 14.829 31.8491 14.829H33.6815L34.0737 13.9011H34.9431L35.3266 14.829H38.8579V13.9476L39.3927 14.829H42.2224V9.00244H39.4219V9.69056L39.0297 9.00244H36.1561V9.69056L35.796 9.00244H31.9144C31.2647 9.00244 30.6936 9.09228 30.2322 9.34266V9.00244H27.5536V9.34266C27.26 9.0846 26.8599 9.00244 26.4151 9.00244H16.6291L15.9724 10.5073L15.2981 9.00244H12.2158V9.69056L11.8772 9.00244H9.24841L8.02765 11.7727V14.829H8.02778Z" fill="white"/>
</svg>
