<svg width="52" height="31" viewBox="0 0 52 31" fill="none" xmlns="http://www.w3.org/2000/svg">
<rect width="52" height="31" rx="4" fill="black"/>
<mask id="mask0_10_2621" style="mask-type:alpha" maskUnits="userSpaceOnUse" x="11" y="11" width="13" height="10">
<path fill-rule="evenodd" clip-rule="evenodd" d="M11.96 20.5605V11.4492H23.3648V20.5605H11.96Z" fill="white"/>
</mask>
<g mask="url(#mask0_10_2621)">
<path fill-rule="evenodd" clip-rule="evenodd" d="M20.2249 15.0944L14.4483 17.618C14.4393 17.5171 14.4343 17.415 14.4343 17.3117C14.4343 15.4593 15.9156 13.9576 17.7428 13.9576C18.7315 13.9576 19.6187 14.3974 20.2249 15.0944ZM17.7428 11.4492C20.4687 11.4492 22.7536 13.3613 23.3648 15.9347L21.0339 16.9678L21.0334 16.9629L18.6489 18.025L12.9288 20.5605C12.317 19.6305 11.96 18.5134 11.96 17.3117C11.96 14.0739 14.549 11.4492 17.7428 11.4492Z" fill="white"/>
</g>
<path fill-rule="evenodd" clip-rule="evenodd" d="M21.3199 20.9857C19.3804 23.0609 16.8145 23.2646 14.5599 21.7216L15.8338 19.5384C17.1167 20.4028 18.4055 20.2625 19.7002 19.1167L21.3199 20.9857Z" fill="white"/>
<path fill-rule="evenodd" clip-rule="evenodd" d="M23.9332 19.9214L23.9199 8.78345H25.7956V19.6206C25.7956 19.7246 25.807 19.8162 25.9283 19.8691L27.5599 20.5831L26.8248 22.7334L24.9134 21.8236C24.1886 21.4786 23.9345 20.9787 23.9332 19.9214Z" fill="white"/>
<path fill-rule="evenodd" clip-rule="evenodd" d="M31.72 19.5204C30.9751 18.9206 30.4954 17.9845 30.4954 16.9317C30.4954 15.9957 30.8748 15.1518 31.4823 14.5546L30.1988 12.4001C28.9085 13.4588 28.08 15.0946 28.08 16.9317C28.08 18.9117 29.0419 20.6586 30.5077 21.7001L31.72 19.5204Z" fill="#009DD7"/>
<path fill-rule="evenodd" clip-rule="evenodd" d="M32.856 14.0761C33.2261 13.9508 33.625 13.8821 34.041 13.8821C35.5406 13.8821 36.8193 14.7697 37.3188 16.0167L40.04 15.8027C39.3831 13.2572 36.9474 11.3667 34.041 11.3667C33.2198 11.3667 32.4367 11.5189 31.72 11.7927L32.856 14.0761Z" fill="#FFF200"/>
<path fill-rule="evenodd" clip-rule="evenodd" d="M37.4651 17.5669C37.3797 19.1633 35.9023 20.4343 34.0918 20.4343C33.8081 20.4343 33.5328 20.4025 33.2695 20.3438L32.24 22.4703C32.8231 22.6402 33.4452 22.7336 34.0918 22.7336C37.2983 22.7336 39.9114 20.4719 40.04 17.6392L37.4651 17.5669Z" fill="#E33206"/>
</svg>
