<svg width="52" height="32" viewBox="0 0 52 32" fill="none" xmlns="http://www.w3.org/2000/svg">
<rect y="0.944824" width="52" height="31" rx="4" fill="#000066"/>
<path fill-rule="evenodd" clip-rule="evenodd" d="M29.1869 16.6957C29.1869 22.2644 24.6438 26.7782 19.0393 26.7782C13.4346 26.7782 8.89124 22.2644 8.89124 16.6957C8.89124 11.127 13.4346 6.61279 19.0393 6.61279C24.6438 6.61279 29.1869 11.127 29.1869 16.6957Z" fill="#CC0000"/>
<path fill-rule="evenodd" clip-rule="evenodd" d="M32.6633 6.61279C30.0407 6.61279 27.6518 7.60118 25.8506 9.22262C25.4841 9.55309 25.1421 9.91001 24.8263 10.29H26.8766C27.1566 10.6288 27.4146 10.9849 27.6502 11.3579H24.0525C23.8373 11.7007 23.6417 12.0568 23.4678 12.4258H28.2346C28.3975 12.7714 28.5409 13.1274 28.6644 13.4932H23.038C22.921 13.8409 22.8222 14.1972 22.7433 14.5605H28.9588C29.1076 15.2488 29.1869 15.963 29.1869 16.6957C29.1869 17.815 29.0032 18.8925 28.6644 19.8987H23.038C23.1615 20.2642 23.3049 20.6207 23.4675 20.9668H28.2346C28.0604 21.3348 27.8658 21.6913 27.6493 22.0345H24.0525C24.2871 22.4064 24.5457 22.763 24.8263 23.1013H26.876C26.5608 23.4816 26.2185 23.8385 25.8509 24.169C27.652 25.7905 30.0407 26.7782 32.6633 26.7782C38.2677 26.7782 42.8109 22.2644 42.8109 16.6957C42.8109 11.1275 38.2677 6.61279 32.6633 6.61279Z" fill="#FF9900"/>
<path fill-rule="evenodd" clip-rule="evenodd" d="M16.6695 17.7995C16.5539 17.7864 16.5029 17.7823 16.4235 17.7823C15.799 17.7823 15.4833 17.9952 15.4833 18.4157C15.4833 18.6746 15.6374 18.8392 15.8779 18.8392C16.3268 18.8392 16.6503 18.4147 16.6695 17.7995ZM17.4709 19.6528C17.324 19.6528 16.5577 19.6528 16.5577 19.6528L16.5787 19.2218C16.3003 19.5621 15.9288 19.7246 15.4241 19.7246C14.8272 19.7246 14.4178 19.2616 14.4178 18.5887C14.4178 17.5758 15.1297 16.9851 16.3518 16.9851C16.4771 16.9851 16.6371 16.9966 16.801 17.0171C16.835 16.8798 16.844 16.8215 16.844 16.7474C16.844 16.472 16.6522 16.3688 16.1376 16.3688C15.5986 16.3634 15.154 16.4967 14.9714 16.5563C14.9829 16.4872 15.1242 15.6208 15.1242 15.6208C15.673 15.4605 16.0351 15.4006 16.4426 15.4006C17.3888 15.4006 17.8899 15.8226 17.8888 16.6202C17.8907 16.8342 17.855 17.0973 17.7996 17.4443C17.704 18.0466 17.4988 19.3384 17.4709 19.6528Z" fill="#000066"/>
<path fill-rule="evenodd" clip-rule="evenodd" d="M13.9568 19.6529H12.8549L13.4864 15.7217L12.0769 19.6529H11.3262L11.2334 15.7437L10.5701 19.6529H9.53894L10.4003 14.5386H11.9845L12.0803 17.4013L13.0468 14.5386H14.8088L13.9568 19.6529Z" fill="#000066"/>
<path fill-rule="evenodd" clip-rule="evenodd" d="M34.0245 17.7995C33.9089 17.7864 33.8585 17.7823 33.7793 17.7823C33.1544 17.7823 32.8389 17.9952 32.8389 18.4157C32.8389 18.6746 32.9924 18.8392 33.2336 18.8392C33.6821 18.8392 34.0058 18.4147 34.0245 17.7995ZM34.8264 19.6528C34.6791 19.6528 33.9135 19.6528 33.9135 19.6528L33.9342 19.2218C33.6558 19.5621 33.2844 19.7246 32.7801 19.7246C32.1824 19.7246 31.7734 19.2616 31.7734 18.5887C31.7734 17.5758 32.4856 16.9851 33.7075 16.9851C33.8326 16.9851 33.9923 16.9966 34.1563 17.0171C34.1905 16.8798 34.1993 16.8215 34.1993 16.7474C34.1993 16.472 34.0075 16.3688 33.4929 16.3688C32.9539 16.3634 32.5095 16.4967 32.3262 16.5563C32.3384 16.4872 32.48 15.6208 32.48 15.6208C33.0285 15.4605 33.3909 15.4006 33.7978 15.4006C34.7446 15.4006 35.2451 15.8226 35.2441 16.6202C35.246 16.8342 35.2106 17.0973 35.155 17.4443C35.0597 18.0466 34.8539 19.3384 34.8264 19.6528Z" fill="#000066"/>
<path fill-rule="evenodd" clip-rule="evenodd" d="M22.3669 19.5896C22.0653 19.6839 21.8304 19.7247 21.5754 19.7247C21.0123 19.7247 20.7049 19.4031 20.7049 18.8109C20.697 18.627 20.7859 18.1434 20.8558 17.7023C20.9196 17.3137 21.3337 14.864 21.3337 14.864H22.4285L22.3007 15.4936H22.9622L22.8129 16.4933H22.1492C22.022 17.2841 21.8406 18.2694 21.8385 18.4001C21.8385 18.6146 21.9537 18.7082 22.2159 18.7082C22.3414 18.7082 22.4386 18.6955 22.5129 18.669L22.3669 19.5896Z" fill="#000066"/>
<path fill-rule="evenodd" clip-rule="evenodd" d="M25.7244 19.5559C25.3482 19.6701 24.9856 19.7259 24.6009 19.7246C23.3748 19.723 22.7358 19.0873 22.7358 17.8691C22.7358 16.4475 23.5487 15.4006 24.6525 15.4006C25.5552 15.4006 26.132 15.9867 26.132 16.9054C26.132 17.2109 26.0926 17.5085 25.9969 17.9286H23.8162C23.7426 18.532 24.131 18.7833 24.7684 18.7833C25.1599 18.7833 25.5137 18.703 25.9067 18.5218L25.7244 19.5559ZM25.1089 17.0903C25.1152 17.0034 25.2249 16.3477 24.5989 16.3477C24.2506 16.3477 24.0009 16.6119 23.8997 17.0903H25.1089Z" fill="#000066"/>
<path fill-rule="evenodd" clip-rule="evenodd" d="M18.1316 16.8086C18.1316 17.3342 18.3882 17.697 18.9703 17.9697C19.4163 18.1782 19.4857 18.2399 19.4857 18.4287C19.4857 18.6877 19.2888 18.8052 18.8531 18.8052C18.5242 18.8052 18.2185 18.7539 17.8659 18.6407C17.8659 18.6407 17.7214 19.5578 17.7145 19.6016C17.9648 19.6555 18.188 19.7057 18.8609 19.7246C20.0233 19.7246 20.5602 19.2849 20.5602 18.3344C20.5602 17.763 20.3357 17.4276 19.7837 17.1752C19.322 16.9647 19.2686 16.9175 19.2686 16.7235C19.2686 16.4986 19.4519 16.3838 19.8078 16.3838C20.0241 16.3838 20.3193 16.4067 20.5995 16.4461L20.7562 15.4814C20.471 15.4363 20.0384 15.4006 19.7866 15.4006C18.5543 15.4006 18.1276 16.0401 18.1316 16.8086Z" fill="#000066"/>
<path fill-rule="evenodd" clip-rule="evenodd" d="M31.0824 15.5104C31.3884 15.5104 31.6742 15.5894 32.0669 15.7865L32.2473 14.6766C32.0854 14.6135 31.5175 14.2437 31.0364 14.2437C30.2994 14.2437 29.6755 14.6076 29.2376 15.2069C28.598 14.9965 28.3348 15.4217 28.0128 15.8455L27.7266 15.9118C27.7482 15.7724 27.7679 15.6339 27.7617 15.4935H26.7494C26.6115 16.7811 26.3667 18.0849 26.175 19.373L26.1248 19.6528H27.227C27.411 18.465 27.5115 17.7048 27.5728 17.1898L27.9878 16.9614C28.0502 16.7317 28.2438 16.6546 28.6331 16.664C28.5823 16.9352 28.5547 17.2209 28.5547 17.5165C28.5547 18.8774 29.2946 19.7246 30.4801 19.7246C30.7856 19.7246 31.0479 19.6848 31.4542 19.5748L31.6472 18.4094C31.2819 18.5877 30.9828 18.6717 30.7117 18.6717C30.0711 18.6717 29.6835 18.2018 29.6835 17.4257C29.6835 16.2993 30.2596 15.5104 31.0824 15.5104Z" fill="#000066"/>
<path fill-rule="evenodd" clip-rule="evenodd" d="M40.4098 14.5386L40.1649 16.0161C39.8642 15.6224 39.5406 15.3372 39.1134 15.3372C38.5575 15.3372 38.0516 15.7559 37.7202 16.3726C37.2589 16.2774 36.7821 16.1157 36.7821 16.1157L36.7818 16.1197C36.8185 15.7751 36.834 15.5654 36.8304 15.4937H35.8183C35.6808 16.7813 35.4356 18.085 35.2442 19.3731L35.1935 19.6529H36.296C36.4448 18.693 36.5585 17.8951 36.6424 17.2631C37.0193 16.9247 37.2079 16.6304 37.5878 16.6495C37.4192 17.0545 37.3209 17.5208 37.3209 17.9991C37.3209 19.0385 37.8498 19.7248 38.651 19.7248C39.0548 19.7248 39.3647 19.5863 39.6668 19.2657L39.6148 19.6526H40.6572L41.4964 14.5386H40.4098ZM39.032 18.6921C38.6571 18.6921 38.4672 18.4158 38.4672 17.8721C38.4672 17.0545 38.8221 16.475 39.3217 16.475C39.7003 16.475 39.9056 16.7612 39.9056 17.2896C39.9056 18.1142 39.5447 18.6921 39.032 18.6921Z" fill="#000066"/>
<path fill-rule="evenodd" clip-rule="evenodd" d="M14.2737 19.3492H13.1721L13.8035 15.418L12.3943 19.3492H11.6433L11.5506 15.4408L10.8872 19.3492H9.85602L10.7174 14.2354H12.3016L12.3459 17.4011L13.4149 14.2354H15.1259L14.2737 19.3492Z" fill="white"/>
<path fill-rule="evenodd" clip-rule="evenodd" d="M16.9866 17.4967C16.8711 17.4833 16.8202 17.4796 16.7408 17.4796C16.1163 17.4796 15.8004 17.6922 15.8004 18.1123C15.8004 18.371 15.9546 18.5365 16.1954 18.5365C16.6441 18.5365 16.9675 18.112 16.9866 17.4967ZM17.7878 19.3493C17.6411 19.3493 16.8752 19.3493 16.8752 19.3493L16.896 18.9186C16.6176 19.2588 16.246 19.4215 15.7414 19.4215C15.1443 19.4215 14.735 18.9578 14.735 18.2851C14.735 17.272 15.4471 16.6821 16.6692 16.6821C16.7942 16.6821 16.9542 16.6934 17.1183 16.7145C17.1523 16.5768 17.1613 16.5183 17.1613 16.4439C17.1613 16.1687 16.9695 16.0663 16.4548 16.0663C15.9157 16.0599 15.4713 16.1933 15.2885 16.2527C15.3002 16.1839 15.4413 15.3175 15.4413 15.3175C15.9902 15.1576 16.3524 15.0972 16.7598 15.0972C17.7059 15.0972 18.2068 15.5196 18.206 16.3169C18.2078 16.5306 18.1724 16.7949 18.1169 17.141C18.0211 17.7428 17.8159 19.0354 17.7878 19.3493Z" fill="white"/>
<path fill-rule="evenodd" clip-rule="evenodd" d="M32.5642 14.373L32.3838 15.4828C31.9904 15.2864 31.7054 15.2069 31.3998 15.2069C30.5773 15.2069 30.0003 15.9967 30.0003 17.1232C30.0003 17.8994 30.388 18.3683 31.0285 18.3683C31.2999 18.3683 31.5996 18.285 31.9641 18.1061L31.7706 19.2715C31.365 19.3812 31.1025 19.4214 30.7971 19.4214C29.6109 19.4214 28.8721 18.574 28.8721 17.2134C28.8721 15.3852 29.8935 14.1074 31.3534 14.1074C31.8345 14.1074 32.4027 14.3099 32.5642 14.373Z" fill="white"/>
<path fill-rule="evenodd" clip-rule="evenodd" d="M34.3414 17.4967C34.2266 17.4833 34.1754 17.4796 34.0962 17.4796C33.4721 17.4796 33.156 17.6922 33.156 18.1123C33.156 18.371 33.3101 18.5365 33.5506 18.5365C33.9992 18.5365 34.323 18.112 34.3414 17.4967ZM35.1432 19.3493C34.9967 19.3493 34.2306 19.3493 34.2306 19.3493L34.2513 18.9186C33.9729 19.2588 33.6013 19.4215 33.0971 19.4215C32.4994 19.4215 32.0906 18.9578 32.0906 18.2851C32.0906 17.272 32.802 16.6821 34.0245 16.6821C34.1494 16.6821 34.3092 16.6934 34.4731 16.7145C34.5072 16.5768 34.5162 16.5183 34.5162 16.4439C34.5162 16.1687 34.3249 16.0663 33.8099 16.0663C33.2713 16.0599 32.827 16.1933 32.6439 16.2527C32.6555 16.1839 32.7967 15.3175 32.7967 15.3175C33.3457 15.1576 33.7075 15.0972 34.115 15.0972C35.061 15.0972 35.5624 15.5196 35.5612 16.3169C35.5634 16.5306 35.5276 16.7949 35.4722 17.141C35.3767 17.7428 35.1715 19.0354 35.1432 19.3493Z" fill="white"/>
<path fill-rule="evenodd" clip-rule="evenodd" d="M22.6838 19.2863C22.3825 19.3806 22.1472 19.4215 21.8926 19.4215C21.3294 19.4215 21.0218 19.0998 21.0218 18.5082C21.0141 18.3237 21.1031 17.8409 21.1732 17.3994C21.2365 17.0104 21.6507 14.561 21.6507 14.561H22.7459L22.6177 15.1904H23.18L23.0302 16.1898H22.4662C22.339 16.9814 22.1577 17.9661 22.1554 18.0968C22.1554 18.3119 22.271 18.4049 22.5329 18.4049C22.6585 18.4049 22.7555 18.3927 22.8301 18.3656L22.6838 19.2863Z" fill="white"/>
<path fill-rule="evenodd" clip-rule="evenodd" d="M26.0419 19.2532C25.6656 19.3678 25.3022 19.4218 24.9179 19.4215C23.6917 19.4207 23.0532 18.7841 23.0532 17.5661C23.0532 16.144 23.8659 15.0972 24.9689 15.0972C25.8726 15.0972 26.4491 15.6832 26.4491 16.6031C26.4491 16.9079 26.409 17.2054 26.3144 17.6256H24.1334C24.0595 18.229 24.4484 18.4807 25.0852 18.4807C25.477 18.4807 25.8306 18.4001 26.2241 18.2185L26.0419 19.2532ZM25.4263 16.7868C25.4322 16.6998 25.5424 16.0444 24.9166 16.0444C24.568 16.0444 24.3183 16.3091 24.2168 16.7868H25.4263Z" fill="white"/>
<path fill-rule="evenodd" clip-rule="evenodd" d="M18.4485 16.5051C18.4485 17.0317 18.7054 17.3937 19.2877 17.6667C19.7337 17.8751 19.8028 17.9368 19.8028 18.1257C19.8028 18.385 19.606 18.5019 19.17 18.5019C18.8414 18.5019 18.5356 18.4513 18.1827 18.3383C18.1827 18.3383 18.0384 19.2548 18.0317 19.298C18.2819 19.3525 18.5052 19.4022 19.1778 19.4215C20.3405 19.4215 20.8774 18.9819 20.8774 18.0314C20.8774 17.4597 20.6526 17.1244 20.1007 16.8727C19.6389 16.6616 19.5858 16.6149 19.5858 16.4205C19.5858 16.1957 19.7689 16.08 20.1251 16.08C20.341 16.08 20.6365 16.1039 20.9165 16.1431L21.0734 15.1786C20.7881 15.1338 20.3557 15.0972 20.1038 15.0972C18.8712 15.0972 18.4448 15.7368 18.4485 16.5051Z" fill="white"/>
<path fill-rule="evenodd" clip-rule="evenodd" d="M40.9742 19.3492H39.9321L39.9838 18.9622C39.6815 19.2829 39.3718 19.4214 38.968 19.4214C38.1675 19.4214 37.6378 18.7359 37.6378 17.6954C37.6378 16.312 38.459 15.146 39.4303 15.146C39.8576 15.146 40.181 15.3193 40.4824 15.7132L40.7268 14.2354H41.8133L40.9742 19.3492ZM39.3489 18.3882C39.8622 18.3882 40.2224 17.8106 40.2224 16.9868C40.2224 16.4583 40.0173 16.1712 39.6387 16.1712C39.139 16.1712 38.7842 16.7508 38.7842 17.5687C38.7842 18.113 38.9743 18.3882 39.3489 18.3882Z" fill="white"/>
<path fill-rule="evenodd" clip-rule="evenodd" d="M36.1356 15.1904C35.9979 16.4777 35.7528 17.7814 35.5612 19.0697L35.511 19.3493H36.6129C37.0071 16.806 37.1018 16.3096 37.7202 16.3716C37.8185 15.851 38.0018 15.3952 38.1383 15.1654C37.6769 15.0698 37.4192 15.3289 37.0815 15.8212C37.1084 15.6082 37.157 15.4015 37.1479 15.1904H36.1356Z" fill="white"/>
<path fill-rule="evenodd" clip-rule="evenodd" d="M27.067 15.1904C26.9286 16.4777 26.6832 17.7814 26.4919 19.0697L26.4419 19.3493H27.5441C27.9384 16.806 28.0329 16.3096 28.6503 16.3716C28.7493 15.851 28.9329 15.3952 29.069 15.1654C28.6081 15.0698 28.3499 15.3289 28.0129 15.8212C28.0395 15.6082 28.0884 15.4015 28.0788 15.1904H27.067Z" fill="white"/>
</svg>
