<svg width="52" height="31" viewBox="0 0 52 31" fill="none" xmlns="http://www.w3.org/2000/svg">
<rect width="52" height="31" rx="4" fill="#0069AA"/>
<path fill-rule="evenodd" clip-rule="evenodd" d="M10.1649 18.5913C10.1649 17.9678 9.837 18.0088 9.52338 18.0023V17.822C9.79532 17.8352 10.0742 17.8352 10.3468 17.8352C10.6398 17.8352 11.0375 17.822 11.5542 17.822C13.3612 17.822 14.3455 19.0209 14.3455 20.2487C14.3455 20.9358 13.9407 22.6618 11.4702 22.6618C11.1146 22.6618 10.7862 22.6481 10.4584 22.6481C10.1446 22.6481 9.837 22.6545 9.52338 22.6618V22.4814C9.94164 22.4394 10.1446 22.4259 10.1649 21.9544V18.5913ZM10.8487 21.8432C10.8487 22.3773 11.2329 22.4394 11.5747 22.4394C13.0825 22.4394 13.5772 21.3095 13.5772 20.2765C13.5772 18.9799 12.74 18.0441 11.3933 18.0441C11.1066 18.0441 10.9747 18.0644 10.8487 18.0718V21.8432Z" fill="white"/>
<path fill-rule="evenodd" clip-rule="evenodd" d="M14.59 22.4813H14.7223C14.9176 22.4813 15.0573 22.4813 15.0573 22.252V20.3731C15.0573 20.0685 14.9528 20.0264 14.6942 19.8881V19.7775C15.0222 19.6795 15.4133 19.5487 15.4409 19.5278C15.4901 19.5 15.5313 19.4926 15.5668 19.4926C15.601 19.4926 15.6154 19.5343 15.6154 19.5902V22.252C15.6154 22.4813 15.7692 22.4813 15.9648 22.4813H16.083V22.6617C15.8457 22.6617 15.601 22.648 15.3507 22.648C15.0994 22.648 14.848 22.6544 14.59 22.6617V22.4813ZM15.3366 18.4252C15.1548 18.4252 14.9946 18.2588 14.9946 18.0786C14.9946 17.9049 15.1624 17.7451 15.3366 17.7451C15.5177 17.7451 15.6787 17.8912 15.6787 18.0786C15.6787 18.2661 15.5247 18.4252 15.3366 18.4252Z" fill="white"/>
<path fill-rule="evenodd" clip-rule="evenodd" d="M16.7462 20.4147C16.7462 20.1587 16.6691 20.0894 16.3417 19.9574V19.8258C16.6412 19.7288 16.9271 19.6382 17.2625 19.4924C17.2836 19.4924 17.3039 19.5063 17.3039 19.5617V20.0126C17.7023 19.7288 18.0442 19.4924 18.5125 19.4924C19.1048 19.4924 19.3141 19.9224 19.3141 20.4633V22.2518C19.3141 22.4812 19.468 22.4812 19.6632 22.4812H19.7891V22.6616C19.5441 22.6616 19.3002 22.6479 19.0492 22.6479C18.7978 22.6479 18.5464 22.6543 18.2952 22.6616V22.4812H18.4211C18.6166 22.4812 18.7556 22.4812 18.7556 22.2518V20.4568C18.7556 20.0611 18.5125 19.8672 18.1142 19.8672C17.8907 19.8672 17.5348 20.0471 17.3039 20.2004V22.2518C17.3039 22.4812 17.4581 22.4812 17.6536 22.4812H17.7789V22.6616C17.5348 22.6616 17.2905 22.6479 17.0388 22.6479C16.7881 22.6479 16.5366 22.6543 16.2856 22.6616V22.4812H16.4116C16.6067 22.4812 16.7462 22.4812 16.7462 22.2518V20.4147Z" fill="white"/>
<path fill-rule="evenodd" clip-rule="evenodd" d="M20.3195 20.748C20.3053 20.8104 20.3053 20.9143 20.3195 21.1502C20.3606 21.8087 20.7872 22.3492 21.3449 22.3492C21.7292 22.3492 22.0295 22.1412 22.2872 21.8851L22.3847 21.9822C22.0636 22.4051 21.666 22.7658 21.0942 22.7658C19.9843 22.7658 19.7611 21.6975 19.7611 21.254C19.7611 19.8949 20.682 19.4924 21.17 19.4924C21.7359 19.4924 22.3434 19.846 22.3499 20.5812C22.3499 20.6234 22.3499 20.6645 22.3434 20.7062L22.2803 20.748H20.3195ZM21.5552 20.526C21.7292 20.526 21.7497 20.4357 21.7497 20.3522C21.7497 19.9991 21.5335 19.7148 21.1425 19.7148C20.7172 19.7148 20.424 20.0263 20.3404 20.526H21.5552Z" fill="white"/>
<path fill-rule="evenodd" clip-rule="evenodd" d="M22.5107 22.4812H22.6993C22.8939 22.4812 23.0336 22.4812 23.0336 22.2518V20.3039C23.0336 20.0894 22.7756 20.0471 22.6709 19.9917V19.888C23.1803 19.6729 23.4595 19.4924 23.5233 19.4924C23.5642 19.4924 23.5851 19.5133 23.5851 19.583V20.2071H23.5998C23.7737 19.9367 24.0674 19.4924 24.4928 19.4924C24.6672 19.4924 24.8902 19.6103 24.8902 19.86C24.8902 20.0471 24.7583 20.2143 24.563 20.2143C24.3459 20.2143 24.3459 20.0471 24.1014 20.0471C23.983 20.0471 23.5922 20.2071 23.5922 20.6234V22.2518C23.5922 22.4812 23.7316 22.4812 23.9271 22.4812H24.3175V22.6616C23.9337 22.6543 23.6416 22.6479 23.3412 22.6479C23.0551 22.6479 22.7618 22.6543 22.5107 22.6616V22.4812Z" fill="white"/>
<path fill-rule="evenodd" clip-rule="evenodd" d="M25.1971 21.6976C25.2881 22.1551 25.5666 22.544 26.077 22.544C26.4881 22.544 26.6415 22.2941 26.6415 22.0516C26.6415 21.233 25.1206 21.4968 25.1206 20.3805C25.1206 19.9918 25.4348 19.4927 26.2025 19.4927C26.4254 19.4927 26.7254 19.5555 26.9974 19.6943L27.0464 20.401H26.886C26.8163 19.9644 26.5723 19.7149 26.1252 19.7149C25.8461 19.7149 25.5812 19.8741 25.5812 20.1723C25.5812 20.9841 27.1997 20.734 27.1997 21.8227C27.1997 22.2799 26.8303 22.7659 25.9996 22.7659C25.7207 22.7659 25.3921 22.6687 25.1487 22.53L25.0715 21.7325L25.1971 21.6976Z" fill="white"/>
<path fill-rule="evenodd" clip-rule="evenodd" d="M33.5011 19.0764H33.3271C33.1943 18.266 32.615 17.9396 31.834 17.9396C31.0305 17.9396 29.8655 18.4732 29.8655 20.1372C29.8655 21.5384 30.8708 22.5439 31.9452 22.5439C32.6354 22.5439 33.2089 22.0722 33.3482 21.3437L33.5087 21.3851L33.3482 22.3978C33.0551 22.5783 32.2663 22.7658 31.8052 22.7658C30.173 22.7658 29.1403 21.7186 29.1403 20.1587C29.1403 18.7368 30.4173 17.7173 31.7851 17.7173C32.3501 17.7173 32.8943 17.8981 33.4317 18.0855L33.5011 19.0764Z" fill="white"/>
<path fill-rule="evenodd" clip-rule="evenodd" d="M33.7531 22.4813H33.8852C34.0813 22.4813 34.2205 22.4813 34.2205 22.2519V18.3909C34.2205 17.9397 34.116 17.926 33.8506 17.8496V17.7385C34.1296 17.6485 34.4229 17.524 34.5698 17.4402C34.6456 17.3992 34.7019 17.3638 34.7225 17.3638C34.7651 17.3638 34.7789 17.4059 34.7789 17.4616V22.2519C34.7789 22.4813 34.9326 22.4813 35.1278 22.4813H35.2459V22.6617C35.0093 22.6617 34.7651 22.648 34.5138 22.648C34.2626 22.648 34.0117 22.6544 33.7531 22.6617V22.4813Z" fill="white"/>
<path fill-rule="evenodd" clip-rule="evenodd" d="M38.2337 22.28C38.2337 22.4053 38.3101 22.4119 38.4284 22.4119C38.5126 22.4119 38.6168 22.4053 38.7082 22.4053V22.5512C38.408 22.5787 37.8355 22.7243 37.7027 22.766L37.6679 22.7449V22.1832C37.2496 22.5228 36.9282 22.766 36.4321 22.766C36.0553 22.766 35.6648 22.5228 35.6648 21.9411V20.1656C35.6648 19.985 35.6371 19.8117 35.2468 19.7775V19.6454C35.4982 19.6386 36.0553 19.5972 36.1463 19.5972C36.2238 19.5972 36.2238 19.6454 36.2238 19.7982V21.587C36.2238 21.7952 36.2238 22.3909 36.8308 22.3909C37.0676 22.3909 37.3817 22.2111 37.6746 21.9687V20.103C37.6746 19.9645 37.3399 19.8882 37.0891 19.8192V19.6946C37.7165 19.6523 38.1077 19.5972 38.1774 19.5972C38.2337 19.5972 38.2337 19.6454 38.2337 19.722V22.28Z" fill="white"/>
<path fill-rule="evenodd" clip-rule="evenodd" d="M39.622 19.9918C39.901 19.7566 40.278 19.4925 40.6618 19.4925C41.4714 19.4925 41.96 20.1936 41.96 20.9492C41.96 21.8572 41.2898 22.7659 40.2914 22.7659C39.7755 22.7659 39.5033 22.599 39.3215 22.5227L39.1128 22.6822L38.9664 22.6063C39.0288 22.1972 39.064 21.7951 39.064 21.3719V18.3909C39.064 17.9397 38.959 17.926 38.6938 17.8496V17.7385C38.9732 17.6485 39.266 17.524 39.4125 17.4402C39.4895 17.3992 39.5451 17.3638 39.5664 17.3638C39.6079 17.3638 39.622 17.406 39.622 17.4616V19.9918ZM39.622 21.8779C39.622 22.1413 39.8734 22.5854 40.3408 22.5854C41.0874 22.5854 41.4013 21.8572 41.4013 21.2398C41.4013 20.4912 40.8297 19.8673 40.2855 19.8673C40.0262 19.8673 39.8103 20.0339 39.622 20.1936V21.8779Z" fill="white"/>
<path fill-rule="evenodd" clip-rule="evenodd" d="M9.51562 26.6933H9.56895C9.7055 26.6933 9.84981 26.6747 9.84981 26.4784V24.5018C9.84981 24.3052 9.7055 24.2865 9.56895 24.2865H9.51562V24.1731C9.66367 24.1731 9.89149 24.1881 10.0781 24.1881C10.2678 24.1881 10.4953 24.1731 10.6738 24.1731V24.2865H10.6202C10.4842 24.2865 10.3396 24.3052 10.3396 24.5018V26.4784C10.3396 26.6747 10.4842 26.6933 10.6202 26.6933H10.6738V26.8067C10.4917 26.8067 10.2633 26.7921 10.0742 26.7921C9.88775 26.7921 9.66367 26.8067 9.51562 26.8067V26.6933Z" fill="white"/>
<path fill-rule="evenodd" clip-rule="evenodd" d="M10.6739 26.8229C10.4902 26.8229 10.2629 26.8078 10.0739 26.8078C9.88809 26.8078 9.66473 26.8229 9.51567 26.8229H9.49915V26.6771H9.56871C9.70655 26.6738 9.83189 26.6628 9.83304 26.4784V24.5019C9.83189 24.3173 9.70655 24.3053 9.56871 24.3028H9.49915V24.1567H9.51567C9.66473 24.1567 9.8924 24.1714 10.0781 24.1714C10.267 24.1714 10.4944 24.1567 10.6739 24.1567H10.6908V24.3028H10.621C10.483 24.3053 10.3569 24.3173 10.3562 24.5019V26.4784C10.3569 26.6628 10.483 26.6738 10.621 26.6771H10.6908V26.8229H10.6739ZM10.6575 26.7906L10.6576 26.7104H10.621C10.4852 26.7104 10.3237 26.6867 10.3229 26.4784V24.5019C10.3237 24.2933 10.4852 24.27 10.621 24.27H10.6575V24.1894C10.4823 24.1896 10.2622 24.2047 10.0781 24.2047C9.89772 24.2047 9.67939 24.1906 9.53235 24.1894V24.27H9.56871C9.70411 24.27 9.86581 24.2933 9.86581 24.5019V26.4784C9.86581 26.6867 9.70411 26.7104 9.56871 26.7104H9.53235V26.7906C9.67939 26.7893 9.89384 26.7755 10.0739 26.7755C10.2589 26.7755 10.4784 26.7896 10.6575 26.7906Z" fill="white"/>
<path fill-rule="evenodd" clip-rule="evenodd" d="M13.2825 26.0631L13.2901 26.0556V24.6412C13.2901 24.3316 13.0734 24.2863 12.9595 24.2863H12.8759V24.1731C13.0547 24.1731 13.2293 24.1881 13.4075 24.1881C13.5632 24.1881 13.7196 24.1731 13.8747 24.1731V24.2863H13.8182C13.6582 24.2863 13.4797 24.3165 13.4797 24.7655V26.4821C13.4797 26.6143 13.4834 26.7463 13.5021 26.8634H13.3578L11.4026 24.6974V26.2522C11.4026 26.5806 11.4668 26.6933 11.7592 26.6933H11.8239V26.8067C11.6606 26.8067 11.4975 26.792 11.3342 26.792C11.1637 26.792 10.9888 26.8067 10.8177 26.8067V26.6933H10.8711C11.133 26.6933 11.2127 26.5159 11.2127 26.215V24.6254C11.2127 24.4143 11.0375 24.2863 10.8673 24.2863H10.8177V24.1731C10.9618 24.1731 11.1101 24.1881 11.2541 24.1881C11.3684 24.1881 11.4785 24.1731 11.5923 24.1731L13.2825 26.0631Z" fill="white"/>
<path fill-rule="evenodd" clip-rule="evenodd" d="M13.5021 26.8793L13.3457 26.874L11.4187 24.74V26.2522C11.4233 26.5803 11.4734 26.6735 11.7593 26.6771H11.8407V26.8229H11.8239C11.6596 26.8229 11.4961 26.8078 11.3342 26.8078C11.1641 26.8078 10.9896 26.8229 10.8176 26.8229H10.8009V26.6771H10.871C11.122 26.6757 11.1937 26.5154 11.1965 26.2149V24.626C11.1957 24.4251 11.0299 24.3028 10.8675 24.3028H10.8009V24.1567H10.8176C10.9627 24.1567 11.1114 24.1714 11.2538 24.1714C11.3671 24.1714 11.4767 24.1567 11.6048 24.1626L13.2736 26.029V24.6413C13.2717 24.3417 13.0702 24.3053 12.9596 24.3028H12.8592V24.1567H12.876C13.0554 24.1567 13.2301 24.1714 13.4075 24.1714C13.562 24.1714 13.7177 24.1567 13.8746 24.1567H13.8913V24.3028H13.8182C13.6613 24.3068 13.5005 24.3205 13.4959 24.7655V26.4821C13.4959 26.6142 13.5001 26.7459 13.5183 26.8605L13.5218 26.8793H13.5021ZM13.3579 26.8465H13.4835C13.4666 26.7329 13.4636 26.6077 13.4636 26.4821V24.7655C13.4636 24.3127 13.6546 24.27 13.8182 24.2697H13.8581V24.1894C13.7085 24.1906 13.5586 24.2043 13.4075 24.2043C13.2336 24.2043 13.0646 24.1906 12.8929 24.1894L12.8925 24.2697H12.9596C13.0763 24.27 13.3065 24.3215 13.3065 24.6413L13.3014 26.0676L13.294 26.0748L13.281 26.087L11.5923 24.1894C11.4795 24.1894 11.3697 24.2043 11.2538 24.2043C11.1147 24.2043 10.9721 24.1906 10.8344 24.1894L10.8337 24.2697H10.8675C11.0455 24.27 11.2288 24.4051 11.2288 24.626V26.2149C11.2288 26.5169 11.1441 26.7096 10.871 26.7106L10.8344 26.7096V26.7906C10.9988 26.7893 11.1683 26.7755 11.3342 26.7755C11.4925 26.7755 11.6507 26.7893 11.8073 26.7906V26.7106H11.7593C11.4605 26.7096 11.3865 26.5803 11.3862 26.2522V24.6552L13.3579 26.8465ZM13.2826 26.0631L13.2945 26.0523L13.2826 26.0631ZM13.2735 26.0557V26.0543L13.2705 26.0519L13.2735 26.0557Z" fill="white"/>
<path fill-rule="evenodd" clip-rule="evenodd" d="M14.4437 24.3618C14.1585 24.3618 14.1475 24.43 14.0905 24.7051H13.9766C13.9915 24.5994 14.0103 24.4939 14.0221 24.3845C14.0374 24.2784 14.045 24.1731 14.045 24.064H14.136C14.1666 24.1773 14.2614 24.1731 14.3645 24.1731H16.323C16.4261 24.1731 16.5208 24.1694 16.5285 24.0562L16.6192 24.0716C16.6046 24.1731 16.5891 24.2751 16.578 24.3772C16.5705 24.479 16.5705 24.5806 16.5705 24.6824L16.4564 24.7244C16.4486 24.585 16.4298 24.3618 16.1754 24.3618H15.5526V26.369C15.5526 26.66 15.6857 26.6933 15.8677 26.6933H15.9401V26.8067C15.7919 26.8067 15.526 26.7921 15.3213 26.7921C15.0932 26.7921 14.8272 26.8067 14.679 26.8067V26.6933H14.7514C14.9607 26.6933 15.0665 26.6748 15.0665 26.3768V24.3618H14.4437Z" fill="white"/>
<path fill-rule="evenodd" clip-rule="evenodd" d="M15.9404 26.8227C15.7908 26.8227 15.5251 26.8077 15.3213 26.8077C15.0935 26.8077 14.8279 26.8227 14.679 26.8227H14.6627V26.6769H14.7514C14.9607 26.672 15.0448 26.6693 15.0495 26.3767V24.3778H14.4437V24.3448H15.0824V26.3767C15.0824 26.6796 14.9595 26.7102 14.7514 26.7104H14.6952V26.7901C14.845 26.7891 15.1008 26.7753 15.3213 26.7753C15.519 26.7753 15.7726 26.7891 15.9231 26.7901V26.7104H15.8677C15.684 26.7102 15.5362 26.6653 15.5362 26.3688V24.3448H16.1754C16.4301 24.3458 16.4639 24.5608 16.4718 24.7012L16.554 24.6711C16.554 24.5726 16.5544 24.4739 16.5612 24.3748C16.5724 24.2772 16.5862 24.1814 16.6004 24.0847L16.5428 24.0751C16.5251 24.185 16.418 24.1908 16.3229 24.1894H14.3447C14.2553 24.1895 14.1579 24.1852 14.1237 24.08H14.0611C14.0605 24.1842 14.0533 24.2855 14.0389 24.386C14.0276 24.4897 14.0102 24.5893 13.9964 24.6892H14.0775C14.1273 24.426 14.1598 24.3411 14.4437 24.3448V24.3778C14.1624 24.3833 14.1686 24.43 14.1066 24.7088L14.1039 24.7216H13.9576L13.9596 24.7021C13.9751 24.5968 13.9944 24.4909 14.0054 24.3813C14.0213 24.2766 14.0284 24.172 14.0284 24.0639V24.0471H14.149L14.1519 24.059C14.1775 24.1541 14.2478 24.1548 14.3447 24.1565H16.3229C16.4286 24.1548 16.5057 24.1534 16.5122 24.0547L16.5134 24.0369L16.5307 24.0403L16.6381 24.0571L16.6353 24.0739C16.6202 24.1751 16.6054 24.2766 16.5939 24.3778C16.5869 24.4789 16.5869 24.5803 16.5869 24.6822V24.6937L16.5758 24.6981L16.4414 24.7469L16.4406 24.7251C16.4301 24.5831 16.4154 24.3778 16.1754 24.3778H15.5693V26.3688C15.573 26.6533 15.6865 26.6733 15.8677 26.6769H15.9565V26.8227H15.9404Z" fill="white"/>
<path fill-rule="evenodd" clip-rule="evenodd" d="M16.7405 26.6933H16.794C16.9303 26.6933 17.075 26.6747 17.075 26.4784V24.5018C17.075 24.3052 16.9303 24.2865 16.794 24.2865H16.7405V24.1731C16.9714 24.1731 17.3672 24.1881 17.6856 24.1881C18.0051 24.1881 18.3995 24.1731 18.6577 24.1731C18.651 24.3353 18.6546 24.585 18.6659 24.7506L18.5514 24.7806C18.5332 24.5353 18.4876 24.3396 18.0888 24.3396H17.5615V25.3274H18.0126C18.2404 25.3274 18.29 25.1996 18.3126 24.9957H18.4264C18.4188 25.1431 18.4147 25.2902 18.4147 25.4371C18.4147 25.5808 18.4188 25.724 18.4264 25.8671L18.3126 25.8897C18.29 25.6636 18.2786 25.5165 18.0163 25.5165H17.5615V26.3951C17.5615 26.6407 17.7809 26.6407 18.0241 26.6407C18.4799 26.6407 18.6809 26.6103 18.7949 26.1807L18.9009 26.2067C18.8516 26.4071 18.8063 26.6065 18.7722 26.8067C18.5289 26.8067 18.0922 26.7921 17.7511 26.7921C17.4086 26.7921 16.9571 26.8067 16.7405 26.8067V26.6933Z" fill="white"/>
<path fill-rule="evenodd" clip-rule="evenodd" d="M18.7719 26.8229C18.5283 26.8229 18.0913 26.8072 17.7507 26.8072C17.4086 26.8072 16.9573 26.8229 16.7404 26.8229H16.7244V26.6771H16.7938C16.9313 26.6748 17.0563 26.6628 17.058 26.4784V24.5019C17.0563 24.3175 16.9313 24.3053 16.7938 24.3028H16.7244V24.1567H16.7404C16.9724 24.1567 17.3673 24.1714 17.6856 24.1714C18.0048 24.1714 18.3991 24.1567 18.6576 24.1567H18.6745L18.6739 24.1742C18.6714 24.2306 18.6699 24.2977 18.6699 24.3687C18.6699 24.4991 18.6739 24.642 18.6814 24.7494L18.6821 24.7628L18.6693 24.7667L18.5358 24.8014L18.5352 24.782C18.5128 24.5372 18.4797 24.3591 18.0887 24.3554H17.5769L17.5766 25.3109H18.0124C18.2313 25.3087 18.2704 25.1976 18.2963 24.994L18.2972 24.9789H18.4432L18.4429 24.9962C18.4356 25.1436 18.4311 25.2902 18.4311 25.4372C18.4311 25.5799 18.4356 25.7231 18.4429 25.8665L18.4432 25.8802L18.4294 25.8833L18.2972 25.9095L18.2963 25.8918C18.27 25.6614 18.2683 25.5352 18.0163 25.5324H17.5769V26.3952C17.5775 26.6245 17.7764 26.6232 18.0239 26.6245C18.4811 26.6218 18.6643 26.5995 18.7787 26.1764L18.7825 26.1611L18.7985 26.1637L18.9202 26.1951L18.9168 26.2107C18.8675 26.4103 18.8222 26.6098 18.7879 26.8095L18.785 26.8229H18.7719ZM18.7578 26.7903C18.791 26.5995 18.8343 26.409 18.8809 26.2191L18.8061 26.2004C18.6924 26.6224 18.4721 26.6601 18.0239 26.6572C17.7846 26.6572 17.5454 26.6572 17.5441 26.3952V25.5002H18.0163C18.2815 25.4975 18.3082 25.6563 18.3272 25.8709L18.4091 25.8542C18.4018 25.7151 18.3981 25.5754 18.3981 25.4372C18.3981 25.2955 18.4018 25.1541 18.4091 25.0118H18.3272C18.3058 25.2088 18.2438 25.3464 18.0124 25.3439H17.5441V24.3227H18.0887C18.4836 24.3195 18.549 24.5226 18.5662 24.76L18.648 24.7378C18.6414 24.6314 18.6369 24.4946 18.6369 24.3687C18.6369 24.3041 18.6387 24.2429 18.6408 24.1894C18.3828 24.1906 17.9978 24.2043 17.6856 24.2043C17.3735 24.2043 16.9895 24.1906 16.7571 24.1894V24.2697H16.7938C16.929 24.27 17.0905 24.2933 17.0914 24.5019V26.4784C17.0905 26.6867 16.929 26.7096 16.7938 26.7106H16.7571V26.7903C16.9781 26.7896 17.4171 26.7755 17.7507 26.7755C18.0859 26.7755 18.513 26.7896 18.7578 26.7903Z" fill="white"/>
<path fill-rule="evenodd" clip-rule="evenodd" d="M19.4137 24.5727C19.4137 24.2976 19.2616 24.2863 19.1438 24.2863H19.0752V24.1731C19.1968 24.1731 19.4322 24.1881 19.6641 24.1881C19.8915 24.1881 20.074 24.1731 20.2752 24.1731C20.753 24.1731 21.1792 24.3012 21.1792 24.8373C21.1792 25.1766 20.9512 25.3839 20.6514 25.5015L21.3003 26.4668C21.407 26.6265 21.4823 26.6712 21.6689 26.6933V26.8067C21.5432 26.8067 21.4218 26.7921 21.2969 26.7921C21.1792 26.7921 21.0571 26.8067 20.94 26.8067C20.6474 26.4258 20.3965 26.0185 20.1499 25.5839H19.8997V26.3918C19.8997 26.6823 20.0361 26.6933 20.2101 26.6933H20.279V26.8067C20.0621 26.8067 19.8427 26.7921 19.6258 26.7921C19.4436 26.7921 19.2651 26.8067 19.0752 26.8067V26.6933H19.1438C19.2848 26.6933 19.4137 26.6295 19.4137 26.4901V24.5727ZM19.8996 25.4478H20.0852C20.4654 25.4478 20.6701 25.3049 20.6701 24.8594C20.6701 24.524 20.4536 24.3089 20.1152 24.3089C20.0013 24.3089 19.9527 24.3205 19.8996 24.3242V25.4478Z" fill="white"/>
<path fill-rule="evenodd" clip-rule="evenodd" d="M21.6689 26.8229C21.5416 26.8229 21.4208 26.8078 21.2959 26.8078C21.1802 26.8078 21.0588 26.8229 20.9265 26.8166C20.6352 26.4367 20.3855 26.0317 20.1403 25.601H19.9159V26.3912C19.9201 26.6752 20.0347 26.6731 20.2102 26.6771H20.2954V26.8229H20.2786C20.0615 26.8229 19.8409 26.8078 19.6257 26.8078C19.4444 26.8078 19.266 26.8229 19.0752 26.8229H19.0587V26.6771H19.1438C19.2804 26.6761 19.3958 26.617 19.3963 26.4901V24.5727C19.3935 24.3053 19.2617 24.3065 19.1438 24.3028H19.0587V24.1567H19.0752C19.1981 24.1567 19.4326 24.1714 19.6641 24.1714C19.8908 24.1714 20.0729 24.1567 20.2753 24.1567C20.7541 24.1577 21.1946 24.2887 21.1957 24.8368C21.1957 25.1773 20.9692 25.3901 20.6764 25.5087L21.314 26.4579C21.4203 26.6144 21.4864 26.6535 21.6711 26.6771L21.6849 26.6792V26.8229H21.6689ZM19.8996 25.5677H20.159L20.1637 25.5761C20.411 26.0096 20.6605 26.417 20.94 26.7906C21.0556 26.7906 21.1776 26.7755 21.2959 26.7755C21.4171 26.7755 21.5344 26.7886 21.6522 26.7903V26.7075C21.4743 26.6859 21.3906 26.6325 21.287 26.4762L20.626 25.494L20.6447 25.4865C20.9421 25.3701 21.1624 25.1686 21.1625 24.8368C21.1624 24.3134 20.7526 24.192 20.2753 24.1894C20.0753 24.1894 19.8928 24.2047 19.6641 24.2047C19.441 24.2047 19.2157 24.1906 19.0915 24.1894V24.2697H19.1438C19.2617 24.27 19.4294 24.2894 19.4294 24.5728V26.4901C19.4294 26.6415 19.2867 26.7104 19.1438 26.7106H19.0915V26.7903C19.274 26.7896 19.4474 26.7755 19.6257 26.7755C19.8377 26.7755 20.0522 26.7896 20.2622 26.7903V26.7106H20.2102C20.0373 26.7104 19.8827 26.6891 19.8827 26.3912V25.5677H19.8996ZM19.8996 25.4642H19.8827V24.309L19.8973 24.3078C19.9493 24.3037 20.0005 24.2933 20.1153 24.2933C20.4611 24.2933 20.6864 24.5165 20.6866 24.8605C20.6856 25.3109 20.4683 25.464 20.0853 25.4642H19.8996ZM20.0853 25.432C20.4611 25.4283 20.6506 25.2988 20.6543 24.8605C20.652 24.5309 20.446 24.3264 20.1153 24.325C20.0128 24.325 19.9644 24.3344 19.9159 24.3391V25.432H20.0853Z" fill="white"/>
<path fill-rule="evenodd" clip-rule="evenodd" d="M24.2469 26.0631L24.2535 26.0556V24.6412C24.2535 24.3316 24.0377 24.2863 23.9237 24.2863H23.8405V24.1731C24.019 24.1731 24.1931 24.1881 24.3721 24.1881C24.5281 24.1881 24.6827 24.1731 24.8395 24.1731V24.2863H24.7823C24.6227 24.2863 24.4444 24.3165 24.4444 24.7655V26.4821C24.4444 26.6143 24.4481 26.7463 24.4668 26.8634H24.323L22.3677 24.6974V26.2522C22.3677 26.5806 22.4318 26.6933 22.7242 26.6933H22.7888V26.8067C22.6257 26.8067 22.4621 26.792 22.299 26.792C22.1275 26.792 21.9532 26.8067 21.7824 26.8067V26.6933H21.8352C22.0973 26.6933 22.1775 26.5159 22.1775 26.215V24.6254C22.1775 24.4143 22.0026 24.2863 21.8319 24.2863H21.7824V24.1731C21.9261 24.1731 22.0753 24.1881 22.2194 24.1881C22.3322 24.1881 22.4429 24.1731 22.557 24.1731L24.2469 26.0631Z" fill="white"/>
<path fill-rule="evenodd" clip-rule="evenodd" d="M24.4666 26.8793L24.3107 26.874L22.3834 24.7403V26.2521C22.3878 26.5807 22.4378 26.6735 22.7242 26.6771H22.8047V26.8229H22.7881C22.624 26.8229 22.461 26.8072 22.2983 26.8072C22.1288 26.8072 21.9533 26.8229 21.7823 26.8229H21.7653V26.6771H21.8352C22.086 26.6761 22.1579 26.5154 22.1603 26.2141V24.6254C22.1599 24.4244 21.9943 24.3028 21.8319 24.3028H21.7653V24.1567H21.7823C21.9273 24.1567 22.0759 24.1714 22.2192 24.1714C22.3308 24.1714 22.4407 24.1567 22.5681 24.1616L24.2374 26.029V24.6413C24.2364 24.3417 24.0342 24.3045 23.9238 24.3028H23.8236V24.1567H23.8401C24.0195 24.1567 24.1946 24.1714 24.3721 24.1714C24.5267 24.1714 24.6822 24.1567 24.8388 24.1567H24.8556V24.3028H24.7823C24.6256 24.3065 24.4642 24.3205 24.4605 24.7655V26.4821C24.4605 26.6142 24.4638 26.7451 24.4832 26.8607L24.485 26.8793H24.4666ZM24.3229 26.8465H24.4474C24.4307 26.7336 24.4274 26.6077 24.4274 26.4821V24.7655C24.4277 24.3127 24.6197 24.2707 24.7823 24.2697H24.8222V24.1894C24.6728 24.1906 24.5227 24.2043 24.3721 24.2043C24.1976 24.2043 24.0284 24.1906 23.8566 24.1894V24.2697H23.9238C24.0408 24.2707 24.2707 24.3215 24.2707 24.6413L24.2653 26.0676L24.2584 26.0748L24.2464 26.0873L22.557 24.1894C22.444 24.1894 22.3339 24.2043 22.2192 24.2043C22.0784 24.2043 21.9365 24.1906 21.7985 24.1894V24.2697H21.8319C22.0105 24.2707 22.1932 24.4045 22.1932 24.6254V26.2141C22.1932 26.5169 22.1074 26.7096 21.8352 26.7106L21.7985 26.7104V26.7905C21.9625 26.7893 22.1317 26.7755 22.2983 26.7755C22.4575 26.7755 22.6154 26.7893 22.7723 26.7905V26.7106H22.7242C22.4253 26.7104 22.3509 26.5807 22.35 26.2521V24.6557L24.3229 26.8465ZM24.2464 26.0631L24.2588 26.0523L24.2464 26.0631ZM24.2374 26.0557V26.0547L24.2347 26.0519L24.2374 26.0557Z" fill="white"/>
<path fill-rule="evenodd" clip-rule="evenodd" d="M25.4499 26.2673C25.4117 26.3952 25.3659 26.4943 25.3659 26.5613C25.3659 26.6748 25.5258 26.6935 25.6507 26.6935H25.6931V26.8067C25.5406 26.7986 25.3857 26.7922 25.2329 26.7922C25.0962 26.7922 24.9602 26.7986 24.8231 26.8067V26.6935H24.8463C24.994 26.6935 25.1198 26.6065 25.1761 26.448L25.7837 24.7168C25.8333 24.5769 25.9017 24.3884 25.9248 24.2484C26.0456 24.2071 26.1981 24.1322 26.2699 24.0863C26.2817 24.0825 26.2888 24.0786 26.3003 24.0786C26.3118 24.0786 26.3188 24.0786 26.3271 24.0905C26.3384 24.1203 26.3494 24.1543 26.3612 24.1844L27.0602 26.158C27.1058 26.2896 27.1509 26.4292 27.1995 26.543C27.2457 26.6488 27.3255 26.6935 27.4513 26.6935H27.474V26.8067C27.303 26.7986 27.1316 26.7922 26.9502 26.7922C26.7641 26.7922 26.5736 26.7986 26.38 26.8067V26.6935H26.4219C26.5087 26.6935 26.6577 26.6785 26.6577 26.5841C26.6577 26.5354 26.6234 26.4334 26.581 26.3122L26.4331 25.8748H25.5713L25.4499 26.2673ZM26.0043 24.5959H25.9964L25.6436 25.6637H26.353L26.0043 24.5959Z" fill="white"/>
<path fill-rule="evenodd" clip-rule="evenodd" d="M27.4728 26.8227C27.3022 26.8155 27.131 26.807 26.9502 26.807C26.7641 26.807 26.5746 26.8155 26.3809 26.8227L26.3633 26.8236V26.6762H26.4218C26.5098 26.6762 26.6403 26.6566 26.6406 26.584C26.6415 26.541 26.6074 26.4376 26.5656 26.3176L26.421 25.8907H25.5834L25.4653 26.2721C25.4271 26.4003 25.3809 26.5 25.3816 26.5614C25.3829 26.6535 25.5247 26.6762 25.6507 26.6762H25.7091V26.8236L25.6918 26.8227C25.54 26.8155 25.3851 26.807 25.2332 26.807C25.0976 26.807 24.9604 26.8155 24.8244 26.8227L24.8067 26.8236V26.6762H24.8461C24.9872 26.6759 25.1051 26.5958 25.16 26.4426L25.7681 24.7108C25.8171 24.5712 25.8861 24.3835 25.9189 24.2327C26.0381 24.1926 26.1909 24.1165 26.2637 24.0709C26.2744 24.0672 26.2849 24.0623 26.3001 24.0623C26.3094 24.0618 26.3298 24.0642 26.3422 24.0839C26.353 24.1149 26.3651 24.1487 26.3766 24.1791L27.0757 26.1524C27.1204 26.2845 27.1658 26.4239 27.2155 26.5357C27.2595 26.6362 27.3292 26.6759 27.4513 26.6762H27.4896V26.8236L27.4728 26.8227ZM26.3965 26.7892C26.5844 26.7826 26.7688 26.7753 26.9502 26.7753C27.1263 26.7753 27.2919 26.7826 27.4569 26.7892V26.7102H27.4513C27.321 26.7111 27.2315 26.6602 27.1849 26.549C27.1355 26.435 27.0893 26.2949 27.0445 26.1628L26.3454 24.1894C26.3339 24.1593 26.3231 24.1256 26.3132 24.0987C26.3094 24.095 26.3103 24.095 26.3073 24.095H26.3001C26.2925 24.095 26.2879 24.0973 26.2781 24.0997C26.2051 24.1469 26.0529 24.2213 25.9399 24.2507C25.9168 24.3936 25.8483 24.5822 25.799 24.722L25.1915 26.4533C25.1337 26.6172 25.0002 26.7105 24.8461 26.7102H24.8398V26.7892C24.97 26.7826 25.1014 26.7753 25.2332 26.7753C25.3801 26.7753 25.5298 26.7826 25.6751 26.7892V26.7102H25.6507C25.5267 26.7085 25.3539 26.6951 25.3496 26.5614C25.3499 26.4866 25.3964 26.39 25.4337 26.2625L25.4498 26.2672L25.4337 26.2621L25.5587 25.8589H26.4441L26.5962 26.3069C26.6389 26.4283 26.6734 26.5288 26.6734 26.584C26.6678 26.6995 26.5079 26.7081 26.4218 26.7102H26.3965V26.7892ZM25.6204 25.6798L25.9839 24.579H26.0043V24.5957L26.0003 24.5969L26.0043 24.5957V24.579H26.0156L26.3766 25.6798H25.6204ZM25.6658 25.6468H26.3306L26.0001 24.6359L25.6658 25.6468ZM25.9878 24.6006L25.9965 24.5979L25.9878 24.6006Z" fill="white"/>
<path fill-rule="evenodd" clip-rule="evenodd" d="M27.6408 24.3618C27.3561 24.3618 27.3446 24.43 27.2874 24.7051H27.1733C27.1882 24.5994 27.2076 24.4939 27.2194 24.3845C27.2342 24.2784 27.2416 24.1731 27.2416 24.064H27.3334C27.3632 24.1773 27.4583 24.1731 27.5608 24.1731H29.5204C29.6225 24.1731 29.7174 24.1694 29.7248 24.0562L29.8157 24.0716C29.8016 24.1731 29.7865 24.2751 29.7746 24.3772C29.7662 24.479 29.7662 24.5806 29.7662 24.6824L29.6528 24.7244C29.6461 24.585 29.627 24.3618 29.372 24.3618H28.7493V26.369C28.7493 26.66 28.8824 26.6933 29.0644 26.6933H29.137V26.8067C28.9886 26.8067 28.7233 26.7921 28.5178 26.7921C28.2904 26.7921 28.0239 26.8067 27.8758 26.8067V26.6933H27.9481C28.1574 26.6933 28.2634 26.6748 28.2634 26.3768V24.3618H27.6408Z" fill="white"/>
<path fill-rule="evenodd" clip-rule="evenodd" d="M29.137 26.8227C28.9878 26.8227 28.7216 26.8077 28.5175 26.8077C28.2907 26.8077 28.0248 26.8227 27.876 26.8227H27.8592V26.6769H27.9482C28.1576 26.672 28.2415 26.6693 28.2465 26.3767L28.2463 24.3778H27.6409V24.3448H28.2797V26.3767C28.2797 26.6796 28.1567 26.7094 27.9482 26.7102H27.8922V26.7904C28.0423 26.7891 28.2974 26.7753 28.5175 26.7753C28.716 26.7753 28.9701 26.7891 29.12 26.7904V26.7102H29.0642C28.8813 26.7094 28.7334 26.6657 28.7331 26.3688V24.3448H29.372C29.6271 24.3458 29.6603 24.5608 29.6676 24.7012L29.7501 24.6711C29.7501 24.5726 29.7507 24.4739 29.7585 24.3752C29.7687 24.2779 29.7831 24.1814 29.7969 24.0851L29.7395 24.0751C29.7221 24.185 29.6149 24.1911 29.5205 24.1894H27.5414C27.4518 24.1904 27.355 24.1852 27.3205 24.0797H27.2584C27.2575 24.1841 27.25 24.2855 27.2351 24.386C27.2247 24.4902 27.2065 24.59 27.192 24.6892H27.2736C27.3235 24.426 27.3564 24.3406 27.6409 24.3448V24.3778C27.3593 24.3826 27.3655 24.43 27.3035 24.7088L27.3008 24.7216H27.1542L27.1565 24.7029C27.1724 24.5968 27.1911 24.4909 27.2022 24.3822C27.2177 24.2766 27.2247 24.172 27.2247 24.0639V24.0471H27.3453L27.3485 24.059C27.3751 24.1541 27.4442 24.1548 27.5414 24.1565H29.5205C29.6255 24.1548 29.7021 24.1534 29.7089 24.055L29.7095 24.0369L29.7271 24.0403L29.8349 24.0571L29.8324 24.0739C29.8167 24.1751 29.8023 24.2766 29.7908 24.3778C29.7831 24.4789 29.7831 24.5804 29.7831 24.6822V24.6937L29.772 24.6981L29.6376 24.7469L29.637 24.7251C29.6271 24.5831 29.612 24.3778 29.372 24.3778H28.7657V26.3688C28.7696 26.6533 28.8833 26.6733 29.0642 26.6769H29.1528V26.8227H29.137Z" fill="white"/>
<path fill-rule="evenodd" clip-rule="evenodd" d="M29.9562 26.6933H30.0094C30.1463 26.6933 30.29 26.6747 30.29 26.4784V24.5018C30.29 24.3052 30.1463 24.2865 30.0094 24.2865H29.9562V24.1731C30.1044 24.1731 30.3318 24.1881 30.5177 24.1881C30.708 24.1881 30.9359 24.1731 31.1147 24.1731V24.2865H31.0614C30.9241 24.2865 30.7798 24.3052 30.7798 24.5018V26.4784C30.7798 26.6747 30.9241 26.6933 31.0614 26.6933H31.1147V26.8067C30.9323 26.8067 30.7042 26.7921 30.5146 26.7921C30.3282 26.7921 30.1044 26.8067 29.9562 26.8067V26.6933Z" fill="white"/>
<path fill-rule="evenodd" clip-rule="evenodd" d="M31.1147 26.8229C30.9312 26.8229 30.7041 26.8072 30.5146 26.8072C30.3288 26.8072 30.1046 26.8229 29.9562 26.8229H29.94V26.6771H30.0096C30.1464 26.6748 30.2726 26.6628 30.2735 26.4784V24.5019C30.2726 24.3175 30.1464 24.3053 30.0096 24.3028H29.94V24.1567H29.9562C30.1046 24.1567 30.333 24.1714 30.5177 24.1714C30.707 24.1714 30.9348 24.1567 31.1147 24.1567H31.1305V24.3028H31.0616C30.9226 24.3053 30.7977 24.3175 30.7964 24.5019V26.4784C30.7977 26.6628 30.9226 26.6748 31.0616 26.6771H31.1305V26.8229H31.1147ZM31.0975 26.7903V26.7104H31.0616C30.9253 26.7104 30.7642 26.6867 30.7642 26.4784V24.5019C30.7642 24.2933 30.9253 24.27 31.0616 24.2697H31.0975V24.1894C30.9224 24.1906 30.7025 24.2043 30.5177 24.2043C30.3374 24.2043 30.1201 24.1906 29.9728 24.1894V24.2697H30.0096C30.1444 24.27 30.3062 24.2933 30.3067 24.5019V26.4784C30.3062 26.6867 30.1444 26.7104 30.0096 26.7104H29.9728V26.7903C30.1191 26.7886 30.3338 26.7755 30.5146 26.7755C30.6988 26.7755 30.9184 26.7893 31.0975 26.7903Z" fill="white"/>
<path fill-rule="evenodd" clip-rule="evenodd" d="M32.6288 24.1165C33.4383 24.1165 34.0836 24.615 34.0836 25.4186C34.0836 26.2865 33.4569 26.8633 32.6484 26.8633C31.843 26.8633 31.2281 26.3199 31.2281 25.5086C31.2281 24.7243 31.8393 24.1165 32.6288 24.1165ZM32.6862 26.6972C33.4231 26.6972 33.5516 26.0516 33.5516 25.5014C33.5516 24.95 33.2523 24.2825 32.6216 24.2825C31.9573 24.2825 31.7597 24.8712 31.7597 25.3763C31.7597 26.0516 32.0713 26.6972 32.6862 26.6972Z" fill="white"/>
<path fill-rule="evenodd" clip-rule="evenodd" d="M31.2112 25.5087C31.2128 24.7152 31.831 24.1014 32.6287 24.1001V24.1331C31.8481 24.1331 31.2442 24.7326 31.2434 25.5087C31.245 26.3108 31.8509 26.8461 32.6485 26.8464C33.4488 26.8461 34.0664 26.2776 34.0675 25.4181C34.0667 24.6245 33.4317 24.1338 32.6287 24.1331V24.1001C33.4439 24.101 34.0984 24.6044 34.0998 25.4181C34.0989 26.295 33.4648 26.8778 32.6485 26.8792C31.8363 26.8778 31.2128 26.329 31.2112 25.5087ZM31.743 25.3764C31.7441 24.8687 31.9435 24.2658 32.6215 24.2658C33.2663 24.2672 33.567 24.9471 33.5683 25.5015C33.567 26.0516 33.4368 26.7127 32.6863 26.7127V26.6807C33.4083 26.6801 33.5338 26.0516 33.5349 25.5015C33.5349 24.955 33.2387 24.3 32.6215 24.299C31.9701 24.2997 31.7776 24.8738 31.7759 25.3764C31.7762 26.0485 32.0849 26.6797 32.6863 26.6807V26.7127C32.056 26.7121 31.7441 26.0556 31.743 25.3764Z" fill="white"/>
<path fill-rule="evenodd" clip-rule="evenodd" d="M36.6423 26.0631L36.6502 26.0556V24.6412C36.6502 24.3316 36.433 24.2863 36.3192 24.2863H36.2365V24.1731C36.4145 24.1731 36.5896 24.1881 36.7675 24.1881C36.9236 24.1881 37.0793 24.1731 37.2351 24.1731V24.2863H37.178C37.0189 24.2863 36.8397 24.3165 36.8397 24.7655V26.4821C36.8397 26.6143 36.8437 26.7463 36.8629 26.8634H36.7185L34.7626 24.6974V26.2522C34.7626 26.5806 34.8274 26.6933 35.1192 26.6933H35.1843V26.8067C35.0209 26.8067 34.8579 26.792 34.6946 26.792C34.5235 26.792 34.3488 26.8067 34.1779 26.8067V26.6933H34.2312C34.4936 26.6933 34.5728 26.5159 34.5728 26.215V24.6254C34.5728 24.4143 34.3988 24.2863 34.227 24.2863H34.1779V24.1731C34.3222 24.1731 34.4701 24.1881 34.6147 24.1881C34.7284 24.1881 34.8379 24.1731 34.9523 24.1731L36.6423 26.0631Z" fill="white"/>
<path fill-rule="evenodd" clip-rule="evenodd" d="M36.8631 26.8793L36.706 26.874L34.779 24.7403V26.2522C34.7834 26.5807 34.8336 26.6731 35.1188 26.6764H35.2005V26.8229H35.1844C35.02 26.8229 34.857 26.8078 34.6946 26.8078C34.5244 26.8078 34.3496 26.8229 34.1774 26.8229H34.1619V26.6764H34.2311C34.4813 26.6757 34.5535 26.5154 34.5565 26.2149V24.6254C34.5563 24.4244 34.3903 24.3028 34.2272 24.3028H34.1619V24.1567H34.1774C34.3231 24.1567 34.4711 24.1714 34.6145 24.1714C34.7272 24.1714 34.8363 24.1567 34.9651 24.1626L36.6336 26.029V24.6413C36.6323 24.3417 36.43 24.3053 36.3192 24.3028H36.2192V24.1567H36.2366C36.4149 24.1567 36.5902 24.1714 36.7671 24.1714C36.9225 24.1714 37.0774 24.1567 37.2352 24.1567H37.2512V24.3028H37.1779C37.0214 24.3068 36.8598 24.3211 36.8566 24.7655V26.4821C36.8566 26.6142 36.8597 26.7459 36.8781 26.8607L36.8814 26.8793H36.8631ZM36.7185 26.8465H36.843C36.8269 26.7329 36.8231 26.6077 36.8231 26.4821V24.7655C36.8231 24.312 37.0149 24.2707 37.1779 24.2697H37.219V24.1894C37.0682 24.1906 36.9189 24.2043 36.7671 24.2043C36.5942 24.2043 36.4244 24.1906 36.2525 24.1894V24.2697H36.3192C36.4365 24.2707 36.6658 24.3223 36.6658 24.6413L36.6617 26.0676L36.6544 26.0748L36.6423 26.0873L34.9525 24.1894C34.8401 24.1894 34.7295 24.2043 34.6145 24.2043C34.4746 24.2043 34.332 24.1906 34.1938 24.1894V24.2697H34.2272C34.4057 24.2707 34.5891 24.4045 34.5891 24.6254V26.2149C34.5891 26.5169 34.5043 26.7096 34.2311 26.7106L34.1938 26.7104V26.7905C34.3587 26.7893 34.5277 26.7755 34.6946 26.7755C34.853 26.7755 35.0104 26.7893 35.1678 26.7905V26.7106H35.1188C34.8208 26.7104 34.7461 26.5807 34.7461 26.2522V24.6552L36.7185 26.8465ZM36.6423 26.0631L36.6544 26.0523L36.6423 26.0631ZM36.6336 26.0557V26.0547L36.6306 26.0519L36.6336 26.0557Z" fill="white"/>
<path fill-rule="evenodd" clip-rule="evenodd" d="M37.8451 26.2673C37.8078 26.3952 37.762 26.4943 37.762 26.5613C37.762 26.6748 37.922 26.6935 38.0464 26.6935H38.0888V26.8067C37.9368 26.7986 37.781 26.7922 37.6289 26.7922C37.4922 26.7922 37.3557 26.7986 37.2195 26.8067V26.6935H37.2411C37.39 26.6935 37.5158 26.6065 37.5713 26.448L38.1801 24.7168C38.2291 24.5769 38.2978 24.3884 38.3197 24.2484C38.4417 24.2071 38.5932 24.1322 38.6664 24.0863C38.677 24.0825 38.6846 24.0786 38.6964 24.0786C38.7075 24.0786 38.7147 24.0786 38.7224 24.0905C38.7339 24.1203 38.7453 24.1543 38.7568 24.1844L39.4555 26.158C39.5007 26.2896 39.5466 26.4292 39.5962 26.543C39.6417 26.6488 39.7214 26.6935 39.8466 26.6935H39.87V26.8067C39.6988 26.7986 39.5278 26.7922 39.3454 26.7922C39.1597 26.7922 38.9695 26.7986 38.7756 26.8067V26.6935H38.8177C38.9045 26.6935 39.0534 26.6785 39.0534 26.5841C39.0534 26.5354 39.0194 26.4334 38.977 26.3122L38.8289 25.8748H37.9671L37.8451 26.2673ZM38.4003 24.5959H38.3927L38.0387 25.6637H38.7499L38.4003 24.5959Z" fill="white"/>
<path fill-rule="evenodd" clip-rule="evenodd" d="M39.8682 26.8228C39.6971 26.8161 39.5266 26.8076 39.3455 26.8076C39.1602 26.8076 38.9699 26.8161 38.7765 26.8228L38.7596 26.8236V26.677H38.8174C38.9057 26.677 39.0365 26.6567 39.0366 26.584C39.0376 26.541 39.0033 26.438 38.9606 26.3176L38.8166 25.8908H37.9783L37.861 26.2721C37.8228 26.4013 37.7779 26.5 37.7784 26.5611C37.7784 26.6535 37.9208 26.677 38.0463 26.677H38.1044V26.8236L38.0872 26.8228C37.9356 26.8161 37.7801 26.8076 37.6289 26.8076C37.4928 26.8076 37.3565 26.8161 37.2195 26.8228L37.203 26.8236V26.677H37.2411C37.3827 26.6762 37.5011 26.5957 37.5567 26.4426L38.164 24.7109C38.2127 24.5712 38.2813 24.3835 38.3146 24.2333C38.4339 24.1922 38.5864 24.1165 38.6603 24.0709C38.6701 24.0672 38.6807 24.0626 38.6962 24.0626C38.706 24.0618 38.726 24.0642 38.7376 24.0848C38.7491 24.1145 38.7604 24.1488 38.7727 24.1792L39.471 26.1524C39.5167 26.2845 39.562 26.4239 39.6113 26.5364C39.656 26.6363 39.7247 26.676 39.8461 26.677H39.8854V26.8236L39.8682 26.8228ZM38.7918 26.7895C38.9797 26.7826 39.1644 26.7754 39.3455 26.7754C39.522 26.7754 39.6871 26.7826 39.8529 26.7892L39.8524 26.7102H39.8461C39.7175 26.7105 39.6279 26.6603 39.5805 26.549C39.5305 26.435 39.4853 26.2949 39.4398 26.1633L38.7411 24.1895C38.7299 24.1593 38.7178 24.1256 38.7089 24.0995C38.7057 24.0951 38.706 24.0951 38.7037 24.0951H38.6962C38.6881 24.0951 38.6839 24.0976 38.6748 24.1002C38.6005 24.1463 38.4486 24.222 38.3365 24.2507C38.3129 24.3937 38.2439 24.5819 38.195 24.722L37.5869 26.4533C37.5291 26.6173 37.3965 26.7105 37.2411 26.7102H37.2355V26.7892C37.3663 26.7826 37.4968 26.7754 37.6289 26.7754C37.7759 26.7754 37.9261 26.7826 38.072 26.7892V26.7102H38.0463C37.9228 26.7085 37.7498 26.6955 37.7449 26.5611C37.7459 26.4866 37.7926 26.3903 37.8298 26.2625L37.8451 26.2672L37.8298 26.2621L37.9547 25.8589H38.8398L38.9923 26.3069C39.0342 26.4283 39.0688 26.5289 39.0688 26.584C39.0633 26.6995 38.9037 26.7081 38.8174 26.7102H38.7918V26.7895ZM38.016 25.6797L38.3806 24.5791H38.4003V24.5958L38.396 24.5969L38.4003 24.5958V24.5791H38.4118L38.7708 25.6797H38.016ZM38.0618 25.6469H38.7262L38.3959 24.6365L38.0618 25.6469ZM38.3845 24.6006L38.392 24.5979L38.3845 24.6006Z" fill="white"/>
<path fill-rule="evenodd" clip-rule="evenodd" d="M40.8264 26.4367C40.8264 26.5883 40.9319 26.633 41.0538 26.6487C41.2091 26.66 41.3802 26.66 41.5554 26.6407C41.7147 26.6217 41.8513 26.5318 41.9195 26.4367C41.9798 26.3538 42.0141 26.2482 42.0373 26.1653H42.1471C42.1053 26.3804 42.0523 26.5919 42.0067 26.8067C41.6733 26.8067 41.3381 26.7921 41.0045 26.7921C40.67 26.7921 40.3361 26.8067 40.0021 26.8067V26.6933H40.0547C40.1917 26.6933 40.3403 26.6747 40.3403 26.4408V24.5018C40.3403 24.3052 40.1917 24.2863 40.0547 24.2863H40.0021V24.1731C40.203 24.1731 40.4008 24.1881 40.6017 24.1881C40.7958 24.1881 40.9852 24.1731 41.1794 24.1731V24.2863H41.084C40.9396 24.2863 40.8264 24.2903 40.8264 24.4903V26.4367Z" fill="white"/>
<path fill-rule="evenodd" clip-rule="evenodd" d="M42.0069 26.8229C41.672 26.8229 41.3375 26.8078 41.0045 26.8078C40.6704 26.8078 40.3363 26.8229 40.0014 26.8229H39.9854V26.6771H40.0547C40.192 26.6738 40.3223 26.6642 40.3239 26.4409V24.5012C40.3223 24.3175 40.1925 24.3053 40.0547 24.3028H39.9854V24.1567H40.0014C40.2036 24.1567 40.4012 24.1714 40.6015 24.1714C40.7948 24.1714 40.9839 24.1567 41.1794 24.1567H41.1946V24.3028H41.084C40.9366 24.3065 40.8452 24.3 40.8419 24.4903V26.4367C40.8429 26.5778 40.9359 26.6155 41.0546 26.6324C41.1215 26.637 41.1922 26.6394 41.2652 26.6394C41.3581 26.6394 41.4545 26.6351 41.5527 26.6248C41.7073 26.6065 41.8404 26.5177 41.9061 26.4277C41.9648 26.347 41.9978 26.2436 42.0208 26.1615L42.024 26.1491H42.1671L42.1638 26.169C42.1209 26.3846 42.0685 26.5951 42.0225 26.8102L42.0195 26.8229H42.0069ZM41.9929 26.7903C42.0369 26.5854 42.0865 26.385 42.1276 26.1815H42.0493C42.026 26.2636 41.9921 26.3649 41.9326 26.447C41.8616 26.5447 41.721 26.637 41.5563 26.6572C41.457 26.6672 41.3582 26.6724 41.2652 26.6724C41.1916 26.6724 41.1206 26.6691 41.0515 26.6642C40.928 26.6508 40.8086 26.5981 40.8087 26.4367V24.4903C40.8087 24.2806 40.9422 24.2697 41.084 24.2697H41.1622V24.1894C40.9752 24.1906 40.7905 24.2047 40.6015 24.2047C40.4053 24.2047 40.2128 24.1906 40.0185 24.1894V24.2697H40.0547C40.1901 24.2697 40.3558 24.2933 40.3558 24.5012V26.4409C40.3558 26.6851 40.1908 26.7104 40.0547 26.7104H40.0185V26.7903C40.3465 26.7896 40.6748 26.7755 41.0045 26.7755C41.3346 26.7755 41.6642 26.7896 41.9929 26.7903Z" fill="white"/>
<path fill-rule="evenodd" clip-rule="evenodd" d="M42.1009 24.0662C42.33 24.0662 42.5009 24.241 42.5009 24.4643C42.5009 24.6875 42.33 24.8605 42.1009 24.8605C41.8724 24.8605 41.7012 24.6875 41.7012 24.4643C41.7012 24.241 41.8724 24.0662 42.1009 24.0662ZM42.1009 24.7866C42.2803 24.7866 42.4173 24.6351 42.4173 24.4643C42.4173 24.2932 42.2819 24.1406 42.1009 24.1406C41.9209 24.1406 41.7841 24.2932 41.7841 24.4643C41.7841 24.6351 41.9209 24.7866 42.1009 24.7866ZM41.9021 24.6738V24.6546C41.951 24.6476 41.9602 24.6488 41.9602 24.6191V24.3247C41.9602 24.2832 41.956 24.269 41.9037 24.2712V24.251H42.1084C42.1787 24.251 42.2435 24.2844 42.2435 24.3566C42.2435 24.4156 42.2044 24.4595 42.1489 24.4765L42.2147 24.5676C42.2453 24.6087 42.2803 24.6476 42.3027 24.6613V24.6738H42.2249C42.1876 24.6738 42.1545 24.5959 42.0812 24.4912H42.0369V24.6228C42.0369 24.6488 42.0461 24.6476 42.0953 24.6546V24.6738H41.9021ZM42.0369 24.4643H42.0841C42.1357 24.4643 42.1595 24.4256 42.1595 24.3629C42.1595 24.2998 42.1227 24.2774 42.0815 24.2774H42.0369V24.4643Z" fill="white"/>
<path fill-rule="evenodd" clip-rule="evenodd" d="M18.384 10.8535C18.384 7.32443 21.2632 4.46362 24.8149 4.46362C28.3667 4.46362 31.246 7.32443 31.246 10.8535C31.246 14.3825 28.3667 17.2434 24.8149 17.2434C21.2632 17.2434 18.384 14.3825 18.384 10.8535Z" fill="#0069AA"/>
<path fill-rule="evenodd" clip-rule="evenodd" d="M28.7042 10.7276C28.7016 9.09128 27.6722 7.69572 26.2217 7.14304V14.3119C27.6722 13.7585 28.7016 12.3642 28.7042 10.7276ZM23.4545 14.3105V7.14376C22.0052 7.69815 20.9774 9.09171 20.9735 10.7276C20.9774 12.3631 22.0052 13.7565 23.4545 14.3105ZM24.8388 4.66825C21.4708 4.66954 18.7422 7.38125 18.7416 10.7276C18.7422 14.0736 21.4708 16.7849 24.8388 16.7854C28.2068 16.7849 30.936 14.0736 30.9368 10.7276C30.936 7.38125 28.2068 4.66954 24.8388 4.66825ZM24.8239 17.3572C21.1384 17.3747 18.105 14.408 18.105 10.7967C18.105 6.84999 21.1384 4.12014 24.8239 4.12085H26.551C30.1929 4.12014 33.5167 6.8487 33.5167 10.7967C33.5167 14.4067 30.1929 17.3572 26.551 17.3572H24.8239Z" fill="white"/>
</svg>
