<svg width="52" height="31" viewBox="0 0 52 31" fill="none" xmlns="http://www.w3.org/2000/svg">
<rect width="52" height="31" rx="4" fill="#26337A"/>
<path fill-rule="evenodd" clip-rule="evenodd" d="M21.5748 20.4326L23.1736 10.5776H25.7294L24.1306 20.4326H21.5748Z" fill="#FFFFFE"/>
<path fill-rule="evenodd" clip-rule="evenodd" d="M33.4011 10.8195C32.8958 10.6217 32.101 10.406 31.111 10.406C28.5842 10.406 26.8055 11.7434 26.7908 13.6584C26.7747 15.0749 28.06 15.8649 29.029 16.3357C30.0249 16.8183 30.3595 17.1272 30.3555 17.5587C30.3487 18.2187 29.5606 18.5212 28.8258 18.5212C27.8026 18.5212 27.259 18.3723 26.4184 18.0044L26.0897 17.8475L25.7323 20.0534C26.3283 20.3279 27.433 20.5661 28.5796 20.5787C31.265 20.5787 33.0099 19.2575 33.0304 17.2125C33.0396 16.0892 32.3586 15.2378 30.8837 14.5348C29.9905 14.0778 29.4424 13.7751 29.4487 13.3126C29.4492 12.903 29.9117 12.4645 30.9127 12.4645C31.7487 12.4511 32.3539 12.643 32.8254 12.8432L33.0549 12.9559L33.4011 10.8195Z" fill="#FFFFFE"/>
<path fill-rule="evenodd" clip-rule="evenodd" d="M36.8042 16.9386C37.016 16.3721 37.8223 14.1839 37.8223 14.1839C37.8074 14.21 38.033 13.6131 38.162 13.2438L38.3345 14.0937C38.3345 14.0937 38.8249 16.4459 38.9259 16.9386C38.5281 16.9386 37.3033 16.9386 36.8042 16.9386ZM39.9572 10.5876H37.9821C37.3695 10.5876 36.9109 10.762 36.6425 11.4046L32.8471 20.436H35.5315C35.5315 20.436 35.9694 19.2211 36.0688 18.9544C36.3616 18.9544 38.9699 18.9595 39.3423 18.9595C39.4189 19.3034 39.6535 20.436 39.6535 20.436H42.0256L39.9572 10.5876Z" fill="#FFFFFE"/>
<path fill-rule="evenodd" clip-rule="evenodd" d="M19.4307 10.5859L16.9292 17.3046L16.6613 15.9389C16.1951 14.3653 14.744 12.6597 13.1209 11.8051L15.4094 20.424L18.1143 20.4224L22.139 10.5859H19.4307Z" fill="#FFFFFE"/>
<path fill-rule="evenodd" clip-rule="evenodd" d="M14.607 10.5791H10.4856L10.4517 10.7833C13.6587 11.5996 15.7805 13.5701 16.6612 15.9388L15.7656 11.4106C15.6111 10.7861 15.1621 10.6009 14.607 10.5791Z" fill="#EC982D"/>
</svg>
