<svg width="52" height="31" viewBox="0 0 52 31" fill="none" xmlns="http://www.w3.org/2000/svg">
<rect width="52" height="31" rx="4" fill="#B3131B"/>
<rect x="6.76001" y="10.8501" width="39" height="10.85" fill="white"/>
<path fill-rule="evenodd" clip-rule="evenodd" d="M22.4521 25.8265L3.12 25.8333V25.7868C3.12 25.7612 3.15083 25.5953 3.18851 25.418C3.2262 25.2408 3.28478 24.9589 3.3187 24.7916C3.35262 24.6242 3.41062 24.3399 3.44758 24.1597L3.58406 23.4927C3.62216 23.3061 3.68184 23.0112 3.71668 22.8375C3.75153 22.6637 3.80971 22.3794 3.84597 22.2056C3.88223 22.0319 3.94404 21.7317 3.98334 21.5387C4.02264 21.3456 4.08237 21.0507 4.11609 20.8834C4.1498 20.7161 4.20338 20.4581 4.23515 20.31C4.26692 20.162 4.30742 19.9619 4.32515 19.8654C4.34288 19.7689 4.40026 19.4845 4.45266 19.2335C4.50505 18.9826 4.5629 18.6982 4.5812 18.6017C4.59951 18.5052 4.65761 18.2208 4.71032 17.9698C4.76304 17.7188 4.82095 17.4345 4.83901 17.338C4.85707 17.2414 4.9153 16.9571 4.96841 16.7061C5.02152 16.4551 5.07884 16.1761 5.09579 16.086C5.11274 15.9959 5.15916 15.7642 5.19895 15.5711C5.23873 15.378 5.31403 15.0147 5.36626 14.7637C5.41849 14.5127 5.50783 14.0757 5.56478 13.7925C5.62174 13.5094 5.68981 13.1724 5.71604 13.0437C5.74227 12.915 5.78971 12.6833 5.82145 12.5288C5.8532 12.3744 5.91085 12.0953 5.94955 11.9087C5.98826 11.722 6.05125 11.4166 6.08951 11.23C6.12778 11.0434 6.18676 10.7538 6.22056 10.5864C6.25437 10.4191 6.31207 10.14 6.34878 9.96628C6.38549 9.79252 6.44864 9.48712 6.48911 9.28762C6.52958 9.08812 6.59738 8.78272 6.63977 8.60896C6.68216 8.4352 6.74209 8.22458 6.77295 8.14091C6.80381 8.05725 6.889 7.87589 6.96226 7.73789L7.09548 7.48698L7.21658 7.32835C7.28318 7.24111 7.4021 7.10324 7.48083 7.02198C7.55957 6.94073 7.69243 6.81846 7.77607 6.75027C7.85972 6.68209 7.9808 6.59007 8.04514 6.54579C8.10948 6.5015 8.23583 6.42398 8.32591 6.3735C8.41599 6.32303 8.54234 6.25694 8.60668 6.22663C8.67102 6.19632 8.80263 6.141 8.89915 6.1037C8.99566 6.0664 9.17991 6.00388 9.3086 5.96477C9.43728 5.92565 9.67884 5.86669 9.84539 5.83375C10.0119 5.8008 10.2752 5.7568 10.4303 5.73596L10.7124 5.69808L30.0562 5.69072L49.4 5.68335V5.72986C49.4 5.75544 49.369 5.92138 49.331 6.09861C49.2931 6.27584 49.2297 6.57882 49.1902 6.77189C49.1507 6.96495 49.0929 7.24402 49.062 7.39204C49.031 7.54006 48.9723 7.8244 48.9316 8.0239C48.8908 8.22341 48.8282 8.5288 48.7923 8.70257C48.7565 8.87633 48.6984 9.16066 48.6633 9.33442C48.6283 9.50819 48.5699 9.79252 48.5336 9.96628C48.4973 10.14 48.441 10.4138 48.4086 10.5747C48.3761 10.7356 48.3173 11.0252 48.2779 11.2183C48.2386 11.4114 48.1753 11.7168 48.1374 11.897C48.0995 12.0772 48.0417 12.3562 48.009 12.5171L47.8783 13.1607C47.8391 13.3537 47.776 13.6591 47.7381 13.8393C47.7002 14.0195 47.6437 14.2933 47.6125 14.4478C47.5814 14.6023 47.5228 14.8919 47.4823 15.0914C47.4418 15.2909 47.3828 15.5805 47.3511 15.7349C47.3195 15.8894 47.263 16.1632 47.2255 16.3434C47.1881 16.5236 47.1241 16.8342 47.0833 17.0337C47.0425 17.2332 46.9841 17.5176 46.9536 17.6656C46.923 17.8136 46.8658 18.0927 46.8264 18.2858C46.7871 18.4788 46.7244 18.7842 46.6873 18.9644C46.6501 19.1446 46.5918 19.429 46.5577 19.5963C46.5236 19.7636 46.4643 20.0532 46.426 20.2398L46.2869 20.9185L46.1597 21.5387C46.1279 21.6931 46.0699 21.9775 46.0307 22.1705C45.9915 22.3636 45.9277 22.6678 45.8889 22.8466L45.8185 23.1717L45.7346 23.3966C45.6884 23.5203 45.619 23.6846 45.5803 23.7619C45.5417 23.8391 45.4629 23.9753 45.4054 24.0647C45.3478 24.154 45.2675 24.2684 45.227 24.3189C45.1865 24.3695 45.0646 24.5 44.9561 24.609L44.7587 24.8071L44.5688 24.9421C44.4644 25.0163 44.3519 25.0918 44.3189 25.1098C44.2858 25.1278 44.16 25.1921 44.0392 25.2526C43.9185 25.313 43.748 25.39 43.6602 25.4236C43.5725 25.4572 43.3988 25.5144 43.2742 25.5507C43.1496 25.587 43.016 25.6227 42.9774 25.6301C42.9388 25.6375 42.8048 25.6652 42.6796 25.6917C42.5544 25.7183 42.3017 25.7579 42.1181 25.7797L41.7841 25.8196L22.4521 25.8265ZM15.5741 20.8249H16.0771L16.0913 20.7879C16.0992 20.7675 16.1055 20.7197 16.1055 20.6815C16.1055 20.6434 16.1221 20.5047 16.1424 20.3733C16.1627 20.242 16.2102 19.9397 16.2481 19.7016C16.286 19.4635 16.3427 19.1054 16.3741 18.9059C16.4055 18.7064 16.4439 18.451 16.4593 18.3384C16.4748 18.2258 16.4937 18.1336 16.5013 18.1336C16.5089 18.1336 16.5414 18.1834 16.5735 18.2442L16.632 18.3548L16.7617 18.4855L16.8914 18.6162L17.0511 18.6802L17.2107 18.7441L17.401 18.7688L17.5913 18.7934L17.8328 18.7786L18.0744 18.7638L18.3359 18.6961L18.5974 18.6284L18.7378 18.5643C18.815 18.5291 18.9518 18.4522 19.0419 18.3935L19.2057 18.2868L19.3584 18.1342C19.4424 18.0502 19.5608 17.9156 19.6216 17.835C19.6824 17.7544 19.7321 17.6826 19.7321 17.6754C19.7321 17.6682 19.762 17.6183 19.7985 17.5645C19.835 17.5107 19.9097 17.3614 19.9645 17.2327C20.0193 17.1039 20.1049 16.8723 20.1548 16.7178L20.2455 16.437L20.2924 16.1937C20.3181 16.0599 20.3513 15.8388 20.3661 15.7023L20.3929 15.4541L20.3774 15.2435L20.3619 15.0329L20.3131 14.8222L20.2642 14.6116L20.1852 14.4539L20.1062 14.2962L19.9535 14.1344L19.8009 13.9725L19.6203 13.8791L19.4397 13.7858L19.2408 13.7381L19.0419 13.6905L18.843 13.6759L18.6442 13.6613L18.4226 13.6868L18.2011 13.7122L18.0203 13.7584L17.8394 13.8046L17.6823 13.8773C17.596 13.9173 17.4702 13.9853 17.403 14.0283C17.3357 14.0713 17.2664 14.1208 17.2488 14.1383C17.2313 14.1558 17.1893 14.1882 17.1555 14.2103L17.0941 14.2504L17.137 14.0449C17.1607 13.9318 17.1804 13.8262 17.1809 13.8101L17.1818 13.7808H16.7529H16.3239L16.2487 14.2547C16.2073 14.5154 16.142 14.9182 16.1035 15.1499C16.0651 15.3815 16.0071 15.7291 15.9747 15.9221C15.9422 16.1152 15.8844 16.4575 15.8461 16.6827C15.8078 16.908 15.7446 17.266 15.7056 17.4784L15.5785 18.1687L15.4494 18.8708C15.4093 19.0896 15.3448 19.4371 15.3061 19.6431C15.2674 19.849 15.2044 20.1755 15.1661 20.3686C15.1279 20.5616 15.0908 20.7433 15.0838 20.7722L15.071 20.8249H15.5741ZM17.5445 18.1309L17.7398 18.1192L17.9352 18.1074L18.1337 18.0399L18.3323 17.9723L18.418 17.9083C18.4652 17.8731 18.5406 17.8126 18.5857 17.7739C18.6307 17.7353 18.7064 17.6493 18.7539 17.583C18.8014 17.5167 18.8842 17.3791 18.9379 17.2773L19.0355 17.0922L19.1153 16.8636C19.1591 16.7379 19.222 16.5167 19.2551 16.3722L19.3152 16.1094L19.3272 15.6647L19.3392 15.2201L19.3 15.0696C19.2784 14.9869 19.2361 14.8706 19.206 14.8111L19.1513 14.7031L19.0498 14.6011L18.9483 14.499L18.8273 14.4433L18.7063 14.3875L18.5348 14.351L18.3634 14.3144L18.1528 14.3268L17.9422 14.3392L17.7784 14.3899L17.6147 14.4406L17.4891 14.5118C17.4201 14.551 17.3032 14.6333 17.2294 14.6947L17.0953 14.8063L17.0341 15.1302C17.0004 15.3083 16.9404 15.6384 16.9008 15.8636C16.8612 16.0889 16.8017 16.4153 16.7685 16.5891L16.7082 16.905L16.6963 17.1067L16.6843 17.3084L16.7141 17.4344C16.7305 17.5036 16.7675 17.6129 16.7962 17.6773L16.8485 17.7943L16.9391 17.8808L17.0297 17.9674L17.1594 18.0266L17.2891 18.0858L17.4168 18.1084L17.5445 18.1309ZM22.5983 18.7625L22.8557 18.7655L23.1131 18.742C23.2546 18.7291 23.4862 18.7022 23.6278 18.6822C23.7694 18.6623 24.0139 18.6177 24.1712 18.583L24.4572 18.5201L24.4715 18.4146C24.4793 18.3566 24.5115 18.1839 24.5429 18.0309L24.6 17.7526L24.5874 17.74L24.5748 17.7274L24.4874 17.7697C24.4393 17.7929 24.2895 17.8483 24.1545 17.8928L23.909 17.9737L23.6514 18.0236L23.3938 18.0735L22.9844 18.0743L22.5749 18.0751L22.4345 18.0303C22.3573 18.0056 22.2438 17.9605 22.1822 17.93L22.0702 17.8746L21.9778 17.7911L21.8854 17.7075L21.8133 17.5815L21.7411 17.4554L21.6959 17.2973L21.6507 17.1392L21.6504 16.8466L21.6501 16.554L21.6902 16.293L21.7304 16.0319L22.0824 16.0155L22.4345 15.999L23.736 16.0074L25.0375 16.0157L25.0768 15.849C25.0985 15.7573 25.1315 15.5677 25.1503 15.4278L25.1844 15.1733L25.1851 14.9592L25.1859 14.7451L25.1488 14.5853L25.1117 14.4254L25.0505 14.3196C25.0168 14.2614 24.9574 14.177 24.9185 14.1321C24.8796 14.0873 24.8102 14.024 24.7643 13.9915C24.7183 13.959 24.628 13.9045 24.5637 13.8703L24.4467 13.808L24.2423 13.7588L24.0379 13.7095L23.7861 13.6854L23.5342 13.6613L23.3002 13.6766L23.0663 13.6918L22.7855 13.7457L22.5047 13.7997L22.3292 13.8698C22.2327 13.9084 22.0853 13.9788 22.0017 14.0262C21.918 14.0737 21.8022 14.1509 21.7443 14.1978C21.6864 14.2447 21.5861 14.336 21.5215 14.4006C21.4569 14.4652 21.3613 14.5812 21.309 14.6584C21.2568 14.7356 21.1768 14.8725 21.1312 14.9626C21.0855 15.0527 21.0261 15.1791 20.999 15.2435C20.972 15.3078 20.9229 15.4395 20.8899 15.536C20.8569 15.6325 20.805 15.8168 20.7745 15.9455C20.7441 16.0742 20.7025 16.2861 20.6819 16.4164L20.6446 16.6532L20.645 17.0014L20.6453 17.3497L20.6809 17.5018C20.7005 17.5854 20.7379 17.7118 20.764 17.7826C20.7901 17.8534 20.8385 17.9587 20.8714 18.0166C20.9044 18.0746 20.9748 18.1678 21.0278 18.2239C21.0809 18.2799 21.1769 18.365 21.2413 18.4129C21.3056 18.4608 21.4202 18.5282 21.4958 18.5626L21.6334 18.6253L21.8252 18.6716C21.9307 18.6972 22.0899 18.7274 22.179 18.7388C22.2681 18.7502 22.4568 18.7609 22.5983 18.7625ZM21.8613 15.4555C21.8613 15.4612 22.3913 15.4658 23.039 15.4658H24.2168L24.2415 15.2376L24.2662 15.0095L24.2446 14.8723L24.223 14.7352L24.1903 14.6734C24.1723 14.6394 24.1254 14.5769 24.086 14.5344L24.0143 14.4571L23.8838 14.3973L23.7532 14.3375L23.5735 14.3144L23.3938 14.2914L23.1599 14.3063C23.0312 14.3145 22.8838 14.3321 22.8323 14.3453C22.7808 14.3586 22.6703 14.4021 22.5866 14.4421L22.4345 14.5149L22.2798 14.6688L22.125 14.8228L22.0546 14.9629C22.0158 15.04 21.9565 15.18 21.9227 15.2741C21.8889 15.3682 21.8613 15.4498 21.8613 15.4555ZM30.0392 18.7626L30.2963 18.7655L30.5886 18.7308C30.7494 18.7118 30.9634 18.6802 31.0642 18.6607C31.165 18.6411 31.3282 18.6023 31.4269 18.5745C31.5256 18.5466 31.6148 18.5164 31.6252 18.5075C31.6357 18.4985 31.6636 18.3923 31.6872 18.2715C31.7108 18.1506 31.7406 17.9885 31.7534 17.9113C31.7661 17.8341 31.7727 17.7668 31.768 17.7617C31.7633 17.7567 31.7461 17.7632 31.7297 17.7762C31.7133 17.7892 31.5985 17.8376 31.4746 17.8836L31.2493 17.9673L30.9284 18.0295L30.6076 18.0916L30.3348 18.0823L30.062 18.073L29.9071 18.0193L29.7522 17.9655L29.6324 17.8608L29.5127 17.756L29.4333 17.6114L29.3539 17.4667L29.3161 17.2731L29.2782 17.0796L29.2785 16.8285L29.2787 16.5774L29.3247 16.2732L29.3706 15.9689L29.4193 15.8051C29.446 15.715 29.4763 15.6097 29.4865 15.5711C29.4968 15.5325 29.5397 15.4219 29.5819 15.3254C29.6241 15.2288 29.6994 15.0796 29.7492 14.9938L29.8397 14.8378L29.951 14.7225L30.0622 14.6072L30.18 14.5342L30.2978 14.4611L30.4491 14.4145C30.5323 14.3889 30.6793 14.3556 30.7758 14.3405L30.9513 14.3132L31.2087 14.3261L31.4661 14.339L31.7702 14.3999L32.0744 14.4608L32.1981 14.507C32.2661 14.5323 32.3248 14.5531 32.3284 14.5531C32.3321 14.5531 32.3484 14.4662 32.3647 14.36C32.381 14.2539 32.41 14.0792 32.4292 13.9718C32.4484 13.8645 32.4594 13.772 32.4538 13.7664C32.4481 13.7607 32.3567 13.7462 32.2506 13.7341C32.1445 13.722 31.8561 13.7005 31.6098 13.6864L31.1619 13.6606L30.846 13.6849L30.5302 13.7091L30.2962 13.7583L30.0622 13.8075L29.9115 13.8677C29.8287 13.9009 29.7073 13.9607 29.6418 14.0007C29.5763 14.0407 29.4929 14.0944 29.4565 14.1202C29.4201 14.1459 29.3097 14.2463 29.2111 14.3434L29.0319 14.5197L28.9319 14.6663C28.8769 14.7469 28.7817 14.9151 28.7204 15.0399L28.6089 15.2669L28.5235 15.5126C28.4765 15.6477 28.4109 15.8689 28.3777 16.004L28.3173 16.2498L28.2954 16.4721L28.2735 16.6944L28.2738 16.9869L28.274 17.2795L28.2961 17.4496L28.3182 17.6198L28.3883 17.7949L28.4583 17.9699L28.5393 18.0965L28.6202 18.223L28.7489 18.3497L28.8777 18.4764L29.0138 18.5484L29.1499 18.6204L29.3288 18.6701C29.4272 18.6974 29.5693 18.7288 29.6447 18.7398C29.72 18.7508 29.8976 18.7611 30.0392 18.7626ZM33.8877 18.754L33.8875 18.754L33.5718 18.763L33.434 18.7413C33.3582 18.7293 33.2241 18.6992 33.136 18.6742L32.9759 18.6289L32.8359 18.5438L32.696 18.4588L32.6172 18.3668C32.5739 18.3162 32.51 18.2224 32.4751 18.1583L32.4118 18.0419L32.3776 17.8634L32.3435 17.6849V17.4705V17.2561L32.3792 17.0517L32.4149 16.8473L32.4928 16.6655C32.5357 16.5656 32.6063 16.4311 32.6497 16.3668C32.6932 16.3024 32.792 16.1866 32.8694 16.1093L33.0101 15.9688L33.1888 15.8577C33.2871 15.7966 33.3772 15.7466 33.3891 15.7466C33.401 15.7466 33.4546 15.7254 33.5082 15.6996C33.5617 15.6737 33.7295 15.6185 33.8811 15.5769L34.1566 15.5014L34.9985 15.4983L35.8403 15.4953L35.8807 15.2992L35.921 15.1031L35.922 14.9243L35.9231 14.7456L35.8471 14.6322L35.771 14.5189L35.6352 14.4518L35.4994 14.3848L35.296 14.3491L35.0925 14.3135L34.7766 14.3265L34.4608 14.3395L34.1098 14.3993C33.9168 14.4322 33.6599 14.4857 33.539 14.5182C33.4181 14.5508 33.3157 14.574 33.3116 14.5699C33.3074 14.5657 33.3341 14.447 33.3707 14.3061C33.4074 14.1652 33.45 13.9894 33.4653 13.9154L33.4931 13.7808L33.6845 13.7801L33.8758 13.7794L34.1566 13.7453C34.311 13.7265 34.6129 13.7003 34.8273 13.687L35.2172 13.6629L35.5199 13.6859L35.8227 13.709L36.0425 13.7579L36.2624 13.8068L36.4099 13.8816L36.5574 13.9564L36.6473 14.0426L36.7371 14.1289L36.8034 14.2644L36.8697 14.3998L36.8676 14.6929L36.8654 14.986L36.8026 15.3254C36.7681 15.512 36.7096 15.8332 36.6727 16.0391C36.6357 16.2451 36.5787 16.5715 36.5459 16.7646C36.513 16.9577 36.4586 17.3105 36.4249 17.5486L36.3636 17.9815L36.3505 18.315L36.3374 18.6485H35.908H35.4785L35.479 18.5022C35.4792 18.4218 35.4943 18.2508 35.5125 18.1223C35.5307 17.9938 35.5425 17.8856 35.5388 17.8818C35.535 17.8781 35.4899 17.9305 35.4387 17.9985C35.3874 18.0664 35.2938 18.1731 35.2306 18.2357C35.1675 18.2983 35.058 18.3882 34.9872 18.4355C34.9164 18.4827 34.8006 18.5488 34.7298 18.5823L34.6011 18.6431L34.4023 18.694L34.2034 18.7449L33.8877 18.754ZM34.18 18.0996L33.9928 18.1094L33.8689 18.0778C33.8007 18.0604 33.6972 18.0217 33.639 17.9917L33.533 17.9372L33.4752 17.8685C33.4434 17.8307 33.3948 17.7564 33.3672 17.7034L33.3171 17.6071L33.3073 17.3821L33.2974 17.1572L33.3371 17.0207C33.3589 16.9457 33.4101 16.8154 33.4508 16.7313L33.5249 16.5783L33.6667 16.4375L33.8086 16.2966L33.9592 16.224L34.1098 16.1515L34.297 16.107L34.4842 16.0625H35.0691H35.6541L35.6911 16.0779L35.7281 16.0932L35.6969 16.2768C35.6798 16.3778 35.6389 16.5604 35.6061 16.6827C35.5733 16.805 35.5154 16.9847 35.4774 17.0821C35.4395 17.1796 35.4084 17.2657 35.4084 17.2735C35.4084 17.2814 35.3699 17.3524 35.3229 17.4313L35.2375 17.5747L35.0972 17.7138C35.02 17.7903 34.9484 17.8528 34.938 17.8528C34.9276 17.8528 34.8803 17.8792 34.8329 17.9113L34.7467 17.9699L34.5569 18.0299L34.3672 18.0899L34.18 18.0996ZM42.0181 18.7652L41.7958 18.7624H41.7958C41.6736 18.7608 41.5083 18.7511 41.4285 18.7407C41.3487 18.7303 41.2171 18.7036 41.136 18.6814C41.0549 18.6592 40.9254 18.6096 40.8482 18.5713L40.7078 18.5016L40.605 18.4173L40.5021 18.333L40.4121 18.2111L40.322 18.0891L40.2726 17.9651C40.2454 17.8969 40.2091 17.7937 40.1919 17.7358L40.1605 17.6305L40.134 17.338L40.1075 17.0454L40.1428 16.6819L40.1781 16.3183L40.2497 16.0383C40.2891 15.8843 40.3493 15.6846 40.3833 15.5945C40.4174 15.5044 40.5026 15.3116 40.5725 15.166L40.6997 14.9013L40.808 14.7463C40.8675 14.6611 40.9799 14.5231 41.0577 14.4397L41.1992 14.288L41.363 14.1667L41.5267 14.0455L41.749 13.937L41.9713 13.8286L42.2053 13.7694L42.4392 13.7103L42.6966 13.6863L42.954 13.6623L43.2581 13.686L43.5623 13.7097L43.7846 13.7655C43.9068 13.7962 44.0246 13.8289 44.0464 13.8381L44.0859 13.855L44.0984 13.7769C44.1052 13.734 44.1422 13.5094 44.1807 13.2777C44.2191 13.046 44.2822 12.6564 44.3209 12.4118C44.3597 12.1673 44.398 11.9014 44.4061 11.8209L44.4209 11.6746H44.9217H45.4224V11.6922C45.4225 11.7018 45.397 11.8309 45.3659 11.9789C45.3348 12.1269 45.2769 12.4165 45.2373 12.6224C45.1977 12.8284 45.138 13.1443 45.1047 13.3245L44.9769 14.0149C44.9399 14.2144 44.8779 14.5514 44.8392 14.7637C44.8005 14.9761 44.7426 15.3026 44.7105 15.4892C44.6785 15.6758 44.6297 15.9549 44.6022 16.1094C44.5747 16.2638 44.5267 16.5587 44.4957 16.7646C44.4646 16.9706 44.4078 17.4076 44.3693 17.7358L44.2994 18.3326V18.4905V18.6485H43.8404H43.3814L43.3969 18.4905C43.4054 18.4036 43.4216 18.2799 43.4329 18.2155C43.4442 18.1512 43.4588 18.0459 43.4653 17.9815L43.4771 17.8645L43.4635 17.8996C43.456 17.9189 43.3927 18.0111 43.3227 18.1044L43.1956 18.274L43.0748 18.3804L42.954 18.4867L42.8136 18.5586C42.7364 18.5982 42.6206 18.6455 42.5563 18.6637C42.4919 18.6819 42.3445 18.7122 42.2287 18.731L42.0181 18.7652ZM42.1948 18.0984L42.0181 18.1078L41.8989 18.0863C41.8333 18.0745 41.7284 18.0429 41.6657 18.016L41.5517 17.9671L41.4558 17.8885L41.3599 17.8099L41.2886 17.6734L41.2174 17.5369L41.1849 17.3848L41.1524 17.2327L41.1552 16.9284L41.1579 16.6242L41.1956 16.3551L41.2334 16.086L41.292 15.8987C41.3242 15.7958 41.3508 15.6986 41.3509 15.6828C41.3512 15.6671 41.383 15.5828 41.4217 15.4956C41.4604 15.4084 41.5251 15.2739 41.5654 15.1967C41.6058 15.1194 41.6812 14.9991 41.733 14.9291C41.7848 14.8592 41.8771 14.7539 41.9381 14.6951C41.9991 14.6363 42.0962 14.5592 42.1538 14.5237L42.2585 14.4593L42.4425 14.3956L42.6265 14.3319L43.0125 14.3317H43.3986L43.6208 14.3934C43.7431 14.4273 43.8729 14.4666 43.9093 14.4808L43.9755 14.5065L43.9626 14.5708C43.9554 14.6061 43.9276 14.7614 43.9008 14.9158C43.8739 15.0703 43.8209 15.3652 43.7831 15.5711C43.7452 15.777 43.687 16.0877 43.6538 16.2615C43.6206 16.4352 43.5724 16.6564 43.5468 16.7529C43.5212 16.8494 43.4851 16.9832 43.4666 17.05C43.448 17.1169 43.4039 17.2328 43.3685 17.3075C43.333 17.3822 43.271 17.4907 43.2307 17.5486C43.1904 17.6065 43.1221 17.6867 43.0791 17.7269C43.036 17.767 42.9429 17.8384 42.8721 17.8854L42.7434 17.971L42.5574 18.03L42.3715 18.089L42.1948 18.0984ZM7.75967 18.6485H7.75965H7.19117V18.6105C7.19117 18.5896 7.21829 18.4395 7.25142 18.277C7.28455 18.1145 7.32077 17.9289 7.3319 17.8645C7.34303 17.8002 7.37806 17.6211 7.40975 17.4667C7.44144 17.3122 7.50047 17.0121 7.54094 16.7997C7.58141 16.5873 7.63942 16.2819 7.66987 16.1211C7.70032 15.9602 7.7576 15.6495 7.79716 15.4307C7.83673 15.2119 7.90094 14.8328 7.93986 14.5882L8.06834 13.7808C8.10009 13.5813 8.15837 13.218 8.19784 12.9735C8.23732 12.7289 8.28002 12.4604 8.29274 12.3767C8.30545 12.293 8.33238 12.1324 8.35258 12.0198L8.3893 11.8151H8.96261H9.53592L9.52169 11.8521C9.51386 11.8725 9.48627 12.0095 9.46037 12.1564C9.43447 12.3033 9.39722 12.4999 9.3776 12.5932C9.35797 12.6865 9.33162 12.8366 9.31906 12.9267C9.30649 13.0168 9.26945 13.2326 9.23676 13.4064C9.20406 13.5802 9.157 13.8224 9.13217 13.9447C9.10734 14.0669 9.07155 14.2561 9.05264 14.365C9.03372 14.4739 9.0204 14.5648 9.02305 14.5671C9.0257 14.5693 9.34766 14.5788 9.73852 14.588L10.4492 14.6049L11.2976 14.5877L12.1461 14.5706L12.185 14.3103C12.2065 14.1671 12.2555 13.8604 12.2939 13.6287C12.3324 13.397 12.3893 13.0653 12.4205 12.8916C12.4517 12.7178 12.498 12.4545 12.5235 12.3065C12.549 12.1585 12.5769 11.9874 12.5856 11.9262L12.6013 11.8151H13.1793H13.7572L13.7178 11.9847C13.6961 12.078 13.6457 12.3334 13.6058 12.5522C13.5659 12.771 13.5066 13.0975 13.4741 13.2777C13.4416 13.4579 13.3831 13.7791 13.344 13.9915C13.3049 14.2038 13.242 14.5408 13.2042 14.7403C13.1665 14.9398 13.1094 15.2558 13.0774 15.4424C13.0453 15.629 12.9868 15.9765 12.9474 16.2147C12.908 16.4528 12.8449 16.8266 12.8073 17.0454C12.7696 17.2643 12.7174 17.5697 12.6912 17.7241C12.6651 17.8786 12.6327 18.0839 12.6193 18.1804C12.6059 18.277 12.5835 18.4218 12.5696 18.5022L12.5444 18.6485H11.9735H11.4027L11.4025 18.6192C11.4024 18.6031 11.4395 18.3846 11.4849 18.1336C11.5304 17.8827 11.5928 17.5457 11.6237 17.3848C11.6545 17.2239 11.7127 16.9132 11.7529 16.6944C11.7931 16.4756 11.8572 16.1281 11.8953 15.9221C11.9334 15.7162 11.9766 15.4869 11.9911 15.4126L12.0177 15.2774L12.0007 15.2604L11.9837 15.2435H10.4551H8.92645L8.91334 15.2566C8.90613 15.2638 8.87478 15.4112 8.84369 15.5842C8.8126 15.7572 8.76015 16.0567 8.72714 16.2498C8.69412 16.4428 8.63466 16.7956 8.59499 17.0337L8.4663 17.806C8.43518 17.9926 8.39137 18.2586 8.36894 18.3969L8.32815 18.6485H7.75967ZM14.053 18.6485H14.5563L14.5705 18.6115C14.5783 18.5911 14.5847 18.5377 14.5847 18.4928C14.5847 18.4479 14.6164 18.2144 14.655 17.974C14.6937 17.7336 14.7576 17.3421 14.7971 17.1039C14.8365 16.8658 14.8947 16.5183 14.9265 16.3317C14.9582 16.145 15.0147 15.8344 15.0519 15.6413C15.0892 15.4482 15.1464 15.1481 15.179 14.9743C15.2116 14.8006 15.2758 14.47 15.3217 14.2397C15.3675 14.0094 15.4107 13.8118 15.4177 13.8005L15.4304 13.7799L14.9214 13.7862L14.4125 13.7925L14.3701 14.0968C14.3468 14.2641 14.2958 14.5958 14.2568 14.8339C14.2178 15.0721 14.1589 15.4354 14.1258 15.6413C14.0927 15.8472 14.035 16.179 13.9976 16.3785L13.8701 17.0571C13.8374 17.2309 13.7788 17.5363 13.7398 17.7358C13.7008 17.9353 13.6485 18.1986 13.6235 18.3209C13.5986 18.4431 13.5718 18.5669 13.564 18.5958L13.5498 18.6485H14.053ZM26.3232 18.6485H25.8236V18.6485H25.3241V18.6279C25.3241 18.6167 25.339 18.535 25.3572 18.4466C25.3754 18.3581 25.4225 18.1225 25.4619 17.923C25.5013 17.7235 25.5648 17.397 25.6031 17.1975C25.6414 16.998 25.6994 16.6926 25.7321 16.5189C25.7648 16.3451 25.8229 16.0134 25.8611 15.7817C25.8993 15.55 25.9573 15.192 25.99 14.986C26.0226 14.7801 26.0757 14.4501 26.1079 14.2526C26.1401 14.0552 26.1664 13.8683 26.1664 13.8372V13.7808H26.6125H27.0586L27.0462 13.8218C27.0394 13.8443 27.0118 13.9891 26.9849 14.1436C26.958 14.298 26.9268 14.4665 26.9156 14.518L26.8953 14.6116L26.9288 14.5648C26.9472 14.5391 27.0165 14.4443 27.0827 14.3542C27.1489 14.2641 27.2544 14.14 27.3171 14.0785C27.3799 14.017 27.4881 13.9302 27.5577 13.8856C27.6273 13.8411 27.7402 13.7841 27.8086 13.759C27.877 13.7339 28.0013 13.7012 28.085 13.6864L28.2371 13.6595L28.354 13.6739C28.4184 13.6819 28.5474 13.7116 28.6407 13.74C28.734 13.7684 28.8103 13.7982 28.8103 13.8064C28.8103 13.8145 28.784 13.9505 28.7518 14.1085C28.7196 14.2664 28.6933 14.4206 28.6933 14.451C28.6933 14.4814 28.687 14.5063 28.6794 14.5063C28.6717 14.5063 28.6059 14.4885 28.5331 14.4667L28.4008 14.4272L28.1318 14.4258L27.8627 14.4244L27.6867 14.5085L27.5106 14.5926L27.3679 14.7248L27.2251 14.857L27.1185 15.0151C27.0598 15.1021 26.9743 15.2549 26.9284 15.3547C26.8825 15.4545 26.8449 15.5506 26.8449 15.5683C26.8449 15.5859 26.8292 15.6448 26.8101 15.6991C26.7909 15.7535 26.7341 16.0049 26.6838 16.2579C26.6336 16.5108 26.5602 16.9179 26.5207 17.1625C26.4811 17.407 26.4273 17.7463 26.401 17.9164C26.3747 18.0865 26.3464 18.3208 26.3382 18.4371L26.3232 18.6485ZM37.6819 18.6485H38.1926V18.4921V18.3358L38.2515 17.948C38.2839 17.7348 38.3373 17.3971 38.3702 17.1976C38.4031 16.9981 38.4441 16.7453 38.4613 16.6359C38.4785 16.5265 38.5242 16.2896 38.5627 16.1094C38.6013 15.9292 38.6495 15.7343 38.6698 15.6764C38.6901 15.6185 38.7069 15.5577 38.707 15.5414C38.7073 15.525 38.7508 15.4199 38.8038 15.3077L38.9002 15.1038L39.0274 14.9347L39.1546 14.7657L39.2938 14.661C39.3704 14.6035 39.4935 14.5271 39.5674 14.4913L39.7018 14.4262L39.9942 14.4282L40.2867 14.4302L40.4018 14.4672L40.517 14.5041L40.5364 14.4922L40.5558 14.4802L40.5568 14.4055C40.5573 14.3644 40.5823 14.2116 40.6124 14.0659L40.6671 13.8009L40.6056 13.7769C40.5718 13.7636 40.4914 13.7362 40.4271 13.7159L40.3101 13.6791L40.0995 13.6796L39.889 13.6802L39.7174 13.7405L39.5457 13.8009L39.4169 13.8786L39.288 13.9564L39.1205 14.1319L38.953 14.3074L38.863 14.4436C38.8135 14.5184 38.7699 14.5764 38.7661 14.5723C38.7624 14.5682 38.7893 14.4121 38.8259 14.2255C38.8626 14.0389 38.893 13.8625 38.8936 13.8335L38.8946 13.7808H38.4617H38.0289V13.7958C38.0289 13.804 38.0073 13.954 37.9809 14.1292C37.9545 14.3045 37.9016 14.6426 37.8632 14.8808C37.8249 15.1189 37.762 15.5032 37.7234 15.7349C37.6848 15.9666 37.6267 16.2983 37.5942 16.4721C37.5617 16.6459 37.504 16.9513 37.466 17.1508C37.428 17.3503 37.3655 17.6715 37.3271 17.8645L37.2143 18.432L37.1711 18.6485L37.6819 18.6485ZM15.1847 12.9384L15.0426 12.9378L14.9006 12.9373L14.8025 12.8928L14.7044 12.8483L14.6536 12.7486L14.6028 12.649L14.6131 12.4485L14.6234 12.248L14.678 12.1193L14.7326 11.9906L14.8021 11.9161L14.8716 11.8416L14.9914 11.7879L15.1112 11.7343L15.2871 11.7343H15.463L15.5444 11.7848L15.6259 11.8352L15.6727 11.9129L15.7195 11.9906L15.7176 12.1895L15.7157 12.3884L15.6631 12.5235L15.6104 12.6586L15.5105 12.76L15.4106 12.8614L15.2976 12.8999L15.1847 12.9384Z" fill="#B3131B"/>
</svg>
