<svg width="15" height="15" viewBox="0 0 15 15" fill="none" xmlns="http://www.w3.org/2000/svg">
<path d="M0 4C0 1.79086 1.79086 0 4 0H11C13.2091 0 15 1.79086 15 4V11C15 13.2091 13.2091 15 11 15H4C1.79086 15 0 13.2091 0 11V4Z" fill="white"/>
<path d="M8.4375 8.4375H6.5625C4.664 8.4375 3.125 9.9765 3.125 11.875C3.125 12.2202 3.4048 12.5 3.75 12.5H11.25C11.5952 12.5 11.875 12.2202 11.875 11.875C11.875 9.9765 10.336 8.4375 8.4375 8.4375ZM4.08191 11.5625C4.23623 10.331 5.28984 9.375 6.5625 9.375H8.4375C9.71016 9.375 10.7638 10.331 10.9181 11.5625H4.08191ZM7.5 7.5C8.88072 7.5 10 6.38068 10 5C10 3.61928 8.88072 2.5 7.5 2.5C6.11928 2.5 5 3.61928 5 5C5 6.38068 6.11928 7.5 7.5 7.5ZM7.5 3.4375C8.36154 3.4375 9.0625 4.13842 9.0625 5C9.0625 5.86154 8.36154 6.5625 7.5 6.5625C6.63846 6.5625 5.9375 5.86154 5.9375 5C5.9375 4.13842 6.63846 3.4375 7.5 3.4375Z" fill="#006E3E"/>
</svg>
