<svg width="44" height="45" viewBox="0 0 44 45" fill="none" xmlns="http://www.w3.org/2000/svg">
<g id="instagram">
<circle id="Oval" cx="22" cy="22.9448" r="22" fill="url(#paint0_linear_10_2705)"/>
<g id="instagram_2">
<path id="Shape" fill-rule="evenodd" clip-rule="evenodd" d="M25.5849 30.9448H18.4151C15.9804 30.9448 14 28.9644 14 26.5297V19.3599C14 16.9253 15.9804 14.9448 18.4151 14.9448H25.5849C28.0196 14.9448 30 16.9253 30 19.3599V26.5297C30 28.9644 28.0196 30.9448 25.5849 30.9448ZM28.5804 26.5297V19.3599C28.5804 17.7084 27.2364 16.3644 25.5849 16.3644H18.4151C16.7636 16.3644 15.4196 17.7084 15.4196 19.3599V26.5297C15.4196 28.1813 16.7636 29.5253 18.4151 29.5253H25.5849C27.2364 29.5253 28.5804 28.1813 28.5804 26.5297ZM26.296 19.7004C26.0222 19.7004 25.7538 19.5893 25.56 19.3955C25.3662 19.2017 25.2542 18.9333 25.2542 18.6595C25.2542 18.3848 25.3662 18.1164 25.56 17.9235C25.7538 17.7288 26.0222 17.6186 26.296 17.6186C26.5698 17.6186 26.8391 17.7288 27.032 17.9235C27.2258 18.1164 27.3369 18.3848 27.3369 18.6595C27.3369 18.9333 27.2258 19.2017 27.032 19.3955C26.8382 19.5893 26.5698 19.7004 26.296 19.7004ZM22 27.0675C19.7262 27.0675 17.8773 25.2186 17.8773 22.9448C17.8773 20.6719 19.7262 18.8222 22 18.8222C24.2729 18.8222 26.1227 20.6719 26.1227 22.9448C26.1227 25.2186 24.2729 27.0675 22 27.0675ZM22 20.2417C20.5093 20.2417 19.2969 21.4542 19.2969 22.9448C19.2969 24.4355 20.5093 25.6479 22 25.6479C23.4907 25.6479 24.7031 24.4355 24.7031 22.9448C24.7031 21.4542 23.4907 20.2417 22 20.2417Z" fill="white"/>
</g>
</g>
<defs>
<linearGradient id="paint0_linear_10_2705" x1="-13.9601" y1="23.2348" x2="22.208" y2="60.5641" gradientUnits="userSpaceOnUse">
<stop stop-color="#5B6AD9"/>
<stop offset="0.223758" stop-color="#954DC0"/>
<stop offset="0.719657" stop-color="#C33E9F"/>
<stop offset="1" stop-color="#FBC571"/>
</linearGradient>
</defs>
</svg>
