<svg width="25" height="25" viewBox="0 0 25 25" fill="none" xmlns="http://www.w3.org/2000/svg">
<path d="M23.4026 15.9322L18.8175 13.9664C17.8178 13.5331 16.6397 13.8213 15.9599 14.6645L14.6787 16.2287C12.5878 15.0263 10.8364 13.2754 9.63597 11.228L11.2025 9.94487C12.0387 9.26224 12.3273 8.09121 11.9038 7.09434L9.92733 2.44896C9.45294 1.36571 8.27724 0.774595 7.13189 1.03934L2.87126 2.02267C1.75626 2.27761 0.976501 3.25673 0.976501 4.40349C0.976501 15.6982 10.1608 24.8825 21.4555 24.8825C22.6023 24.8825 23.5814 24.1032 23.7948 22.9901L24.7781 18.7253C25.0882 17.5757 24.4905 16.3991 23.4026 15.9322ZM22.6368 18.2201L21.6521 22.4882C21.6302 22.5395 21.5536 22.6414 21.4551 22.6414C11.3977 22.6414 3.21729 14.461 3.21729 4.40353C3.21729 4.30576 3.27785 4.22918 3.37343 4.20729L7.63826 3.22302C7.65285 3.21938 7.66817 3.21791 7.68276 3.21791C7.76373 3.21791 7.8396 3.2668 7.87172 3.33973L9.83932 7.93094C9.87434 8.0134 9.85099 8.10968 9.78095 8.1673L7.50402 9.99297C7.1013 10.3227 6.97874 10.8866 7.20781 11.3536C8.74911 14.4927 11.3288 17.0733 14.4684 18.6141C14.8933 18.8432 15.4998 18.7207 15.8299 18.3179L17.6981 16.0361C17.7498 15.9705 17.8469 15.9456 17.9279 15.9836L22.5158 17.9488C22.6042 18.0286 22.6555 18.1267 22.6368 18.2201Z" fill="#83AF38"/>
</svg>
