<svg width="71" height="25" viewBox="0 0 71 25" fill="none" xmlns="http://www.w3.org/2000/svg">
<path d="M33.8013 3.78813L38.0353 3.79513C40.8763 3.80013 43.1823 6.07913 43.2353 8.90813V12.0571C43.2353 14.9071 40.9513 17.2231 38.1153 17.2751H32.0363C31.7923 17.2751 31.5943 17.0781 31.5943 16.8341C31.5943 16.6041 31.7693 16.4161 31.9933 16.3941L32.0363 16.3921H38.0173C40.3802 16.3921 42.3023 14.5021 42.3513 12.1501L42.3523 12.0571V9.00613C42.3523 6.65013 40.4703 4.73313 38.1273 4.67913L38.0333 4.67813L33.8013 4.67113C31.4383 4.67113 29.5163 6.56213 29.4673 8.91313L29.4663 9.00613V23.3441C29.4663 23.5871 29.2683 23.7851 29.0243 23.7851C28.7943 23.7851 28.6063 23.6101 28.5843 23.3861L28.5833 23.3441V9.00613C28.5833 6.15613 30.8673 3.84113 33.7043 3.78913H33.8013V3.78813ZM45.8133 3.78613C47.1153 3.78613 48.1753 4.82213 48.2133 6.11513L48.2153 6.18813V16.8981C48.2153 17.1421 48.0173 17.3401 47.7733 17.3401C47.5433 17.3401 47.3553 17.1641 47.3333 16.9401L47.3323 16.8981V6.18813C47.3323 5.37113 46.6863 4.70413 45.8773 4.67113L45.8133 4.66913H43.9773C43.7333 4.66913 43.5353 4.47213 43.5353 4.22813C43.5353 3.99813 43.7103 3.81013 43.9353 3.78813L43.9773 3.78613H45.8133Z" fill="#939598"/>
<path d="M47.3803 2.56925L46.5473 1.73625C46.3403 1.52925 46.3403 1.19425 46.5473 0.98725L47.3793 0.15525C47.5863 -0.05175 47.9223 -0.05175 48.1293 0.15525L48.9613 0.98725C49.1673 1.19425 49.1673 1.52925 48.9613 1.73625L48.1283 2.56925C47.9213 2.77525 47.5863 2.77525 47.3803 2.56925Z" fill="#32BCAD"/>
<path d="M53.1172 3.77734C54.1352 3.77734 55.1122 4.16734 55.8492 4.86534L55.9272 4.94134L60.1872 9.20034C60.5522 9.56534 61.1362 9.57934 61.5172 9.24034L61.5602 9.20034L65.8042 4.95634C66.5242 4.23634 67.4912 3.82234 68.5042 3.79434L68.6142 3.79234H70.0942C70.3382 3.79234 70.5362 3.99034 70.5362 4.23434C70.5362 4.46434 70.3612 4.65234 70.1362 4.67434L70.0942 4.67534H68.6142C67.8282 4.67534 67.0742 4.97534 66.5022 5.50934L66.4282 5.58134L62.1852 9.82434C61.4782 10.5313 60.3452 10.5483 59.6172 9.87734L59.5622 9.82434L55.3022 5.56534C54.7472 5.01034 54.0022 4.68734 53.2192 4.66134L53.1172 4.66034H51.2972C51.0522 4.66034 50.8552 4.46234 50.8552 4.21834C50.8552 3.98834 51.0302 3.80034 51.2542 3.77834L51.2962 3.77734H53.1172Z" fill="#939598"/>
<path d="M59.5622 11.1982C60.2682 10.4922 61.4022 10.4742 62.1292 11.1452L62.1852 11.1982L66.4282 15.4422C66.9842 15.9972 67.7292 16.3202 68.5122 16.3452L68.6142 16.3472H70.0942C70.3382 16.3472 70.5362 16.5452 70.5362 16.7892C70.5362 17.0192 70.3612 17.2072 70.1362 17.2292L70.0942 17.2302H68.6142C67.5962 17.2302 66.6192 16.8402 65.8822 16.1422L65.8042 16.0662L61.5602 11.8232C61.1952 11.4572 60.6112 11.4432 60.2302 11.7822L60.1862 11.8222L55.9272 16.0822C55.2072 16.8022 54.2402 17.2172 53.2262 17.2442L53.1172 17.2462H51.2972C51.0522 17.2462 50.8552 17.0482 50.8552 16.8042C50.8552 16.5742 51.0302 16.3862 51.2542 16.3642L51.2962 16.3632H53.1172C53.9032 16.3632 54.6572 16.0632 55.2292 15.5292L55.3032 15.4582L59.5622 11.1982Z" fill="#939598"/>
<path d="M18.1673 19.5253C17.2533 19.5253 16.3943 19.1703 15.7473 18.5243L12.2533 15.0293C12.0083 14.7843 11.5803 14.7843 11.3353 15.0293L7.82828 18.5363C7.18228 19.1823 6.32328 19.5383 5.40828 19.5383H4.72028L9.14528 23.9643C10.5273 25.3453 12.7683 25.3453 14.1503 23.9643L18.5883 19.5253H18.1683H18.1673ZM5.40928 7.16633C6.32228 7.16633 7.18228 7.52233 7.82928 8.16833L11.3353 11.6763C11.5883 11.9283 12.0003 11.9293 12.2533 11.6763L15.7473 8.18133C16.3943 7.53533 17.2533 7.17933 18.1673 7.17933H18.5883L14.1503 2.74133C12.7683 1.35933 10.5273 1.35933 9.14528 2.74133L4.72028 7.16633H5.40928Z" fill="#32BCAD"/>
<path d="M22.2593 10.8502L19.5772 8.16823C19.5182 8.19223 19.4542 8.20623 19.3872 8.20623H18.1672C17.5373 8.20623 16.9202 8.46223 16.4743 8.90823L12.9802 12.4022C12.6532 12.7292 12.2242 12.8922 11.7942 12.8922C11.3642 12.8922 10.9353 12.7292 10.6093 12.4022L7.10225 8.89523C6.65625 8.44923 6.03925 8.19423 5.40925 8.19423H3.90925C3.84525 8.19423 3.78625 8.17923 3.72925 8.15723L1.03725 10.8502C-0.34575 12.2322 -0.34575 14.4732 1.03725 15.8552L3.72925 18.5472C3.78625 18.5262 3.84525 18.5112 3.90925 18.5112H5.40925C6.03925 18.5112 6.65625 18.2552 7.10225 17.8092L10.6082 14.3032C11.2422 13.6692 12.3482 13.6692 12.9802 14.3032L16.4743 17.7972C16.9202 18.2422 17.5373 18.4982 18.1672 18.4982H19.3872C19.4542 18.4982 19.5182 18.5132 19.5772 18.5372L22.2593 15.8552C23.6413 14.4732 23.6413 12.2322 22.2593 10.8502Z" fill="#32BCAD"/>
<path d="M32.6653 22.1253C32.4673 22.1253 32.2363 22.1723 32.0083 22.2253V23.0993C32.1663 23.1563 32.3463 23.1843 32.5193 23.1843C32.9573 23.1843 33.1653 23.0363 33.1653 22.6503C33.1653 22.2883 32.9953 22.1253 32.6653 22.1253ZM31.8613 23.7473V22.0203H31.9813L31.9933 22.0953C32.1963 22.0473 32.4773 21.9853 32.6773 21.9853C32.8403 21.9853 32.9953 22.0093 33.1253 22.1153C33.2753 22.2383 33.3233 22.4353 33.3233 22.6503C33.3233 22.8763 33.2483 23.0893 33.0433 23.2063C32.9003 23.2863 32.7073 23.3193 32.5343 23.3193C32.3563 23.3193 32.1863 23.2913 32.0083 23.2393V23.7473H31.8613ZM34.4233 22.1203C33.9853 22.1203 33.7893 22.2573 33.7893 22.6433C33.7893 23.0163 33.9823 23.1843 34.4233 23.1843C34.8593 23.1843 35.0533 23.0493 35.0533 22.6643C35.0533 22.2903 34.8613 22.1203 34.4233 22.1203ZM34.9863 23.1843C34.8413 23.2893 34.6463 23.3193 34.4233 23.3193C34.1953 23.3193 34.0003 23.2873 33.8573 23.1843C33.6973 23.0713 33.6323 22.8863 33.6323 22.6543C33.6323 22.4233 33.6973 22.2353 33.8573 22.1203C34.0003 22.0173 34.1953 21.9853 34.4233 21.9853C34.6483 21.9853 34.8413 22.0173 34.9863 22.1203C35.1493 22.2353 35.2123 22.4233 35.2123 22.6503C35.2123 22.8833 35.1473 23.0713 34.9863 23.1843ZM37.0603 23.2843L36.5723 22.2353H36.5623L36.0813 23.2843H35.9493L35.4283 22.0203H35.5913L36.0243 23.0813H36.0343L36.5043 22.0203H36.6403L37.1233 23.0813H37.1333L37.5563 22.0203H37.7143L37.1933 23.2843H37.0603ZM38.6583 22.1173C38.2533 22.1173 38.1153 22.2973 38.0903 22.5583H39.2273C39.2143 22.2703 39.0673 22.1183 38.6583 22.1183V22.1173ZM38.6533 23.3193C38.4103 23.3193 38.2533 23.2843 38.1283 23.1793C37.9803 23.0513 37.9303 22.8663 37.9303 22.6533C37.9303 22.4503 37.9973 22.2353 38.1653 22.1133C38.3053 22.0153 38.4783 21.9853 38.6583 21.9853C38.8213 21.9853 39.0093 22.0023 39.1643 22.1073C39.3473 22.2303 39.3823 22.4453 39.3823 22.6913H38.0853C38.0903 22.9513 38.1753 23.1813 38.6653 23.1813C38.8993 23.1813 39.1173 23.1443 39.3193 23.1093V23.2413C39.1093 23.2793 38.8763 23.3193 38.6533 23.3193ZM39.8063 23.2843V22.0203H39.9263L39.9393 22.0953C40.2073 22.0273 40.3323 21.9853 40.5673 21.9853H40.5853V22.1253H40.5503C40.3523 22.1253 40.2323 22.1523 39.9543 22.2253V23.2853H39.8063V23.2843ZM41.4433 22.1173C41.0373 22.1173 40.9003 22.2973 40.8743 22.5583H42.0113C41.9993 22.2703 41.8513 22.1183 41.4433 22.1183V22.1173ZM41.4383 23.3193C41.1953 23.3193 41.0383 23.2843 40.9123 23.1793C40.7643 23.0513 40.7143 22.8663 40.7143 22.6533C40.7143 22.4503 40.7823 22.2353 40.9503 22.1133C41.0903 22.0153 41.2633 21.9853 41.4433 21.9853C41.6063 21.9853 41.7933 22.0023 41.9493 22.1073C42.1313 22.2303 42.1673 22.4453 42.1673 22.6913H40.8703C40.8743 22.9513 40.9603 23.1813 41.4503 23.1813C41.6833 23.1813 41.9013 23.1443 42.1043 23.1093V23.2413C41.8943 23.2793 41.6613 23.3193 41.4383 23.3193ZM43.7853 22.2053C43.6273 22.1473 43.4473 22.1203 43.2753 22.1203C42.8363 22.1203 42.6283 22.2683 42.6283 22.6533C42.6283 23.0193 42.7983 23.1793 43.1283 23.1793C43.3273 23.1793 43.5583 23.1313 43.7853 23.0813V22.2053ZM43.8133 23.2853L43.8003 23.2093C43.5973 23.2563 43.3173 23.3193 43.1163 23.3193C42.9543 23.3193 42.7983 23.2973 42.6683 23.1893C42.5183 23.0663 42.4703 22.8693 42.4703 22.6533C42.4703 22.4283 42.5463 22.2153 42.7503 22.1003C42.8943 22.0173 43.0863 21.9853 43.2623 21.9853C43.4373 21.9853 43.6073 22.0153 43.7853 22.0653V21.4863H43.9333V23.2843H43.8133V23.2853ZM46.0993 22.1253C45.9013 22.1253 45.6713 22.1723 45.4433 22.2253V23.0963C45.6033 23.1563 45.7813 23.1843 45.9533 23.1843C46.3923 23.1843 46.6003 23.0363 46.6003 22.6503C46.6003 22.2883 46.4303 22.1253 46.0993 22.1253ZM46.4773 23.2063C46.3343 23.2863 46.1413 23.3193 45.9693 23.3193C45.7813 23.3193 45.5933 23.2873 45.4033 23.2243L45.3953 23.2843H45.2953V21.4863H45.4433V22.0903C45.6463 22.0453 45.9183 21.9853 46.1113 21.9853C46.2743 21.9853 46.4293 22.0093 46.5593 22.1153C46.7093 22.2383 46.7573 22.4353 46.7573 22.6503C46.7573 22.8763 46.6823 23.0893 46.4773 23.2063ZM46.9533 23.7703V23.6323C47.0263 23.6403 47.0933 23.6453 47.1413 23.6453C47.3243 23.6453 47.4343 23.5923 47.5373 23.3853L47.5843 23.2853L46.9243 22.0203H47.0943L47.6603 23.1113H47.6703L48.2083 22.0203H48.3763L47.6653 23.4403C47.5353 23.6973 47.3953 23.7823 47.1363 23.7823C47.0793 23.7823 47.0163 23.7773 46.9533 23.7703ZM50.4123 22.5633H49.9223V23.0063H50.4143C50.7523 23.0063 50.8803 22.9693 50.8803 22.7833C50.8803 22.5853 50.7053 22.5633 50.4123 22.5633ZM50.3223 21.8443H49.9223V22.2943H50.3243C50.6573 22.2943 50.7903 22.2553 50.7903 22.0673C50.7903 21.8673 50.6223 21.8443 50.3223 21.8443ZM51.0833 23.1643C50.9033 23.2793 50.6853 23.2843 50.2873 23.2843H49.5383V21.5703H50.2693C50.6123 21.5703 50.8223 21.5753 50.9983 21.6803C51.1233 21.7553 51.1733 21.8703 51.1733 22.0203C51.1733 22.2003 51.0983 22.3213 50.9033 22.4013V22.4113C51.1233 22.4613 51.2663 22.5743 51.2663 22.8173C51.2663 22.9823 51.2063 23.0903 51.0833 23.1653V23.1643ZM52.7643 22.7533C52.6163 22.7413 52.4663 22.7333 52.3083 22.7333C52.0503 22.7333 51.9603 22.7863 51.9603 22.9033C51.9603 23.0133 52.0353 23.0733 52.2333 23.0733C52.3983 23.0733 52.5963 23.0363 52.7633 22.9993V22.7533H52.7643ZM52.8393 23.2843L52.8293 23.2093C52.6133 23.2623 52.3633 23.3193 52.1433 23.3193C52.0073 23.3193 51.8633 23.3023 51.7593 23.2263C51.6643 23.1593 51.6193 23.0493 51.6193 22.9213C51.6193 22.7783 51.6823 22.6453 51.8323 22.5783C51.9653 22.5153 52.1423 22.5103 52.3053 22.5103C52.4383 22.5103 52.6153 22.5183 52.7643 22.5283V22.5053C52.7643 22.3083 52.6343 22.2423 52.2783 22.2423C52.1403 22.2423 51.9723 22.2503 51.8123 22.2653V22.0093C51.9903 21.9953 52.1903 21.9853 52.3553 21.9853C52.5753 21.9853 52.8043 22.0023 52.9443 22.1023C53.0893 22.2053 53.1173 22.3483 53.1173 22.5353V23.2843H52.8393ZM54.7683 23.2843V22.5853C54.7683 22.3553 54.6503 22.2723 54.4403 22.2723C54.2843 22.2723 54.0903 22.3123 53.9243 22.3523V23.2843H53.5713V22.0203H53.8593L53.8713 22.1003C54.0943 22.0423 54.3423 21.9853 54.5473 21.9853C54.7023 21.9853 54.8603 22.0073 54.9803 22.1153C55.0803 22.2053 55.1183 22.3303 55.1183 22.5103V23.2843H54.7683ZM56.1163 23.3203C55.9533 23.3203 55.7753 23.2973 55.6453 23.1863C55.4903 23.0613 55.4453 22.8633 55.4453 22.6503C55.4453 22.4503 55.5103 22.2323 55.7023 22.1103C55.8603 22.0073 56.0553 21.9853 56.2583 21.9853C56.4043 21.9853 56.5463 21.9953 56.7043 22.0093V22.2793C56.5763 22.2683 56.4243 22.2573 56.3013 22.2573C55.9653 22.2573 55.8083 22.3633 55.8083 22.6533C55.8083 22.9263 55.9253 23.0433 56.2013 23.0433C56.3613 23.0433 56.5493 23.0133 56.7313 22.9793V23.2393C56.5343 23.2793 56.3183 23.3193 56.1163 23.3193V23.3203ZM57.7743 22.2503C57.4393 22.2503 57.2913 22.3553 57.2913 22.6433C57.2913 22.9313 57.4363 23.0533 57.7743 23.0533C58.1073 23.0533 58.2533 22.9513 58.2533 22.6633C58.2533 22.3753 58.1103 22.2503 57.7743 22.2503ZM58.3803 23.1863C58.2253 23.2913 58.0223 23.3193 57.7743 23.3193C57.5213 23.3193 57.3193 23.2893 57.1663 23.1863C56.9913 23.0713 56.9283 22.8813 56.9283 22.6533C56.9283 22.4253 56.9913 22.2333 57.1663 22.1173C57.3193 22.0153 57.5213 21.9853 57.7743 21.9853C58.0243 21.9853 58.2253 22.0153 58.3803 22.1173C58.5563 22.2323 58.6163 22.4253 58.6163 22.6503C58.6163 22.8793 58.5533 23.0713 58.3803 23.1863ZM60.6543 23.3203C60.4413 23.3203 60.2113 23.2843 60.0383 23.1413C59.8333 22.9713 59.7703 22.7083 59.7703 22.4253C59.7703 22.1723 59.8503 21.8723 60.1183 21.6973C60.3263 21.5623 60.5843 21.5343 60.8443 21.5343C61.0343 21.5343 61.2303 21.5463 61.4433 21.5643V21.8723C61.2603 21.8573 61.0353 21.8443 60.8593 21.8443C60.3713 21.8443 60.1633 22.0303 60.1633 22.4253C60.1633 22.8293 60.3563 23.0093 60.7173 23.0093C60.9523 23.0093 61.2153 22.9613 61.4803 22.9063V23.2113C61.2153 23.2643 60.9373 23.3193 60.6543 23.3193V23.3203ZM62.5183 22.2103C62.2253 22.2103 62.1123 22.3153 62.0903 22.5083H62.9413C62.9313 22.3033 62.8113 22.2103 62.5183 22.2103ZM62.4653 23.3203C62.2573 23.3203 62.0703 23.2943 61.9293 23.1793C61.7793 23.0543 61.7273 22.8663 61.7273 22.6503C61.7273 22.4583 61.7893 22.2423 61.9653 22.1173C62.1203 22.0073 62.3183 21.9853 62.5183 21.9853C62.6983 21.9853 62.9113 22.0053 63.0663 22.1123C63.2693 22.2553 63.2863 22.4753 63.2893 22.7363H62.0873C62.0953 22.9293 62.1973 23.0543 62.5533 23.0543C62.7733 23.0543 63.0183 23.0213 63.2263 22.9893V23.2373C62.9843 23.2773 62.7183 23.3193 62.4663 23.3193L62.4653 23.3203ZM64.8603 23.2843V22.5853C64.8603 22.3553 64.7423 22.2723 64.5323 22.2723C64.3773 22.2723 64.1823 22.3123 64.0163 22.3523V23.2843H63.6633V22.0203H63.9513L63.9633 22.1003C64.1863 22.0423 64.4343 21.9853 64.6403 21.9853C64.7953 21.9853 64.9523 22.0073 65.0733 22.1153C65.1733 22.2053 65.2103 22.3303 65.2103 22.5103V23.2843H64.8603ZM66.2153 23.3203C66.0453 23.3203 65.8903 23.2713 65.8053 23.1393C65.7423 23.0493 65.7123 22.9263 65.7123 22.7563V22.2823H65.4573V22.0203H65.7123L65.7503 21.6363H66.0633V22.0203H66.5613V22.2823H66.0633V22.6883C66.0633 22.7863 66.0703 22.8683 66.0983 22.9283C66.1353 23.0143 66.2183 23.0463 66.3283 23.0463C66.4103 23.0463 66.5113 23.0343 66.5813 23.0213V23.2743C66.4663 23.2973 66.3333 23.3193 66.2153 23.3193V23.3203ZM66.9053 23.2843V22.0203H67.1933L67.2063 22.1003C67.4393 22.0353 67.6113 21.9853 67.8323 21.9853C67.8423 21.9853 67.8573 21.9853 67.8773 21.9873V22.2873C67.8373 22.2853 67.7893 22.2853 67.7543 22.2853C67.5813 22.2853 67.4513 22.3053 67.2583 22.3503V23.2843H66.9053ZM69.1603 22.7533C69.0133 22.7413 68.8623 22.7333 68.7053 22.7333C68.4473 22.7333 68.3563 22.7863 68.3563 22.9033C68.3563 23.0133 68.4323 23.0733 68.6293 23.0733C68.7953 23.0733 68.9923 23.0363 69.1603 22.9993V22.7533ZM69.2353 23.2843L69.2253 23.2093C69.0103 23.2623 68.7603 23.3193 68.5393 23.3193C68.4043 23.3193 68.2593 23.3023 68.1563 23.2263C68.0613 23.1593 68.0163 23.0493 68.0163 22.9213C68.0163 22.7783 68.0793 22.6453 68.2293 22.5783C68.3623 22.5153 68.5393 22.5103 68.7023 22.5103C68.8353 22.5103 69.0123 22.5183 69.1603 22.5283V22.5053C69.1603 22.3083 69.0303 22.2423 68.6743 22.2423C68.5373 22.2423 68.3693 22.2503 68.2093 22.2653V22.0093C68.3863 21.9953 68.5873 21.9853 68.7523 21.9853C68.9723 21.9853 69.2003 22.0023 69.3413 22.1023C69.4863 22.2053 69.5133 22.3483 69.5133 22.5353V23.2843H69.2353ZM69.9673 21.4863H70.3203V23.2843H69.9673V21.4863Z" fill="#939598"/>
</svg>
