<svg width="44" height="45" viewBox="0 0 44 45" fill="none" xmlns="http://www.w3.org/2000/svg">
<g id="twitter">
<circle id="Oval" cx="22" cy="22.9448" r="22" fill="#47B2DE"/>
<path id="Shape" fill-rule="evenodd" clip-rule="evenodd" d="M27.9053 18.1335C27.9053 18.1335 27.9053 17.9773 27.9053 18.1335C27.1179 17.3515 26.1737 17.0391 25.2284 17.1953C26.1737 17.0391 26.6453 16.7257 26.8032 16.5695C26.8032 16.4134 26.8032 16.2572 26.6453 16.2572C26.1737 16.2572 25.7011 16.4134 25.3853 16.5695C25.8579 16.2572 26.0158 16.101 26.0158 15.9448C25.5432 15.9448 25.0705 16.2572 24.4411 16.7257C24.5979 16.4134 24.7558 16.2572 24.5979 16.101C24.2832 16.2572 24.1263 16.4134 23.9684 16.7257C23.4958 17.1953 23.1811 17.5077 23.0232 17.9773C22.3937 19.0705 21.9211 20.0087 21.6063 21.1041H21.4484C21.1337 20.6345 20.6611 20.1659 20.0316 19.8525C19.4011 19.3851 18.6137 19.0705 17.6695 18.6031C16.7242 18.1335 15.7789 17.6639 14.6768 17.3515C14.6768 18.4458 15.1495 19.3851 16.2516 20.0087C15.9368 20.0087 15.4642 20.0087 15.1495 20.1659C15.1495 21.1041 15.9368 21.885 17.3547 22.1984C16.8821 22.1984 16.4095 22.3546 15.9368 22.668C16.4095 23.6051 17.1968 23.9174 18.4568 23.9174C18.2989 24.0747 17.9842 24.2309 17.9842 24.2309C17.8263 24.3871 17.6695 24.6994 17.8263 25.0118C18.1421 25.4825 18.4568 25.6387 19.2442 25.6387C18.1421 26.7319 16.7242 27.3577 15.1495 27.2015C14.2042 27.2015 13.1021 26.7319 12 25.7937C13.1021 27.3577 14.6768 28.6093 16.5674 29.3902C18.7716 30.016 20.9758 30.1721 23.0232 29.5463C25.0705 28.9216 26.96 27.6711 28.3779 25.9499C29.0074 25.0118 29.48 24.0747 29.6379 23.1366C30.74 23.1366 31.5274 22.8231 32 22.1984C31.6853 22.3546 30.8979 22.3546 29.7947 22.0422C30.8979 21.885 31.6853 21.5726 31.8421 20.9468C31.0547 21.2592 30.2674 21.2592 29.48 20.9468C29.3232 19.8525 28.8505 18.9144 27.9053 18.1335Z" fill="white"/>
</g>
</svg>
