<svg width="28" height="29" viewBox="0 0 28 29" fill="none" xmlns="http://www.w3.org/2000/svg">
<path fill-rule="evenodd" clip-rule="evenodd" d="M27.0889 14.1857C27.0889 21.4985 21.1357 27.4266 13.7907 27.4266C11.4589 27.4266 9.26831 26.8286 7.36246 25.779L0 28.1266L2.40038 21.0225C1.1895 19.0274 0.492115 16.6873 0.492115 14.1857C0.492115 6.87288 6.44595 0.944824 13.7907 0.944824C21.1363 0.944824 27.0889 6.87288 27.0889 14.1857ZM13.7907 3.05353C7.62522 3.05353 2.61016 8.04743 2.61016 14.1857C2.61016 16.6215 3.40146 18.8773 4.73995 20.7123L3.34307 24.8467L7.63967 23.4764C9.40496 24.6395 11.5197 25.3179 13.791 25.3179C19.9555 25.3179 24.9714 20.3246 24.9714 14.1863C24.9714 8.04804 19.9558 3.05353 13.7907 3.05353ZM20.0576 16.9424C20.2857 17.0522 20.4397 17.1263 20.506 17.2352C20.587 17.3705 20.587 18.0201 20.3161 18.7788C20.0434 19.5363 18.7124 20.2672 18.1152 20.3212C18.0129 20.3305 17.928 20.351 17.841 20.3719C17.4203 20.4732 16.9498 20.5865 14.2033 19.51C11.1409 18.309 9.12227 15.328 8.70509 14.712C8.67084 14.6614 8.64739 14.6267 8.63503 14.6103L8.63449 14.6096C8.46903 14.3907 7.30407 12.8493 7.30407 11.254C7.30407 9.7599 8.04112 8.97631 8.38053 8.61548C8.40386 8.59068 8.42531 8.56788 8.44451 8.54697C8.74339 8.2223 9.09675 8.14106 9.31406 8.14106C9.42638 8.14106 9.53877 8.14832 9.64738 8.15534C9.74892 8.1619 9.84715 8.16824 9.93891 8.16824C9.9617 8.16824 9.98565 8.16669 10.0106 8.16508C10.1943 8.15321 10.4331 8.13779 10.6721 8.70946C10.7591 8.91778 10.8853 9.22341 11.0193 9.5479C11.3032 10.2358 11.6222 11.0085 11.6774 11.1187C11.7593 11.2815 11.8138 11.4708 11.7045 11.6874C11.689 11.7185 11.6746 11.748 11.6608 11.7762C11.5786 11.9441 11.5188 12.0665 11.3788 12.2289C11.3249 12.2917 11.2691 12.3592 11.2133 12.4269C11.1007 12.5633 10.9879 12.7 10.8897 12.7973C10.7269 12.9589 10.5568 13.1344 10.7468 13.459C10.937 13.7843 11.5913 14.8462 12.5602 15.7064C13.6025 16.6316 14.5081 17.0228 14.9666 17.2208C15.0558 17.2594 15.1281 17.2906 15.1812 17.317C15.5075 17.4795 15.6974 17.4523 15.8876 17.2352C16.0782 17.0186 16.703 16.2881 16.92 15.9631C17.137 15.6384 17.3549 15.6928 17.6538 15.8009C17.9518 15.9087 19.5549 16.6943 19.8811 16.8565C19.9441 16.8878 20.003 16.9161 20.0576 16.9424Z" fill="white"/>
</svg>
